G04 #@! TF.GenerationSoftware,KiCad,Pcbnew,(5.1.10)-1*
G04 #@! TF.CreationDate,2021-10-13T01:49:27-04:00*
G04 #@! TF.ProjectId,ScryptKeeper,53637279-7074-44b6-9565-7065722e6b69,rev?*
G04 #@! TF.SameCoordinates,Original*
G04 #@! TF.FileFunction,Paste,Top*
G04 #@! TF.FilePolarity,Positive*
%FSLAX46Y46*%
G04 Gerber Fmt 4.6, Leading zero omitted, Abs format (unit mm)*
G04 Created by KiCad (PCBNEW (5.1.10)-1) date 2021-10-13 01:49:27*
%MOMM*%
%LPD*%
G01*
G04 APERTURE LIST*
%ADD10R,1.600000X0.850000*%
%ADD11C,0.100000*%
G04 APERTURE END LIST*
D10*
X83340000Y-113425000D03*
X83340000Y-115175000D03*
X86840000Y-113425000D03*
X86840000Y-115175000D03*
D11*
G36*
X70916738Y-92144215D02*
G01*
X70705428Y-91691061D01*
X71158582Y-91479751D01*
X71369892Y-91932905D01*
X70916738Y-92144215D01*
G37*
G36*
X71297095Y-92959892D02*
G01*
X71085785Y-92506738D01*
X71538939Y-92295428D01*
X71750249Y-92748582D01*
X71297095Y-92959892D01*
G37*
G36*
X70481418Y-93340249D02*
G01*
X70270108Y-92887095D01*
X70723262Y-92675785D01*
X70934572Y-93128939D01*
X70481418Y-93340249D01*
G37*
G36*
X70101061Y-92524572D02*
G01*
X69889751Y-92071418D01*
X70342905Y-91860108D01*
X70554215Y-92313262D01*
X70101061Y-92524572D01*
G37*
G36*
X75334666Y-100488691D02*
G01*
X74925090Y-100201903D01*
X75211878Y-99792327D01*
X75621454Y-100079115D01*
X75334666Y-100488691D01*
G37*
G36*
X76071903Y-101004910D02*
G01*
X75662327Y-100718122D01*
X75949115Y-100308546D01*
X76358691Y-100595334D01*
X76071903Y-101004910D01*
G37*
G36*
X76588122Y-100267673D02*
G01*
X76178546Y-99980885D01*
X76465334Y-99571309D01*
X76874910Y-99858097D01*
X76588122Y-100267673D01*
G37*
G36*
X75850885Y-99751454D02*
G01*
X75441309Y-99464666D01*
X75728097Y-99055090D01*
X76137673Y-99341878D01*
X75850885Y-99751454D01*
G37*
G36*
X94699535Y-96463657D02*
G01*
X94528525Y-95993811D01*
X94998371Y-95822801D01*
X95169381Y-96292647D01*
X94699535Y-96463657D01*
G37*
G36*
X95007353Y-97309381D02*
G01*
X94836343Y-96839535D01*
X95306189Y-96668525D01*
X95477199Y-97138371D01*
X95007353Y-97309381D01*
G37*
G36*
X94161629Y-97617199D02*
G01*
X93990619Y-97147353D01*
X94460465Y-96976343D01*
X94631475Y-97446189D01*
X94161629Y-97617199D01*
G37*
G36*
X93853811Y-96771475D02*
G01*
X93682801Y-96301629D01*
X94152647Y-96130619D01*
X94323657Y-96600465D01*
X93853811Y-96771475D01*
G37*
G36*
X64843811Y-81131475D02*
G01*
X64672801Y-80661629D01*
X65142647Y-80490619D01*
X65313657Y-80960465D01*
X64843811Y-81131475D01*
G37*
G36*
X65151629Y-81977199D02*
G01*
X64980619Y-81507353D01*
X65450465Y-81336343D01*
X65621475Y-81806189D01*
X65151629Y-81977199D01*
G37*
G36*
X65997353Y-81669381D02*
G01*
X65826343Y-81199535D01*
X66296189Y-81028525D01*
X66467199Y-81498371D01*
X65997353Y-81669381D01*
G37*
G36*
X65689535Y-80823657D02*
G01*
X65518525Y-80353811D01*
X65988371Y-80182801D01*
X66159381Y-80652647D01*
X65689535Y-80823657D01*
G37*
M02*
