G04 #@! TF.GenerationSoftware,KiCad,Pcbnew,(5.1.10)-1*
G04 #@! TF.CreationDate,2021-10-13T01:49:27-04:00*
G04 #@! TF.ProjectId,ScryptKeeper,53637279-7074-44b6-9565-7065722e6b69,rev?*
G04 #@! TF.SameCoordinates,Original*
G04 #@! TF.FileFunction,Profile,NP*
%FSLAX46Y46*%
G04 Gerber Fmt 4.6, Leading zero omitted, Abs format (unit mm)*
G04 Created by KiCad (PCBNEW (5.1.10)-1) date 2021-10-13 01:49:27*
%MOMM*%
%LPD*%
G01*
G04 APERTURE LIST*
G04 #@! TA.AperFunction,Profile*
%ADD10C,0.100000*%
G04 #@! TD*
G04 APERTURE END LIST*
D10*
X120373253Y-88966862D02*
X120357643Y-88866850D01*
X120357643Y-88866850D02*
X120344149Y-88802822D01*
X120344149Y-88802822D02*
X120296525Y-88604386D01*
X120296525Y-88604386D02*
X120221649Y-88362030D01*
X120221649Y-88362030D02*
X120151005Y-88157245D01*
X120151005Y-88157245D02*
X120077981Y-87958809D01*
X120077981Y-87958809D02*
X120002840Y-87768311D01*
X120002840Y-87768311D02*
X119852029Y-87403190D01*
X119852029Y-87403190D02*
X119692752Y-87034894D01*
X119692752Y-87034894D02*
X119531622Y-86672153D01*
X119531622Y-86672153D02*
X119206981Y-85969163D01*
X119206981Y-85969163D02*
X118887633Y-85301625D01*
X118887633Y-85301625D02*
X118582042Y-84678009D01*
X118582042Y-84678009D02*
X118219037Y-83953058D01*
X118219037Y-83953058D02*
X117854709Y-83239748D01*
X117854709Y-83239748D02*
X117492498Y-82542843D01*
X117492498Y-82542843D02*
X117135844Y-81866045D01*
X117135844Y-81866045D02*
X116451902Y-80592618D01*
X116451902Y-80592618D02*
X115830402Y-79455186D01*
X115830402Y-79455186D02*
X115071849Y-78101856D01*
X115071849Y-78101856D02*
X114317530Y-76778688D01*
X114317530Y-76778688D02*
X113565856Y-75483830D01*
X113565856Y-75483830D02*
X112815505Y-74214372D01*
X112815505Y-74214372D02*
X112065154Y-72968726D01*
X112065154Y-72968726D02*
X111313480Y-71744511D01*
X111313480Y-71744511D02*
X110559161Y-70539346D01*
X110559161Y-70539346D02*
X109800608Y-69350849D01*
X109800608Y-69350849D02*
X108885159Y-67943280D01*
X108885159Y-67943280D02*
X108437223Y-67265689D01*
X108437223Y-67265689D02*
X107995374Y-66604502D01*
X107995374Y-66604502D02*
X107558815Y-65958925D01*
X107558815Y-65958925D02*
X107127549Y-65328773D01*
X107127549Y-65328773D02*
X106700780Y-64713041D01*
X106700780Y-64713041D02*
X106277980Y-64111146D01*
X106277980Y-64111146D02*
X105858884Y-63522454D01*
X105858884Y-63522454D02*
X105442963Y-62946277D01*
X105442963Y-62946277D02*
X105029953Y-62381926D01*
X105029953Y-62381926D02*
X104618795Y-61828767D01*
X104618795Y-61828767D02*
X104209488Y-61286165D01*
X104209488Y-61286165D02*
X103801505Y-60753405D01*
X103801505Y-60753405D02*
X103394580Y-60229853D01*
X103394580Y-60229853D02*
X102987654Y-59714820D01*
X102987654Y-59714820D02*
X102443941Y-59040113D01*
X102443941Y-59040113D02*
X101921394Y-58406337D01*
X101921394Y-58406337D02*
X101416574Y-57809601D01*
X101416574Y-57809601D02*
X100926306Y-57245939D01*
X100926306Y-57245939D02*
X100446621Y-56711433D01*
X100446621Y-56711433D02*
X99974345Y-56202141D01*
X99974345Y-56202141D02*
X99505772Y-55714096D01*
X99505772Y-55714096D02*
X99037464Y-55243407D01*
X99037464Y-55243407D02*
X98730286Y-54945965D01*
X98730286Y-54945965D02*
X98430516Y-54664107D01*
X98430516Y-54664107D02*
X98137625Y-54396828D01*
X98137625Y-54396828D02*
X97849762Y-54143069D01*
X97849762Y-54143069D02*
X97566131Y-53901877D01*
X97566131Y-53901877D02*
X97285411Y-53672168D01*
X97285411Y-53672168D02*
X97006278Y-53452936D01*
X97006278Y-53452936D02*
X96727675Y-53243177D01*
X96727675Y-53243177D02*
X96504633Y-53080777D01*
X96504633Y-53080777D02*
X96277888Y-52928326D01*
X96277888Y-52928326D02*
X96071515Y-52788098D01*
X96071515Y-52788098D02*
X95910120Y-52690203D01*
X95910120Y-52690203D02*
X95648450Y-52532778D01*
X95648450Y-52532778D02*
X95513249Y-52456552D01*
X95513249Y-52456552D02*
X95373021Y-52383289D01*
X95373021Y-52383289D02*
X95169030Y-52280341D01*
X95169030Y-52280341D02*
X94976150Y-52188823D01*
X94976150Y-52188823D02*
X94791208Y-52107226D01*
X94791208Y-52107226D02*
X94611029Y-52034043D01*
X94611029Y-52034043D02*
X94393014Y-51954986D01*
X94393014Y-51954986D02*
X94178440Y-51887862D01*
X94178440Y-51887862D02*
X93965981Y-51831639D01*
X93965981Y-51831639D02*
X93753787Y-51785337D01*
X93753787Y-51785337D02*
X93640018Y-51769462D01*
X93640018Y-51769462D02*
X93259286Y-51745624D01*
X93259286Y-51745624D02*
X92874850Y-51714800D01*
X92874850Y-51714800D02*
X92486975Y-51676991D01*
X92486975Y-51676991D02*
X92095660Y-51632198D01*
X92095660Y-51632198D02*
X91701170Y-51580499D01*
X91701170Y-51580499D02*
X91303505Y-51521841D01*
X91303505Y-51521841D02*
X90902666Y-51456305D01*
X90902666Y-51456305D02*
X90498651Y-51383836D01*
X90498651Y-51383836D02*
X90091990Y-51304488D01*
X90091990Y-51304488D02*
X89682419Y-51218288D01*
X89682419Y-51218288D02*
X89270203Y-51125235D01*
X89270203Y-51125235D02*
X88855340Y-51025329D01*
X88855340Y-51025329D02*
X88437832Y-50918624D01*
X88437832Y-50918624D02*
X88017942Y-50805092D01*
X88017942Y-50805092D02*
X87595671Y-50684761D01*
X87595671Y-50684761D02*
X87171019Y-50557683D01*
X87171019Y-50557683D02*
X86590794Y-50373746D01*
X86590794Y-50373746D02*
X86002631Y-50175681D01*
X86002631Y-50175681D02*
X85407853Y-49964228D01*
X85407853Y-49964228D02*
X84808314Y-49740128D01*
X84808314Y-49740128D02*
X84419380Y-49588656D01*
X84419380Y-49588656D02*
X84030446Y-49433215D01*
X84030446Y-49433215D02*
X83289356Y-49125772D01*
X83289356Y-49125772D02*
X82534771Y-48797216D01*
X82534771Y-48797216D02*
X81761667Y-48445376D01*
X81761667Y-48445376D02*
X80963956Y-48067978D01*
X80963956Y-48067978D02*
X80247736Y-47717277D01*
X80247736Y-47717277D02*
X79512466Y-47345991D01*
X79512466Y-47345991D02*
X78752855Y-46951395D01*
X78752855Y-46951395D02*
X77963610Y-46530765D01*
X77963610Y-46530765D02*
X77175160Y-46096244D01*
X77175160Y-46096244D02*
X76413167Y-45667888D01*
X76413167Y-45667888D02*
X75013535Y-44866552D01*
X75013535Y-44866552D02*
X74352084Y-44485556D01*
X74352084Y-44485556D02*
X74278001Y-44443223D01*
X74278001Y-44443223D02*
X73125752Y-43782433D01*
X73125752Y-43782433D02*
X72584420Y-43478085D01*
X72584420Y-43478085D02*
X72044940Y-43181173D01*
X72044940Y-43181173D02*
X71674527Y-42982896D01*
X71674527Y-42982896D02*
X71289826Y-42783641D01*
X71289826Y-42783641D02*
X70891897Y-42587348D01*
X70891897Y-42587348D02*
X70481268Y-42398014D01*
X70481268Y-42398014D02*
X70291034Y-42316285D01*
X70291034Y-42316285D02*
X70082015Y-42232307D01*
X70082015Y-42232307D02*
X69855799Y-42149837D01*
X69855799Y-42149837D02*
X69613443Y-42072580D01*
X69613443Y-42072580D02*
X69594922Y-42067288D01*
X69594922Y-42067288D02*
X69380612Y-42011726D01*
X69380612Y-42011726D02*
X69268694Y-41987623D01*
X69268694Y-41987623D02*
X69139579Y-41965742D01*
X69139579Y-41965742D02*
X68994060Y-41950344D01*
X68994060Y-41950344D02*
X68832930Y-41945581D01*
X68832930Y-41945581D02*
X68672859Y-41953519D01*
X68672859Y-41953519D02*
X68592691Y-41963440D01*
X68592691Y-41963440D02*
X68512787Y-41977331D01*
X68512787Y-41977331D02*
X68467809Y-41990560D01*
X68467809Y-41990560D02*
X68231538Y-42061335D01*
X68231538Y-42061335D02*
X68119620Y-42100678D01*
X68119620Y-42100678D02*
X68015375Y-42144017D01*
X68015375Y-42144017D02*
X67795773Y-42236620D01*
X67795773Y-42236620D02*
X67599984Y-42331869D01*
X67599984Y-42331869D02*
X67435150Y-42411032D01*
X67435150Y-42411032D02*
X67274285Y-42492919D01*
X67274285Y-42492919D02*
X66962344Y-42659949D01*
X66962344Y-42659949D02*
X66816825Y-42739323D01*
X66816825Y-42739323D02*
X66483718Y-42924292D01*
X66483718Y-42924292D02*
X66131561Y-43125611D01*
X66131561Y-43125611D02*
X65327235Y-43599211D01*
X65327235Y-43599211D02*
X64829559Y-43897393D01*
X64829559Y-43897393D02*
X64333470Y-44198803D01*
X64333470Y-44198803D02*
X63353463Y-44800407D01*
X63353463Y-44800407D02*
X62416848Y-45374547D01*
X62416848Y-45374547D02*
X61305609Y-46054519D01*
X61305609Y-46054519D02*
X60145687Y-46763463D01*
X60145687Y-46763463D02*
X58970684Y-47475635D01*
X58970684Y-47475635D02*
X57785891Y-48182357D01*
X57785891Y-48182357D02*
X57191378Y-48530968D01*
X57191378Y-48530968D02*
X56596072Y-48874950D01*
X56596072Y-48874950D02*
X55754176Y-49358550D01*
X55754176Y-49358550D02*
X54946411Y-49814343D01*
X54946411Y-49814343D02*
X54169602Y-50244022D01*
X54169602Y-50244022D02*
X53420839Y-50649281D01*
X53420839Y-50649281D02*
X52696681Y-51031864D01*
X52696681Y-51031864D02*
X51993955Y-51393467D01*
X51993955Y-51393467D02*
X51309749Y-51735781D01*
X51309749Y-51735781D02*
X50640360Y-52060501D01*
X50640360Y-52060501D02*
X49967002Y-52371833D01*
X49967002Y-52371833D02*
X49599499Y-52537170D01*
X49599499Y-52537170D02*
X49215328Y-52705734D01*
X49215328Y-52705734D02*
X48817134Y-52875198D01*
X48817134Y-52875198D02*
X48407563Y-53043127D01*
X48407563Y-53043127D02*
X47989526Y-53207141D01*
X47989526Y-53207141D02*
X47565932Y-53364884D01*
X47565932Y-53364884D02*
X47112441Y-53524082D01*
X47112441Y-53524082D02*
X46680910Y-53664680D01*
X46680910Y-53664680D02*
X46270016Y-53787181D01*
X46270016Y-53787181D02*
X45877642Y-53892061D01*
X45877642Y-53892061D02*
X45501938Y-53979822D01*
X45501938Y-53979822D02*
X45141050Y-54050968D01*
X45141050Y-54050968D02*
X44793391Y-54106001D01*
X44793391Y-54106001D02*
X44457109Y-54145397D01*
X44457109Y-54145397D02*
X44229569Y-54177147D01*
X44229569Y-54177147D02*
X44062883Y-54304145D01*
X44062883Y-54304145D02*
X43748032Y-54547692D01*
X43748032Y-54547692D02*
X43438208Y-54794916D01*
X43438208Y-54794916D02*
X43133676Y-55045421D01*
X43133676Y-55045421D02*
X42833641Y-55298889D01*
X42833641Y-55298889D02*
X42538369Y-55554924D01*
X42538369Y-55554924D02*
X42247595Y-55813155D01*
X42247595Y-55813155D02*
X41960790Y-56073238D01*
X41960790Y-56073238D02*
X41678217Y-56334802D01*
X41678217Y-56334802D02*
X41124979Y-56860921D01*
X41124979Y-56860921D02*
X40585499Y-57388574D01*
X40585499Y-57388574D02*
X40059010Y-57914878D01*
X40059010Y-57914878D02*
X39543845Y-58436896D01*
X39543845Y-58436896D02*
X39032172Y-58965396D01*
X39032172Y-58965396D02*
X38514282Y-59509770D01*
X38514282Y-59509770D02*
X37991947Y-60068036D01*
X37991947Y-60068036D02*
X37466886Y-60638207D01*
X37466886Y-60638207D02*
X36973655Y-61179036D01*
X36973655Y-61179036D02*
X36475687Y-61732248D01*
X36475687Y-61732248D02*
X35450781Y-62889789D01*
X35450781Y-62889789D02*
X34450057Y-64055055D01*
X34450057Y-64055055D02*
X33464600Y-65226486D01*
X33464600Y-65226486D02*
X32495282Y-66403156D01*
X32495282Y-66403156D02*
X31542924Y-67583715D01*
X31542924Y-67583715D02*
X31073399Y-68175317D01*
X31073399Y-68175317D02*
X30608425Y-68767713D01*
X30608425Y-68767713D02*
X30148160Y-69360374D01*
X30148160Y-69360374D02*
X29692684Y-69953564D01*
X29692684Y-69953564D02*
X29242104Y-70546754D01*
X29242104Y-70546754D02*
X28796523Y-71140473D01*
X28796523Y-71140473D02*
X28356049Y-71733928D01*
X28356049Y-71733928D02*
X27920814Y-72327382D01*
X27920814Y-72327382D02*
X27442373Y-72983807D01*
X27442373Y-72983807D02*
X26973297Y-73635998D01*
X26973297Y-73635998D02*
X26513403Y-74283956D01*
X26513403Y-74283956D02*
X26062558Y-74927946D01*
X26062558Y-74927946D02*
X25620523Y-75568231D01*
X25620523Y-75568231D02*
X25187139Y-76205341D01*
X25187139Y-76205341D02*
X24762249Y-76839541D01*
X24762249Y-76839541D02*
X24345667Y-77470831D01*
X24345667Y-77470831D02*
X23937207Y-78099739D01*
X23937207Y-78099739D02*
X23536685Y-78726266D01*
X23536685Y-78726266D02*
X23143915Y-79350941D01*
X23143915Y-79350941D02*
X22758765Y-79974029D01*
X22758765Y-79974029D02*
X22380996Y-80595793D01*
X22380996Y-80595793D02*
X22010478Y-81216500D01*
X22010478Y-81216500D02*
X21647023Y-81836148D01*
X21647023Y-81836148D02*
X21290421Y-82455531D01*
X21290421Y-82455531D02*
X20881168Y-83187890D01*
X20881168Y-83187890D02*
X20492340Y-83903581D01*
X20492340Y-83903581D02*
X20123303Y-84603926D01*
X20123303Y-84603926D02*
X19773368Y-85289984D01*
X19773368Y-85289984D02*
X19441954Y-85962548D01*
X19441954Y-85962548D02*
X19128347Y-86623471D01*
X19128347Y-86623471D02*
X18831911Y-87273545D01*
X18831911Y-87273545D02*
X18552011Y-87913831D01*
X18552011Y-87913831D02*
X18110161Y-88982737D01*
X18110161Y-88982737D02*
X17890559Y-89601855D01*
X17890559Y-89601855D02*
X17675243Y-90198485D01*
X17675243Y-90198485D02*
X17572454Y-90503017D01*
X17572454Y-90503017D02*
X17477813Y-90810989D01*
X17477813Y-90810989D02*
X17247628Y-91562398D01*
X17247628Y-91562398D02*
X16967172Y-92710679D01*
X16967172Y-92710679D02*
X16911610Y-93020238D01*
X16911610Y-93020238D02*
X16768737Y-93890708D01*
X16768737Y-93890708D02*
X16760799Y-93983312D01*
X16760799Y-93983312D02*
X16757333Y-94205030D01*
X16757333Y-94205030D02*
X16758894Y-94428336D01*
X16758894Y-94428336D02*
X16765535Y-94653759D01*
X16765535Y-94653759D02*
X16777336Y-94881563D01*
X16777336Y-94881563D02*
X16794348Y-95112277D01*
X16794348Y-95112277D02*
X16816599Y-95346431D01*
X16816599Y-95346431D02*
X16844222Y-95584819D01*
X16844222Y-95584819D02*
X16877215Y-95827439D01*
X16877215Y-95827439D02*
X16916320Y-96081701D01*
X16916320Y-96081701D02*
X16961881Y-96341784D01*
X16961881Y-96341784D02*
X17070359Y-96885762D01*
X17070359Y-96885762D02*
X17134387Y-97169392D01*
X17134387Y-97169392D02*
X17205612Y-97449319D01*
X17205612Y-97449319D02*
X17358752Y-97997001D01*
X17358752Y-97997001D02*
X17435480Y-98264227D01*
X17435480Y-98264227D02*
X17546604Y-98602891D01*
X17546604Y-98602891D02*
X17710300Y-99093423D01*
X17710300Y-99093423D02*
X17797003Y-99339219D01*
X17797003Y-99339219D02*
X17887913Y-99581839D01*
X17887913Y-99581839D02*
X18108653Y-100152804D01*
X18108653Y-100152804D02*
X18345638Y-100729590D01*
X18345638Y-100729590D02*
X18600985Y-101316959D01*
X18600985Y-101316959D02*
X18876784Y-101918616D01*
X18876784Y-101918616D02*
X19175151Y-102539587D01*
X19175151Y-102539587D02*
X19498204Y-103184105D01*
X19498204Y-103184105D02*
X19848059Y-103856669D01*
X19848059Y-103856669D02*
X20226807Y-104561248D01*
X20226807Y-104561248D02*
X20544039Y-105130096D01*
X20544039Y-105130096D02*
X20865425Y-105695241D01*
X20865425Y-105695241D02*
X21190542Y-106255887D01*
X21190542Y-106255887D02*
X21518940Y-106812565D01*
X21518940Y-106812565D02*
X21850195Y-107365274D01*
X21850195Y-107365274D02*
X22183884Y-107913485D01*
X22183884Y-107913485D02*
X22856739Y-108997472D01*
X22856739Y-108997472D02*
X23534066Y-110064526D01*
X23534066Y-110064526D02*
X24212371Y-111114118D01*
X24212371Y-111114118D02*
X24888216Y-112145982D01*
X24888216Y-112145982D02*
X25558108Y-113160120D01*
X25558108Y-113160120D02*
X25708919Y-113493492D01*
X25708919Y-113493492D02*
X25759189Y-113464388D01*
X25759189Y-113464388D02*
X25954979Y-113760718D01*
X25954979Y-113760718D02*
X26417995Y-114464503D01*
X26417995Y-114464503D02*
X26927631Y-115236020D01*
X26927631Y-115236020D02*
X27431340Y-116009654D01*
X27431340Y-116009654D02*
X27505422Y-116126070D01*
X27505422Y-116126070D02*
X27737248Y-116488545D01*
X27737248Y-116488545D02*
X27963147Y-116851021D01*
X27963147Y-116851021D02*
X28129833Y-117131476D01*
X28129833Y-117131476D02*
X28201269Y-117258475D01*
X28201269Y-117258475D02*
X28219790Y-117295516D01*
X28219790Y-117295516D02*
X28267415Y-117385474D01*
X28267415Y-117385474D02*
X28291227Y-117435744D01*
X28291227Y-117435744D02*
X28326601Y-117516177D01*
X28326601Y-117516177D02*
X28367955Y-117626242D01*
X28367955Y-117626242D02*
X28582266Y-118234778D01*
X28582266Y-118234778D02*
X28598141Y-118277111D01*
X28598141Y-118277111D02*
X28822240Y-118904696D01*
X28822240Y-118904696D02*
X29033693Y-119536250D01*
X29033693Y-119536250D02*
X29231758Y-120169127D01*
X29231758Y-120169127D02*
X29415695Y-120801211D01*
X29415695Y-120801211D02*
X29581508Y-121401544D01*
X29581508Y-121401544D02*
X29738139Y-122026484D01*
X29738139Y-122026484D02*
X29886358Y-122679734D01*
X29886358Y-122679734D02*
X30026876Y-123364998D01*
X30026876Y-123364998D02*
X30088074Y-123703132D01*
X30088074Y-123703132D02*
X30144694Y-124041001D01*
X30144694Y-124041001D02*
X30196737Y-124378606D01*
X30196737Y-124378606D02*
X30244203Y-124715682D01*
X30244203Y-124715682D02*
X30287065Y-125052229D01*
X30287065Y-125052229D02*
X30325376Y-125387981D01*
X30325376Y-125387981D02*
X30359110Y-125723205D01*
X30359110Y-125723205D02*
X30388267Y-126057900D01*
X30388267Y-126057900D02*
X30412873Y-126391536D01*
X30412873Y-126391536D02*
X30432902Y-126724379D01*
X30432902Y-126724379D02*
X30448380Y-127056163D01*
X30448380Y-127056163D02*
X30459307Y-127387153D01*
X30459307Y-127387153D02*
X30465683Y-127716821D01*
X30465683Y-127716821D02*
X30467483Y-128045430D01*
X30467483Y-128045430D02*
X30464757Y-128372716D01*
X30464757Y-128372716D02*
X30457481Y-128698944D01*
X30457481Y-128698944D02*
X30445655Y-129023585D01*
X30445655Y-129023585D02*
X30429304Y-129346902D01*
X30429304Y-129346902D02*
X30408402Y-129668897D01*
X30408402Y-129668897D02*
X30382976Y-129989040D01*
X30382976Y-129989040D02*
X30353025Y-130307595D01*
X30353025Y-130307595D02*
X30318524Y-130624563D01*
X30318524Y-130624563D02*
X30279524Y-130939678D01*
X30279524Y-130939678D02*
X30235975Y-131252942D01*
X30235975Y-131252942D02*
X30187927Y-131564089D01*
X30187927Y-131564089D02*
X30135354Y-131873383D01*
X30135354Y-131873383D02*
X30078258Y-132180826D01*
X30078258Y-132180826D02*
X30016664Y-132485888D01*
X30016664Y-132485888D02*
X29950571Y-132788833D01*
X29950571Y-132788833D02*
X29879981Y-133089396D01*
X29879981Y-133089396D02*
X29804867Y-133387843D01*
X29804867Y-133387843D02*
X29725254Y-133683644D01*
X29725254Y-133683644D02*
X29645880Y-133969392D01*
X29645880Y-133969392D02*
X29757004Y-134273659D01*
X29757004Y-134273659D02*
X29835505Y-134479768D01*
X29835505Y-134479768D02*
X29918901Y-134680320D01*
X29918901Y-134680320D02*
X30006636Y-134875051D01*
X30006636Y-134875051D02*
X30098234Y-135064491D01*
X30098234Y-135064491D02*
X30193139Y-135248375D01*
X30193139Y-135248375D02*
X30290822Y-135426438D01*
X30290822Y-135426438D02*
X30390807Y-135599209D01*
X30390807Y-135599209D02*
X30492538Y-135766159D01*
X30492538Y-135766159D02*
X30699202Y-136083921D01*
X30699202Y-136083921D02*
X30906687Y-136379193D01*
X30906687Y-136379193D02*
X31110811Y-136652504D01*
X31110811Y-136652504D02*
X31307447Y-136903592D01*
X31307447Y-136903592D02*
X31466989Y-137099117D01*
X31466989Y-137099117D02*
X31632299Y-137294377D01*
X31632299Y-137294377D02*
X31803695Y-137490431D01*
X31803695Y-137490431D02*
X31981466Y-137687544D01*
X31981466Y-137687544D02*
X32165932Y-137885450D01*
X32165932Y-137885450D02*
X32357409Y-138085209D01*
X32357409Y-138085209D02*
X32762641Y-138491076D01*
X32762641Y-138491076D02*
X33273282Y-138977904D01*
X33273282Y-138977904D02*
X33734419Y-139394883D01*
X33734419Y-139394883D02*
X34214607Y-139811333D01*
X34214607Y-139811333D02*
X34716252Y-140229900D01*
X34716252Y-140229900D02*
X35241762Y-140651642D01*
X35241762Y-140651642D02*
X35793572Y-141079204D01*
X35793572Y-141079204D02*
X36374088Y-141514175D01*
X36374088Y-141514175D02*
X36985720Y-141958935D01*
X36985720Y-141958935D02*
X37630926Y-142414807D01*
X37630926Y-142414807D02*
X38139927Y-142764583D01*
X38139927Y-142764583D02*
X38656335Y-143112507D01*
X38656335Y-143112507D02*
X39180761Y-143459372D01*
X39180761Y-143459372D02*
X39713891Y-143805179D01*
X39713891Y-143805179D02*
X40256308Y-144150192D01*
X40256308Y-144150192D02*
X40808805Y-144495470D01*
X40808805Y-144495470D02*
X41371568Y-144840748D01*
X41371568Y-144840748D02*
X41945973Y-145186555D01*
X41945973Y-145186555D02*
X42532019Y-145533685D01*
X42532019Y-145533685D02*
X43130501Y-145881873D01*
X43130501Y-145881873D02*
X43742476Y-146232178D01*
X43742476Y-146232178D02*
X44367945Y-146584599D01*
X44367945Y-146584599D02*
X45007966Y-146939666D01*
X45007966Y-146939666D02*
X45663067Y-147297379D01*
X45663067Y-147297379D02*
X46333780Y-147658797D01*
X46333780Y-147658797D02*
X47020896Y-148023918D01*
X47020896Y-148023918D02*
X48234263Y-148653885D01*
X48234263Y-148653885D02*
X49454774Y-149271416D01*
X49454774Y-149271416D02*
X50681370Y-149876247D01*
X50681370Y-149876247D02*
X51912729Y-150467585D01*
X51912729Y-150467585D02*
X53148056Y-151045430D01*
X53148056Y-151045430D02*
X54386029Y-151608722D01*
X54386029Y-151608722D02*
X55625590Y-152157462D01*
X55625590Y-152157462D02*
X56865944Y-152691121D01*
X56865944Y-152691121D02*
X57551737Y-152978456D01*
X57551737Y-152978456D02*
X58220862Y-153253885D01*
X58220862Y-153253885D02*
X58874112Y-153517671D01*
X58874112Y-153517671D02*
X59513074Y-153770346D01*
X59513074Y-153770346D02*
X60138543Y-154012437D01*
X60138543Y-154012437D02*
X60751841Y-154244475D01*
X60751841Y-154244475D02*
X61353762Y-154466987D01*
X61353762Y-154466987D02*
X61945894Y-154680768D01*
X61945894Y-154680768D02*
X62665553Y-154931591D01*
X62665553Y-154931591D02*
X63332561Y-155154632D01*
X63332561Y-155154632D02*
X63958295Y-155354655D01*
X63958295Y-155354655D02*
X64554660Y-155535364D01*
X64554660Y-155535364D02*
X65249184Y-155729566D01*
X65249184Y-155729566D02*
X65589170Y-155818994D01*
X65589170Y-155818994D02*
X65926775Y-155901808D01*
X65926775Y-155901808D02*
X66264116Y-155977214D01*
X66264116Y-155977214D02*
X66602779Y-156044417D01*
X66602779Y-156044417D02*
X66945146Y-156102096D01*
X66945146Y-156102096D02*
X67293070Y-156149191D01*
X67293070Y-156149191D02*
X67449173Y-156170358D01*
X67449173Y-156170358D02*
X67650254Y-156072463D01*
X67650254Y-156072463D02*
X68070144Y-155861063D01*
X68070144Y-155861063D02*
X68291069Y-155743853D01*
X68291069Y-155743853D02*
X68510141Y-155620030D01*
X68510141Y-155620030D02*
X68649311Y-155535893D01*
X68649311Y-155535893D02*
X68790332Y-155445936D01*
X68790332Y-155445936D02*
X69084282Y-155244325D01*
X69084282Y-155244325D02*
X69118677Y-155270783D01*
X69118677Y-155270783D02*
X69246999Y-155372118D01*
X69246999Y-155372118D02*
X69374262Y-155466573D01*
X69374262Y-155466573D02*
X69502319Y-155554943D01*
X69502319Y-155554943D02*
X69631964Y-155638550D01*
X69631964Y-155638550D02*
X69792300Y-155734064D01*
X69792300Y-155734064D02*
X69942846Y-155815026D01*
X69942846Y-155815026D02*
X70087307Y-155883287D01*
X70087307Y-155883287D02*
X70229916Y-155940172D01*
X70229916Y-155940172D02*
X70331515Y-155975097D01*
X70331515Y-155975097D02*
X70429675Y-156004730D01*
X70429675Y-156004730D02*
X70525188Y-156028807D01*
X70525188Y-156028807D02*
X70617791Y-156047592D01*
X70617791Y-156047592D02*
X70708278Y-156061086D01*
X70708278Y-156061086D02*
X70796648Y-156069288D01*
X70796648Y-156069288D02*
X70883166Y-156072198D01*
X70883166Y-156072198D02*
X70968096Y-156069817D01*
X70968096Y-156069817D02*
X71028950Y-156077754D01*
X71028950Y-156077754D02*
X71132136Y-156048650D01*
X71132136Y-156048650D02*
X72129606Y-155750468D01*
X72129606Y-155750468D02*
X73268626Y-155399105D01*
X73268626Y-155399105D02*
X74465060Y-155022606D01*
X74465060Y-155022606D02*
X75635300Y-154649548D01*
X75635300Y-154649548D02*
X77561448Y-154028312D01*
X77561448Y-154028312D02*
X78376356Y-153762673D01*
X78376356Y-153762673D02*
X78495418Y-153722986D01*
X78495418Y-153722986D02*
X79529664Y-153363156D01*
X79529664Y-153363156D02*
X80420242Y-153050157D01*
X80420242Y-153050157D02*
X81220599Y-152765204D01*
X81220599Y-152765204D02*
X82579750Y-152264617D01*
X82579750Y-152264617D02*
X83898420Y-151765883D01*
X83898420Y-151765883D02*
X85178727Y-151268206D01*
X85178727Y-151268206D02*
X86422785Y-150770795D01*
X86422785Y-150770795D02*
X87633242Y-150272854D01*
X87633242Y-150272854D02*
X88811420Y-149773061D01*
X88811420Y-149773061D02*
X89960229Y-149270622D01*
X89960229Y-149270622D02*
X91081522Y-148764744D01*
X91081522Y-148764744D02*
X91636877Y-148510746D01*
X91636877Y-148510746D02*
X92293302Y-148201187D01*
X92293302Y-148201187D02*
X93015607Y-147854586D01*
X93015607Y-147854586D02*
X93499790Y-147624401D01*
X93499790Y-147624401D02*
X93962806Y-147391570D01*
X93962806Y-147391570D02*
X94626639Y-147057405D01*
X94626639Y-147057405D02*
X95288356Y-146719535D01*
X95288356Y-146719535D02*
X95881016Y-146407330D01*
X95881016Y-146407330D02*
X96554110Y-146045648D01*
X96554110Y-146045648D02*
X97195718Y-145694020D01*
X97195718Y-145694020D02*
X97808487Y-145350595D01*
X97808487Y-145350595D02*
X98394798Y-145014048D01*
X98394798Y-145014048D02*
X98957561Y-144682793D01*
X98957561Y-144682793D02*
X99499422Y-144355507D01*
X99499422Y-144355507D02*
X100022498Y-144030337D01*
X100022498Y-144030337D02*
X100529700Y-143705961D01*
X100529700Y-143705961D02*
X101105163Y-143329463D01*
X101105163Y-143329463D02*
X101656813Y-142957198D01*
X101656813Y-142957198D02*
X102103690Y-142648432D01*
X102103690Y-142648432D02*
X102537867Y-142340725D01*
X102537867Y-142340725D02*
X102960138Y-142033811D01*
X102960138Y-142033811D02*
X103371032Y-141726898D01*
X103371032Y-141726898D02*
X103771343Y-141419455D01*
X103771343Y-141419455D02*
X104161864Y-141110954D01*
X104161864Y-141110954D02*
X104543389Y-140800865D01*
X104543389Y-140800865D02*
X104916448Y-140488660D01*
X104916448Y-140488660D02*
X105210132Y-140235721D01*
X105210132Y-140235721D02*
X105496144Y-139983311D01*
X105496144Y-139983311D02*
X105774483Y-139730901D01*
X105774483Y-139730901D02*
X106045149Y-139478491D01*
X106045149Y-139478491D02*
X106308407Y-139225816D01*
X106308407Y-139225816D02*
X106564257Y-138973406D01*
X106564257Y-138973406D02*
X106812962Y-138720203D01*
X106812962Y-138720203D02*
X107054260Y-138466999D01*
X107054260Y-138466999D02*
X107288679Y-138213001D01*
X107288679Y-138213001D02*
X107515953Y-137958475D01*
X107515953Y-137958475D02*
X107736614Y-137703154D01*
X107736614Y-137703154D02*
X107950395Y-137447040D01*
X107950395Y-137447040D02*
X108157297Y-137189868D01*
X108157297Y-137189868D02*
X108357849Y-136931637D01*
X108357849Y-136931637D02*
X108552051Y-136672348D01*
X108552051Y-136672348D02*
X108739639Y-136411471D01*
X108739639Y-136411471D02*
X108953950Y-136107204D01*
X108953950Y-136107204D02*
X108961887Y-135665354D01*
X108961887Y-135665354D02*
X108961887Y-135654771D01*
X108961887Y-135654771D02*
X108897065Y-135009194D01*
X108897065Y-135009194D02*
X108841767Y-134348800D01*
X108841767Y-134348800D02*
X108795466Y-133669886D01*
X108795466Y-133669886D02*
X108758160Y-132969277D01*
X108758160Y-132969277D02*
X108729850Y-132244061D01*
X108729850Y-132244061D02*
X108710271Y-131490535D01*
X108710271Y-131490535D02*
X108699688Y-130706053D01*
X108699688Y-130706053D02*
X108697306Y-129886912D01*
X108697306Y-129886912D02*
X108703656Y-129175719D01*
X108703656Y-129175719D02*
X108717150Y-128458970D01*
X108717150Y-128458970D02*
X108737258Y-127737723D01*
X108737258Y-127737723D02*
X108763981Y-127012507D01*
X108763981Y-127012507D02*
X108797582Y-126284116D01*
X108797582Y-126284116D02*
X108838063Y-125552815D01*
X108838063Y-125552815D02*
X108884629Y-124819398D01*
X108884629Y-124819398D02*
X108938075Y-124084657D01*
X108938075Y-124084657D02*
X108997605Y-123343566D01*
X108997605Y-123343566D02*
X109062428Y-122606445D01*
X109062428Y-122606445D02*
X109133335Y-121874614D01*
X109133335Y-121874614D02*
X109209535Y-121147811D01*
X109209535Y-121147811D02*
X109291555Y-120427094D01*
X109291555Y-120427094D02*
X109378866Y-119712990D01*
X109378866Y-119712990D02*
X109471999Y-119005766D01*
X109471999Y-119005766D02*
X109570423Y-118306215D01*
X109570423Y-118306215D02*
X109659586Y-117700325D01*
X109659586Y-117700325D02*
X109745046Y-117146293D01*
X109745046Y-117146293D02*
X109828653Y-116634594D01*
X109828653Y-116634594D02*
X109911732Y-116155174D01*
X109911732Y-116155174D02*
X109975760Y-115797990D01*
X109975760Y-115797990D02*
X110044022Y-115440806D01*
X110044022Y-115440806D02*
X110173667Y-114756600D01*
X110173667Y-114756600D02*
X110327124Y-114022653D01*
X110327124Y-114022653D02*
X110410202Y-113655944D01*
X110410202Y-113655944D02*
X110499101Y-113287119D01*
X110499101Y-113287119D02*
X110655204Y-112615084D01*
X110655204Y-112615084D02*
X110735901Y-112314785D01*
X110735901Y-112314785D02*
X110833002Y-111998611D01*
X110833002Y-111998611D02*
X110949153Y-111656508D01*
X110949153Y-111656508D02*
X111086470Y-111278952D01*
X111086470Y-111278952D02*
X111217967Y-110930763D01*
X111217967Y-110930763D02*
X111355284Y-110588660D01*
X111355284Y-110588660D02*
X111626215Y-109948111D01*
X111626215Y-109948111D02*
X111926514Y-109265492D01*
X111926514Y-109265492D02*
X112233163Y-108597162D01*
X112233163Y-108597162D02*
X112541135Y-107946029D01*
X112541135Y-107946029D02*
X112845932Y-107315533D01*
X112845932Y-107315533D02*
X113313181Y-106369392D01*
X113313181Y-106369392D02*
X113790485Y-105423781D01*
X113790485Y-105423781D02*
X114271757Y-104483990D01*
X114271757Y-104483990D02*
X114750913Y-103555841D01*
X114750913Y-103555841D02*
X115497031Y-102108585D01*
X115497031Y-102108585D02*
X116157160Y-100817696D01*
X116157160Y-100817696D02*
X116487621Y-100164181D01*
X116487621Y-100164181D02*
X116816495Y-99505111D01*
X116816495Y-99505111D02*
X117142987Y-98840484D01*
X117142987Y-98840484D02*
X117465247Y-98170566D01*
X117465247Y-98170566D02*
X117782214Y-97495091D01*
X117782214Y-97495091D02*
X118092567Y-96814325D01*
X118092567Y-96814325D02*
X118360323Y-96210817D01*
X118360323Y-96210817D02*
X118650039Y-95536665D01*
X118650039Y-95536665D02*
X118949015Y-94811449D01*
X118949015Y-94811449D02*
X119097710Y-94435745D01*
X119097710Y-94435745D02*
X119243494Y-94054748D01*
X119243494Y-94054748D02*
X119502783Y-93343026D01*
X119502783Y-93343026D02*
X119583215Y-93107285D01*
X119583215Y-93107285D02*
X119661531Y-92869427D01*
X119661531Y-92869427D02*
X119743551Y-92618075D01*
X119743551Y-92618075D02*
X119819486Y-92374396D01*
X119819486Y-92374396D02*
X119891716Y-92128601D01*
X119891716Y-92128601D02*
X119965799Y-91874604D01*
X119965799Y-91874604D02*
X120066604Y-91492549D01*
X120066604Y-91492549D02*
X120161589Y-91096736D01*
X120161589Y-91096736D02*
X120240963Y-90699865D01*
X120240963Y-90699865D02*
X120283560Y-90477618D01*
X120283560Y-90477618D02*
X120312400Y-90279182D01*
X120312400Y-90279182D02*
X120370607Y-89842624D01*
X120370607Y-89842624D02*
X120402357Y-89257901D01*
X120402357Y-89257901D02*
X120389657Y-89115292D01*
X120389657Y-89115292D02*
X120373253Y-88966862D01*
X120373253Y-88966862D02*
X120373253Y-88966862D01*
X120373253Y-88966862D02*
X120373253Y-88966862D01*
X72985000Y-153045000D02*
X72985000Y-153645000D01*
X73585000Y-153645000D02*
X73585000Y-153045000D01*
X64345000Y-153045000D02*
X64345000Y-153645000D01*
X64945000Y-153645000D02*
X64945000Y-153045000D01*
X64345000Y-148615000D02*
X64345000Y-149715000D01*
X64945000Y-149715000D02*
X64945000Y-148615000D01*
X72985000Y-148615000D02*
X72985000Y-149715000D01*
X73585000Y-149715000D02*
X73585000Y-148615000D01*
X73285000Y-152745000D02*
G75*
G02*
X73585000Y-153045000I0J-300000D01*
G01*
X72985000Y-153045000D02*
G75*
G02*
X73285000Y-152745000I300000J0D01*
G01*
X73285000Y-153945000D02*
G75*
G02*
X72985000Y-153645000I0J300000D01*
G01*
X73585000Y-153645000D02*
G75*
G02*
X73285000Y-153945000I-300000J0D01*
G01*
X64645000Y-152745000D02*
G75*
G02*
X64945000Y-153045000I0J-300000D01*
G01*
X64345000Y-153045000D02*
G75*
G02*
X64645000Y-152745000I300000J0D01*
G01*
X64645000Y-153945000D02*
G75*
G02*
X64345000Y-153645000I0J300000D01*
G01*
X64945000Y-153645000D02*
G75*
G02*
X64645000Y-153945000I-300000J0D01*
G01*
X64645000Y-148315000D02*
G75*
G02*
X64945000Y-148615000I0J-300000D01*
G01*
X64345000Y-148615000D02*
G75*
G02*
X64645000Y-148315000I300000J0D01*
G01*
X64645000Y-150015000D02*
G75*
G02*
X64345000Y-149715000I0J300000D01*
G01*
X64945000Y-149715000D02*
G75*
G02*
X64645000Y-150015000I-300000J0D01*
G01*
X73285000Y-148315000D02*
G75*
G02*
X73585000Y-148615000I0J-300000D01*
G01*
X72985000Y-148615000D02*
G75*
G02*
X73285000Y-148315000I300000J0D01*
G01*
X73285000Y-150015000D02*
G75*
G02*
X72985000Y-149715000I0J300000D01*
G01*
X73585000Y-149715000D02*
G75*
G02*
X73285000Y-150015000I-300000J0D01*
G01*
M02*
