G04 #@! TF.GenerationSoftware,KiCad,Pcbnew,(5.1.10)-1*
G04 #@! TF.CreationDate,2021-10-13T01:49:27-04:00*
G04 #@! TF.ProjectId,ScryptKeeper,53637279-7074-44b6-9565-7065722e6b69,rev?*
G04 #@! TF.SameCoordinates,Original*
G04 #@! TF.FileFunction,Copper,L6,Inr*
G04 #@! TF.FilePolarity,Positive*
%FSLAX46Y46*%
G04 Gerber Fmt 4.6, Leading zero omitted, Abs format (unit mm)*
G04 Created by KiCad (PCBNEW (5.1.10)-1) date 2021-10-13 01:49:27*
%MOMM*%
%LPD*%
G01*
G04 APERTURE LIST*
G04 #@! TA.AperFunction,ComponentPad*
%ADD10R,2.000000X2.000000*%
G04 #@! TD*
G04 #@! TA.AperFunction,ComponentPad*
%ADD11C,0.100000*%
G04 #@! TD*
G04 #@! TA.AperFunction,ComponentPad*
%ADD12C,1.727200*%
G04 #@! TD*
G04 #@! TA.AperFunction,ComponentPad*
%ADD13O,1.727200X1.727200*%
G04 #@! TD*
G04 #@! TA.AperFunction,ComponentPad*
%ADD14R,1.727200X1.727200*%
G04 #@! TD*
G04 #@! TA.AperFunction,ComponentPad*
%ADD15C,2.000000*%
G04 #@! TD*
G04 #@! TA.AperFunction,ComponentPad*
%ADD16O,1.000000X2.000000*%
G04 #@! TD*
G04 #@! TA.AperFunction,ViaPad*
%ADD17C,0.800000*%
G04 #@! TD*
G04 APERTURE END LIST*
D10*
X106680000Y-135255000D03*
G04 #@! TA.AperFunction,ComponentPad*
D11*
G36*
X32385000Y-136669214D02*
G01*
X30970786Y-135255000D01*
X32385000Y-133840786D01*
X33799214Y-135255000D01*
X32385000Y-136669214D01*
G37*
G04 #@! TD.AperFunction*
G04 #@! TA.AperFunction,ComponentPad*
G36*
X34925000Y-139209214D02*
G01*
X33510786Y-137795000D01*
X34925000Y-136380786D01*
X36339214Y-137795000D01*
X34925000Y-139209214D01*
G37*
G04 #@! TD.AperFunction*
D10*
X106680000Y-132080000D03*
D12*
X71414001Y-45720001D03*
X71414001Y-48260001D03*
D13*
X68874001Y-45720001D03*
X68874001Y-48260001D03*
X66334001Y-45720001D03*
D14*
X66334001Y-48260001D03*
G04 #@! TA.AperFunction,ComponentPad*
D11*
G36*
X110393975Y-75833975D02*
G01*
X112126025Y-74833975D01*
X113126025Y-76566025D01*
X111393975Y-77566025D01*
X110393975Y-75833975D01*
G37*
G04 #@! TD.AperFunction*
G04 #@! TA.AperFunction,ComponentPad*
G36*
X108488975Y-72658975D02*
G01*
X110221025Y-71658975D01*
X111221025Y-73391025D01*
X109488975Y-74391025D01*
X108488975Y-72658975D01*
G37*
G04 #@! TD.AperFunction*
D15*
X43180000Y-81530000D03*
D10*
X43180000Y-96520000D03*
G04 #@! TA.AperFunction,ComponentPad*
D11*
G36*
X106028695Y-99899629D02*
G01*
X107443534Y-98908948D01*
X108434215Y-100323787D01*
X107019376Y-101314468D01*
X106028695Y-99899629D01*
G37*
G04 #@! TD.AperFunction*
G04 #@! TA.AperFunction,ComponentPad*
G36*
G01*
X105279229Y-97323642D02*
X105279229Y-97323642D01*
G75*
G02*
X106481990Y-97535721I495341J-707420D01*
G01*
X106481990Y-97535721D01*
G75*
G02*
X106269911Y-98738482I-707420J-495341D01*
G01*
X106269911Y-98738482D01*
G75*
G02*
X105067150Y-98526403I-495341J707420D01*
G01*
X105067150Y-98526403D01*
G75*
G02*
X105279229Y-97323642I707420J495341D01*
G01*
G37*
G04 #@! TD.AperFunction*
G04 #@! TA.AperFunction,ComponentPad*
G36*
G01*
X108816760Y-97947404D02*
X108816760Y-97947404D01*
G75*
G02*
X110019521Y-98159483I495341J-707420D01*
G01*
X110019521Y-98159483D01*
G75*
G02*
X109807442Y-99362244I-707420J-495341D01*
G01*
X109807442Y-99362244D01*
G75*
G02*
X108604681Y-99150165I-495341J707420D01*
G01*
X108604681Y-99150165D01*
G75*
G02*
X108816760Y-97947404I707420J495341D01*
G01*
G37*
G04 #@! TD.AperFunction*
G04 #@! TA.AperFunction,ComponentPad*
G36*
G01*
X107359876Y-95866757D02*
X107359876Y-95866757D01*
G75*
G02*
X108562637Y-96078836I495341J-707420D01*
G01*
X108562637Y-96078836D01*
G75*
G02*
X108350558Y-97281597I-707420J-495341D01*
G01*
X108350558Y-97281597D01*
G75*
G02*
X107147797Y-97069518I-495341J707420D01*
G01*
X107147797Y-97069518D01*
G75*
G02*
X107359876Y-95866757I707420J495341D01*
G01*
G37*
G04 #@! TD.AperFunction*
D12*
X111392747Y-97197939D03*
X109935863Y-95117293D03*
D16*
X73285000Y-153345000D03*
X64645000Y-153345000D03*
X64645000Y-149165000D03*
X73285000Y-149165000D03*
D17*
X93980000Y-113030000D03*
X63500000Y-152400000D03*
X78740000Y-69850000D03*
X90170000Y-135890000D03*
X92710000Y-135799598D03*
X86360000Y-140970000D03*
X87940170Y-138119830D03*
X63500000Y-82550000D03*
X68580000Y-92710000D03*
X82550000Y-69215000D03*
X85767400Y-68580000D03*
X62865000Y-149225000D03*
X65405000Y-147320000D03*
X85090000Y-144780000D03*
X69215000Y-59690000D03*
X66675000Y-57150000D03*
X74930000Y-68580000D03*
X70485000Y-102870000D03*
X73660000Y-102235000D03*
X78740000Y-101600000D03*
X80645000Y-100330000D03*
X75093769Y-96683769D03*
X104140000Y-86995000D03*
X105410000Y-92710000D03*
X103896810Y-93332202D03*
X104030125Y-90799218D03*
X73025000Y-144780000D03*
X66675000Y-145415000D03*
X102870000Y-95250000D03*
X63500000Y-71607211D03*
X63392412Y-64598466D03*
X99060000Y-122512600D03*
X99060000Y-124460000D03*
X78740000Y-100330000D03*
X71120000Y-99060000D03*
X67310000Y-91440000D03*
X67310000Y-82550000D03*
X97155000Y-96520000D03*
X55654200Y-57375800D03*
X58420000Y-53932600D03*
X86360000Y-145950001D03*
X78740000Y-152400000D03*
X35672334Y-121807666D03*
X35560000Y-124460000D03*
X63500000Y-151130000D03*
X61595000Y-151765000D03*
X85090000Y-147320000D03*
X93980000Y-137795000D03*
X93345000Y-140335000D03*
X103505000Y-135890000D03*
X101543666Y-132023666D03*
X71120000Y-68580000D03*
X66040000Y-68580000D03*
X43815000Y-69215000D03*
X31115000Y-99695000D03*
X31115000Y-116840000D03*
X104775000Y-133985000D03*
X45720000Y-71120000D03*
X42545000Y-72390000D03*
X41317400Y-70523450D03*
X24130000Y-96520000D03*
X52070000Y-143510000D03*
X64770000Y-144145000D03*
X71724705Y-144072305D03*
X74930000Y-144187400D03*
X86995000Y-142240000D03*
X95250000Y-141763980D03*
X71120000Y-71120000D03*
X71120000Y-67310000D03*
X78740000Y-66040000D03*
X85725000Y-64770000D03*
X87630000Y-67310000D03*
X78740000Y-67310000D03*
X87649045Y-143529045D03*
X69215000Y-146007600D03*
X76542600Y-64041005D03*
X76200000Y-62572600D03*
X85090000Y-66040000D03*
X69892400Y-153670000D03*
X68537600Y-152992600D03*
X80010000Y-66040000D03*
X83820000Y-62230000D03*
X80010000Y-64770000D03*
X104140000Y-82550000D03*
X75565000Y-108585000D03*
X71120000Y-69850000D03*
X72390000Y-106045000D03*
X81280000Y-67987400D03*
X81280000Y-69850000D03*
X80010000Y-108585000D03*
X75565000Y-114300000D03*
X83820000Y-107950000D03*
X85090000Y-120650000D03*
X46355000Y-64770000D03*
X43180000Y-67310000D03*
X59427757Y-52069999D03*
X77860926Y-52355310D03*
X50800000Y-105410000D03*
X48260000Y-102870000D03*
X39370000Y-67310000D03*
X57150000Y-58420000D03*
X61595000Y-55287400D03*
X70485000Y-52070000D03*
X80010000Y-69850000D03*
X69850000Y-99060000D03*
X68580000Y-97790000D03*
X64770000Y-83820000D03*
X69215000Y-52070000D03*
X58420000Y-99737400D03*
X54610000Y-67987400D03*
X39370000Y-68580000D03*
X36830000Y-71120000D03*
X30480000Y-74930000D03*
X46990000Y-61595000D03*
X27940000Y-106045000D03*
X33655000Y-106045000D03*
X33655000Y-119380000D03*
X37465000Y-130175000D03*
X57150000Y-54610000D03*
X53340000Y-57150000D03*
X29210000Y-80010000D03*
X28575000Y-111125000D03*
X36830000Y-110490000D03*
X37465000Y-120650000D03*
X53340000Y-59097400D03*
X57150000Y-59690000D03*
X105410000Y-83820000D03*
X104140000Y-101600000D03*
X104140000Y-105410000D03*
X93980000Y-120650000D03*
X79375000Y-54017400D03*
X61571912Y-56661894D03*
X104775000Y-88900000D03*
X40640000Y-69850000D03*
X40640000Y-125730000D03*
X43180000Y-128270000D03*
X53975000Y-135890000D03*
X62230000Y-57785000D03*
X85090000Y-97790000D03*
X76835000Y-52662600D03*
X59690000Y-58581495D03*
X64770000Y-52070000D03*
X67310000Y-52070000D03*
X67310000Y-50715199D03*
X100330000Y-67310000D03*
X99060000Y-69850000D03*
X99060000Y-71204801D03*
X102870000Y-94297597D03*
X101600000Y-98425000D03*
X95250000Y-109855000D03*
X95250000Y-123190000D03*
X71120000Y-116840000D03*
X81280000Y-121285000D03*
X87630000Y-125095000D03*
X60367400Y-57192400D03*
X67310000Y-67310000D03*
X64770000Y-67310000D03*
X62569669Y-68303091D03*
X41275000Y-62865000D03*
X50800000Y-53340000D03*
X48895000Y-55245000D03*
X45720000Y-67310000D03*
X62865000Y-60960000D03*
X78256949Y-148741949D03*
X67310000Y-146685000D03*
X77470000Y-151722600D03*
X71120000Y-151087600D03*
X68580000Y-93980000D03*
X66040000Y-86360000D03*
X102235000Y-128905000D03*
X100866266Y-128905000D03*
M02*
