G04 #@! TF.GenerationSoftware,KiCad,Pcbnew,(5.1.10)-1*
G04 #@! TF.CreationDate,2021-10-13T01:49:27-04:00*
G04 #@! TF.ProjectId,ScryptKeeper,53637279-7074-44b6-9565-7065722e6b69,rev?*
G04 #@! TF.SameCoordinates,Original*
G04 #@! TF.FileFunction,Legend,Bot*
G04 #@! TF.FilePolarity,Positive*
%FSLAX46Y46*%
G04 Gerber Fmt 4.6, Leading zero omitted, Abs format (unit mm)*
G04 Created by KiCad (PCBNEW (5.1.10)-1) date 2021-10-13 01:49:27*
%MOMM*%
%LPD*%
G01*
G04 APERTURE LIST*
%ADD10C,0.025000*%
%ADD11C,0.045000*%
%ADD12C,0.120000*%
%ADD13C,0.150000*%
%ADD14C,0.203200*%
%ADD15C,0.101600*%
G04 APERTURE END LIST*
D10*
X80334285Y-106906190D02*
X80334285Y-106406190D01*
X80120000Y-106906190D02*
X80120000Y-106644285D01*
X80143809Y-106596666D01*
X80191428Y-106572857D01*
X80262857Y-106572857D01*
X80310476Y-106596666D01*
X80334285Y-106620476D01*
X79953333Y-106572857D02*
X79762857Y-106572857D01*
X79881904Y-106406190D02*
X79881904Y-106834761D01*
X79858095Y-106882380D01*
X79810476Y-106906190D01*
X79762857Y-106906190D01*
X79667619Y-106572857D02*
X79477142Y-106572857D01*
X79596190Y-106406190D02*
X79596190Y-106834761D01*
X79572380Y-106882380D01*
X79524761Y-106906190D01*
X79477142Y-106906190D01*
X79310476Y-106572857D02*
X79310476Y-107072857D01*
X79310476Y-106596666D02*
X79262857Y-106572857D01*
X79167619Y-106572857D01*
X79120000Y-106596666D01*
X79096190Y-106620476D01*
X79072380Y-106668095D01*
X79072380Y-106810952D01*
X79096190Y-106858571D01*
X79120000Y-106882380D01*
X79167619Y-106906190D01*
X79262857Y-106906190D01*
X79310476Y-106882380D01*
X78881904Y-106882380D02*
X78834285Y-106906190D01*
X78739047Y-106906190D01*
X78691428Y-106882380D01*
X78667619Y-106834761D01*
X78667619Y-106810952D01*
X78691428Y-106763333D01*
X78739047Y-106739523D01*
X78810476Y-106739523D01*
X78858095Y-106715714D01*
X78881904Y-106668095D01*
X78881904Y-106644285D01*
X78858095Y-106596666D01*
X78810476Y-106572857D01*
X78739047Y-106572857D01*
X78691428Y-106596666D01*
X78453333Y-106858571D02*
X78429523Y-106882380D01*
X78453333Y-106906190D01*
X78477142Y-106882380D01*
X78453333Y-106858571D01*
X78453333Y-106906190D01*
X78453333Y-106596666D02*
X78429523Y-106620476D01*
X78453333Y-106644285D01*
X78477142Y-106620476D01*
X78453333Y-106596666D01*
X78453333Y-106644285D01*
X77858095Y-106382380D02*
X78286666Y-107025238D01*
X77334285Y-106382380D02*
X77762857Y-107025238D01*
X76953333Y-106572857D02*
X76953333Y-106977619D01*
X76977142Y-107025238D01*
X77000952Y-107049047D01*
X77048571Y-107072857D01*
X77120000Y-107072857D01*
X77167619Y-107049047D01*
X76953333Y-106882380D02*
X77000952Y-106906190D01*
X77096190Y-106906190D01*
X77143809Y-106882380D01*
X77167619Y-106858571D01*
X77191428Y-106810952D01*
X77191428Y-106668095D01*
X77167619Y-106620476D01*
X77143809Y-106596666D01*
X77096190Y-106572857D01*
X77000952Y-106572857D01*
X76953333Y-106596666D01*
X76715238Y-106906190D02*
X76715238Y-106572857D01*
X76715238Y-106406190D02*
X76739047Y-106430000D01*
X76715238Y-106453809D01*
X76691428Y-106430000D01*
X76715238Y-106406190D01*
X76715238Y-106453809D01*
X76548571Y-106572857D02*
X76358095Y-106572857D01*
X76477142Y-106406190D02*
X76477142Y-106834761D01*
X76453333Y-106882380D01*
X76405714Y-106906190D01*
X76358095Y-106906190D01*
X76191428Y-106906190D02*
X76191428Y-106406190D01*
X75977142Y-106906190D02*
X75977142Y-106644285D01*
X76000952Y-106596666D01*
X76048571Y-106572857D01*
X76120000Y-106572857D01*
X76167619Y-106596666D01*
X76191428Y-106620476D01*
X75524761Y-106572857D02*
X75524761Y-106906190D01*
X75739047Y-106572857D02*
X75739047Y-106834761D01*
X75715238Y-106882380D01*
X75667619Y-106906190D01*
X75596190Y-106906190D01*
X75548571Y-106882380D01*
X75524761Y-106858571D01*
X75286666Y-106906190D02*
X75286666Y-106406190D01*
X75286666Y-106596666D02*
X75239047Y-106572857D01*
X75143809Y-106572857D01*
X75096190Y-106596666D01*
X75072380Y-106620476D01*
X75048571Y-106668095D01*
X75048571Y-106810952D01*
X75072380Y-106858571D01*
X75096190Y-106882380D01*
X75143809Y-106906190D01*
X75239047Y-106906190D01*
X75286666Y-106882380D01*
X74834285Y-106858571D02*
X74810476Y-106882380D01*
X74834285Y-106906190D01*
X74858095Y-106882380D01*
X74834285Y-106858571D01*
X74834285Y-106906190D01*
X74381904Y-106882380D02*
X74429523Y-106906190D01*
X74524761Y-106906190D01*
X74572380Y-106882380D01*
X74596190Y-106858571D01*
X74620000Y-106810952D01*
X74620000Y-106668095D01*
X74596190Y-106620476D01*
X74572380Y-106596666D01*
X74524761Y-106572857D01*
X74429523Y-106572857D01*
X74381904Y-106596666D01*
X74096190Y-106906190D02*
X74143809Y-106882380D01*
X74167619Y-106858571D01*
X74191428Y-106810952D01*
X74191428Y-106668095D01*
X74167619Y-106620476D01*
X74143809Y-106596666D01*
X74096190Y-106572857D01*
X74024761Y-106572857D01*
X73977142Y-106596666D01*
X73953333Y-106620476D01*
X73929523Y-106668095D01*
X73929523Y-106810952D01*
X73953333Y-106858571D01*
X73977142Y-106882380D01*
X74024761Y-106906190D01*
X74096190Y-106906190D01*
X73715238Y-106906190D02*
X73715238Y-106572857D01*
X73715238Y-106620476D02*
X73691428Y-106596666D01*
X73643809Y-106572857D01*
X73572380Y-106572857D01*
X73524761Y-106596666D01*
X73500952Y-106644285D01*
X73500952Y-106906190D01*
X73500952Y-106644285D02*
X73477142Y-106596666D01*
X73429523Y-106572857D01*
X73358095Y-106572857D01*
X73310476Y-106596666D01*
X73286666Y-106644285D01*
X73286666Y-106906190D01*
X72691428Y-106382380D02*
X73120000Y-107025238D01*
X72548571Y-106882380D02*
X72500952Y-106906190D01*
X72405714Y-106906190D01*
X72358095Y-106882380D01*
X72334285Y-106834761D01*
X72334285Y-106810952D01*
X72358095Y-106763333D01*
X72405714Y-106739523D01*
X72477142Y-106739523D01*
X72524761Y-106715714D01*
X72548571Y-106668095D01*
X72548571Y-106644285D01*
X72524761Y-106596666D01*
X72477142Y-106572857D01*
X72405714Y-106572857D01*
X72358095Y-106596666D01*
X72167619Y-106572857D02*
X72048571Y-106906190D01*
X71929523Y-106572857D02*
X72048571Y-106906190D01*
X72096190Y-107025238D01*
X72120000Y-107049047D01*
X72167619Y-107072857D01*
X71739047Y-106572857D02*
X71739047Y-106906190D01*
X71739047Y-106620476D02*
X71715238Y-106596666D01*
X71667619Y-106572857D01*
X71596190Y-106572857D01*
X71548571Y-106596666D01*
X71524761Y-106644285D01*
X71524761Y-106906190D01*
X71286666Y-106715714D02*
X70905714Y-106715714D01*
X70453333Y-106906190D02*
X70453333Y-106644285D01*
X70477142Y-106596666D01*
X70524761Y-106572857D01*
X70620000Y-106572857D01*
X70667619Y-106596666D01*
X70453333Y-106882380D02*
X70500952Y-106906190D01*
X70620000Y-106906190D01*
X70667619Y-106882380D01*
X70691428Y-106834761D01*
X70691428Y-106787142D01*
X70667619Y-106739523D01*
X70620000Y-106715714D01*
X70500952Y-106715714D01*
X70453333Y-106691904D01*
X70000952Y-106882380D02*
X70048571Y-106906190D01*
X70143809Y-106906190D01*
X70191428Y-106882380D01*
X70215238Y-106858571D01*
X70239047Y-106810952D01*
X70239047Y-106668095D01*
X70215238Y-106620476D01*
X70191428Y-106596666D01*
X70143809Y-106572857D01*
X70048571Y-106572857D01*
X70000952Y-106596666D01*
X69786666Y-106906190D02*
X69786666Y-106406190D01*
X69739047Y-106715714D02*
X69596190Y-106906190D01*
X69596190Y-106572857D02*
X69786666Y-106763333D01*
X69381904Y-106715714D02*
X69000952Y-106715714D01*
X68810476Y-106572857D02*
X68548571Y-106572857D01*
X68810476Y-106906190D01*
X68548571Y-106906190D01*
X68143809Y-106906190D02*
X68143809Y-106644285D01*
X68167619Y-106596666D01*
X68215238Y-106572857D01*
X68310476Y-106572857D01*
X68358095Y-106596666D01*
X68143809Y-106882380D02*
X68191428Y-106906190D01*
X68310476Y-106906190D01*
X68358095Y-106882380D01*
X68381904Y-106834761D01*
X68381904Y-106787142D01*
X68358095Y-106739523D01*
X68310476Y-106715714D01*
X68191428Y-106715714D01*
X68143809Y-106691904D01*
X67691428Y-106882380D02*
X67739047Y-106906190D01*
X67834285Y-106906190D01*
X67881904Y-106882380D01*
X67905714Y-106858571D01*
X67929523Y-106810952D01*
X67929523Y-106668095D01*
X67905714Y-106620476D01*
X67881904Y-106596666D01*
X67834285Y-106572857D01*
X67739047Y-106572857D01*
X67691428Y-106596666D01*
X67477142Y-106906190D02*
X67477142Y-106406190D01*
X67429523Y-106715714D02*
X67286666Y-106906190D01*
X67286666Y-106572857D02*
X67477142Y-106763333D01*
X66715238Y-106382380D02*
X67143809Y-107025238D01*
X66572380Y-106882380D02*
X66500952Y-106906190D01*
X66381904Y-106906190D01*
X66334285Y-106882380D01*
X66310476Y-106858571D01*
X66286666Y-106810952D01*
X66286666Y-106763333D01*
X66310476Y-106715714D01*
X66334285Y-106691904D01*
X66381904Y-106668095D01*
X66477142Y-106644285D01*
X66524761Y-106620476D01*
X66548571Y-106596666D01*
X66572380Y-106549047D01*
X66572380Y-106501428D01*
X66548571Y-106453809D01*
X66524761Y-106430000D01*
X66477142Y-106406190D01*
X66358095Y-106406190D01*
X66286666Y-106430000D01*
X65858095Y-106882380D02*
X65905714Y-106906190D01*
X66000952Y-106906190D01*
X66048571Y-106882380D01*
X66072380Y-106858571D01*
X66096190Y-106810952D01*
X66096190Y-106668095D01*
X66072380Y-106620476D01*
X66048571Y-106596666D01*
X66000952Y-106572857D01*
X65905714Y-106572857D01*
X65858095Y-106596666D01*
X65643809Y-106906190D02*
X65643809Y-106572857D01*
X65643809Y-106668095D02*
X65620000Y-106620476D01*
X65596190Y-106596666D01*
X65548571Y-106572857D01*
X65500952Y-106572857D01*
X65381904Y-106572857D02*
X65262857Y-106906190D01*
X65143809Y-106572857D02*
X65262857Y-106906190D01*
X65310476Y-107025238D01*
X65334285Y-107049047D01*
X65381904Y-107072857D01*
X64953333Y-106572857D02*
X64953333Y-107072857D01*
X64953333Y-106596666D02*
X64905714Y-106572857D01*
X64810476Y-106572857D01*
X64762857Y-106596666D01*
X64739047Y-106620476D01*
X64715238Y-106668095D01*
X64715238Y-106810952D01*
X64739047Y-106858571D01*
X64762857Y-106882380D01*
X64810476Y-106906190D01*
X64905714Y-106906190D01*
X64953333Y-106882380D01*
X64572380Y-106572857D02*
X64381904Y-106572857D01*
X64500952Y-106406190D02*
X64500952Y-106834761D01*
X64477142Y-106882380D01*
X64429523Y-106906190D01*
X64381904Y-106906190D01*
X64215238Y-106906190D02*
X64215238Y-106406190D01*
X63929523Y-106906190D02*
X64143809Y-106620476D01*
X63929523Y-106406190D02*
X64215238Y-106691904D01*
X63524761Y-106882380D02*
X63572380Y-106906190D01*
X63667619Y-106906190D01*
X63715238Y-106882380D01*
X63739047Y-106834761D01*
X63739047Y-106644285D01*
X63715238Y-106596666D01*
X63667619Y-106572857D01*
X63572380Y-106572857D01*
X63524761Y-106596666D01*
X63500952Y-106644285D01*
X63500952Y-106691904D01*
X63739047Y-106739523D01*
X63096190Y-106882380D02*
X63143809Y-106906190D01*
X63239047Y-106906190D01*
X63286666Y-106882380D01*
X63310476Y-106834761D01*
X63310476Y-106644285D01*
X63286666Y-106596666D01*
X63239047Y-106572857D01*
X63143809Y-106572857D01*
X63096190Y-106596666D01*
X63072380Y-106644285D01*
X63072380Y-106691904D01*
X63310476Y-106739523D01*
X62858095Y-106572857D02*
X62858095Y-107072857D01*
X62858095Y-106596666D02*
X62810476Y-106572857D01*
X62715238Y-106572857D01*
X62667619Y-106596666D01*
X62643809Y-106620476D01*
X62620000Y-106668095D01*
X62620000Y-106810952D01*
X62643809Y-106858571D01*
X62667619Y-106882380D01*
X62715238Y-106906190D01*
X62810476Y-106906190D01*
X62858095Y-106882380D01*
X62215238Y-106882380D02*
X62262857Y-106906190D01*
X62358095Y-106906190D01*
X62405714Y-106882380D01*
X62429523Y-106834761D01*
X62429523Y-106644285D01*
X62405714Y-106596666D01*
X62358095Y-106572857D01*
X62262857Y-106572857D01*
X62215238Y-106596666D01*
X62191428Y-106644285D01*
X62191428Y-106691904D01*
X62429523Y-106739523D01*
X61977142Y-106906190D02*
X61977142Y-106572857D01*
X61977142Y-106668095D02*
X61953333Y-106620476D01*
X61929523Y-106596666D01*
X61881904Y-106572857D01*
X61834285Y-106572857D01*
D11*
X36550000Y-88226428D02*
X36550000Y-87626428D01*
X36550000Y-88197857D02*
X36607142Y-88226428D01*
X36721428Y-88226428D01*
X36778571Y-88197857D01*
X36807142Y-88169285D01*
X36835714Y-88112142D01*
X36835714Y-87940714D01*
X36807142Y-87883571D01*
X36778571Y-87855000D01*
X36721428Y-87826428D01*
X36607142Y-87826428D01*
X36550000Y-87855000D01*
X36035714Y-88197857D02*
X36092857Y-88226428D01*
X36207142Y-88226428D01*
X36264285Y-88197857D01*
X36292857Y-88140714D01*
X36292857Y-87912142D01*
X36264285Y-87855000D01*
X36207142Y-87826428D01*
X36092857Y-87826428D01*
X36035714Y-87855000D01*
X36007142Y-87912142D01*
X36007142Y-87969285D01*
X36292857Y-88026428D01*
X35778571Y-88197857D02*
X35721428Y-88226428D01*
X35607142Y-88226428D01*
X35550000Y-88197857D01*
X35521428Y-88140714D01*
X35521428Y-88112142D01*
X35550000Y-88055000D01*
X35607142Y-88026428D01*
X35692857Y-88026428D01*
X35750000Y-87997857D01*
X35778571Y-87940714D01*
X35778571Y-87912142D01*
X35750000Y-87855000D01*
X35692857Y-87826428D01*
X35607142Y-87826428D01*
X35550000Y-87855000D01*
X35264285Y-88226428D02*
X35264285Y-87826428D01*
X35264285Y-87626428D02*
X35292857Y-87655000D01*
X35264285Y-87683571D01*
X35235714Y-87655000D01*
X35264285Y-87626428D01*
X35264285Y-87683571D01*
X34721428Y-87826428D02*
X34721428Y-88312142D01*
X34750000Y-88369285D01*
X34778571Y-88397857D01*
X34835714Y-88426428D01*
X34921428Y-88426428D01*
X34978571Y-88397857D01*
X34721428Y-88197857D02*
X34778571Y-88226428D01*
X34892857Y-88226428D01*
X34950000Y-88197857D01*
X34978571Y-88169285D01*
X35007142Y-88112142D01*
X35007142Y-87940714D01*
X34978571Y-87883571D01*
X34950000Y-87855000D01*
X34892857Y-87826428D01*
X34778571Y-87826428D01*
X34721428Y-87855000D01*
X34435714Y-87826428D02*
X34435714Y-88226428D01*
X34435714Y-87883571D02*
X34407142Y-87855000D01*
X34350000Y-87826428D01*
X34264285Y-87826428D01*
X34207142Y-87855000D01*
X34178571Y-87912142D01*
X34178571Y-88226428D01*
X33892857Y-88169285D02*
X33864285Y-88197857D01*
X33892857Y-88226428D01*
X33921428Y-88197857D01*
X33892857Y-88169285D01*
X33892857Y-88226428D01*
X33892857Y-87855000D02*
X33864285Y-87883571D01*
X33892857Y-87912142D01*
X33921428Y-87883571D01*
X33892857Y-87855000D01*
X33892857Y-87912142D01*
X32778571Y-87940714D02*
X32807142Y-87912142D01*
X32864285Y-87883571D01*
X32921428Y-87883571D01*
X32978571Y-87912142D01*
X33007142Y-87940714D01*
X33035714Y-87997857D01*
X33035714Y-88055000D01*
X33007142Y-88112142D01*
X32978571Y-88140714D01*
X32921428Y-88169285D01*
X32864285Y-88169285D01*
X32807142Y-88140714D01*
X32778571Y-88112142D01*
X32778571Y-87883571D02*
X32778571Y-88112142D01*
X32750000Y-88140714D01*
X32721428Y-88140714D01*
X32664285Y-88112142D01*
X32635714Y-88055000D01*
X32635714Y-87912142D01*
X32692857Y-87826428D01*
X32778571Y-87769285D01*
X32892857Y-87740714D01*
X33007142Y-87769285D01*
X33092857Y-87826428D01*
X33150000Y-87912142D01*
X33178571Y-88026428D01*
X33150000Y-88140714D01*
X33092857Y-88226428D01*
X33007142Y-88283571D01*
X32892857Y-88312142D01*
X32778571Y-88283571D01*
X32692857Y-88226428D01*
X32407142Y-88197857D02*
X32350000Y-88226428D01*
X32235714Y-88226428D01*
X32178571Y-88197857D01*
X32150000Y-88140714D01*
X32150000Y-88112142D01*
X32178571Y-88055000D01*
X32235714Y-88026428D01*
X32321428Y-88026428D01*
X32378571Y-87997857D01*
X32407142Y-87940714D01*
X32407142Y-87912142D01*
X32378571Y-87855000D01*
X32321428Y-87826428D01*
X32235714Y-87826428D01*
X32178571Y-87855000D01*
X31950000Y-87826428D02*
X31807142Y-88226428D01*
X31664285Y-87826428D02*
X31807142Y-88226428D01*
X31864285Y-88369285D01*
X31892857Y-88397857D01*
X31950000Y-88426428D01*
X31435714Y-87826428D02*
X31435714Y-88226428D01*
X31435714Y-87883571D02*
X31407142Y-87855000D01*
X31350000Y-87826428D01*
X31264285Y-87826428D01*
X31207142Y-87855000D01*
X31178571Y-87912142D01*
X31178571Y-88226428D01*
X31035714Y-88283571D02*
X30578571Y-88283571D01*
X30178571Y-88226428D02*
X30178571Y-87912142D01*
X30207142Y-87855000D01*
X30264285Y-87826428D01*
X30378571Y-87826428D01*
X30435714Y-87855000D01*
X30178571Y-88197857D02*
X30235714Y-88226428D01*
X30378571Y-88226428D01*
X30435714Y-88197857D01*
X30464285Y-88140714D01*
X30464285Y-88083571D01*
X30435714Y-88026428D01*
X30378571Y-87997857D01*
X30235714Y-87997857D01*
X30178571Y-87969285D01*
X29635714Y-88197857D02*
X29692857Y-88226428D01*
X29807142Y-88226428D01*
X29864285Y-88197857D01*
X29892857Y-88169285D01*
X29921428Y-88112142D01*
X29921428Y-87940714D01*
X29892857Y-87883571D01*
X29864285Y-87855000D01*
X29807142Y-87826428D01*
X29692857Y-87826428D01*
X29635714Y-87855000D01*
X29378571Y-88226428D02*
X29378571Y-87626428D01*
X29321428Y-87997857D02*
X29150000Y-88226428D01*
X29150000Y-87826428D02*
X29378571Y-88055000D01*
X29035714Y-88283571D02*
X28578571Y-88283571D01*
X28492857Y-87826428D02*
X28178571Y-87826428D01*
X28492857Y-88226428D01*
X28178571Y-88226428D01*
X27692857Y-88226428D02*
X27692857Y-87912142D01*
X27721428Y-87855000D01*
X27778571Y-87826428D01*
X27892857Y-87826428D01*
X27950000Y-87855000D01*
X27692857Y-88197857D02*
X27750000Y-88226428D01*
X27892857Y-88226428D01*
X27950000Y-88197857D01*
X27978571Y-88140714D01*
X27978571Y-88083571D01*
X27950000Y-88026428D01*
X27892857Y-87997857D01*
X27750000Y-87997857D01*
X27692857Y-87969285D01*
X27150000Y-88197857D02*
X27207142Y-88226428D01*
X27321428Y-88226428D01*
X27378571Y-88197857D01*
X27407142Y-88169285D01*
X27435714Y-88112142D01*
X27435714Y-87940714D01*
X27407142Y-87883571D01*
X27378571Y-87855000D01*
X27321428Y-87826428D01*
X27207142Y-87826428D01*
X27150000Y-87855000D01*
X26892857Y-88226428D02*
X26892857Y-87626428D01*
X26835714Y-87997857D02*
X26664285Y-88226428D01*
X26664285Y-87826428D02*
X26892857Y-88055000D01*
X37364285Y-89171428D02*
X37364285Y-88857142D01*
X37392857Y-88800000D01*
X37450000Y-88771428D01*
X37564285Y-88771428D01*
X37621428Y-88800000D01*
X37364285Y-89142857D02*
X37421428Y-89171428D01*
X37564285Y-89171428D01*
X37621428Y-89142857D01*
X37650000Y-89085714D01*
X37650000Y-89028571D01*
X37621428Y-88971428D01*
X37564285Y-88942857D01*
X37421428Y-88942857D01*
X37364285Y-88914285D01*
X37078571Y-89171428D02*
X37078571Y-88771428D01*
X37078571Y-88885714D02*
X37050000Y-88828571D01*
X37021428Y-88800000D01*
X36964285Y-88771428D01*
X36907142Y-88771428D01*
X36792857Y-88771428D02*
X36564285Y-88771428D01*
X36707142Y-88571428D02*
X36707142Y-89085714D01*
X36678571Y-89142857D01*
X36621428Y-89171428D01*
X36564285Y-89171428D01*
X35650000Y-89171428D02*
X35650000Y-88571428D01*
X35650000Y-89142857D02*
X35707142Y-89171428D01*
X35821428Y-89171428D01*
X35878571Y-89142857D01*
X35907142Y-89114285D01*
X35935714Y-89057142D01*
X35935714Y-88885714D01*
X35907142Y-88828571D01*
X35878571Y-88800000D01*
X35821428Y-88771428D01*
X35707142Y-88771428D01*
X35650000Y-88800000D01*
X35364285Y-89171428D02*
X35364285Y-88771428D01*
X35364285Y-88571428D02*
X35392857Y-88600000D01*
X35364285Y-88628571D01*
X35335714Y-88600000D01*
X35364285Y-88571428D01*
X35364285Y-88628571D01*
X35078571Y-89171428D02*
X35078571Y-88771428D01*
X35078571Y-88885714D02*
X35050000Y-88828571D01*
X35021428Y-88800000D01*
X34964285Y-88771428D01*
X34907142Y-88771428D01*
X34478571Y-89142857D02*
X34535714Y-89171428D01*
X34650000Y-89171428D01*
X34707142Y-89142857D01*
X34735714Y-89085714D01*
X34735714Y-88857142D01*
X34707142Y-88800000D01*
X34650000Y-88771428D01*
X34535714Y-88771428D01*
X34478571Y-88800000D01*
X34450000Y-88857142D01*
X34450000Y-88914285D01*
X34735714Y-88971428D01*
X33935714Y-89142857D02*
X33992857Y-89171428D01*
X34107142Y-89171428D01*
X34164285Y-89142857D01*
X34192857Y-89114285D01*
X34221428Y-89057142D01*
X34221428Y-88885714D01*
X34192857Y-88828571D01*
X34164285Y-88800000D01*
X34107142Y-88771428D01*
X33992857Y-88771428D01*
X33935714Y-88800000D01*
X33764285Y-88771428D02*
X33535714Y-88771428D01*
X33678571Y-88571428D02*
X33678571Y-89085714D01*
X33650000Y-89142857D01*
X33592857Y-89171428D01*
X33535714Y-89171428D01*
X33335714Y-89171428D02*
X33335714Y-88771428D01*
X33335714Y-88571428D02*
X33364285Y-88600000D01*
X33335714Y-88628571D01*
X33307142Y-88600000D01*
X33335714Y-88571428D01*
X33335714Y-88628571D01*
X32964285Y-89171428D02*
X33021428Y-89142857D01*
X33050000Y-89114285D01*
X33078571Y-89057142D01*
X33078571Y-88885714D01*
X33050000Y-88828571D01*
X33021428Y-88800000D01*
X32964285Y-88771428D01*
X32878571Y-88771428D01*
X32821428Y-88800000D01*
X32792857Y-88828571D01*
X32764285Y-88885714D01*
X32764285Y-89057142D01*
X32792857Y-89114285D01*
X32821428Y-89142857D01*
X32878571Y-89171428D01*
X32964285Y-89171428D01*
X32507142Y-88771428D02*
X32507142Y-89171428D01*
X32507142Y-88828571D02*
X32478571Y-88800000D01*
X32421428Y-88771428D01*
X32335714Y-88771428D01*
X32278571Y-88800000D01*
X32250000Y-88857142D01*
X32250000Y-89171428D01*
X31964285Y-89114285D02*
X31935714Y-89142857D01*
X31964285Y-89171428D01*
X31992857Y-89142857D01*
X31964285Y-89114285D01*
X31964285Y-89171428D01*
X31964285Y-88800000D02*
X31935714Y-88828571D01*
X31964285Y-88857142D01*
X31992857Y-88828571D01*
X31964285Y-88800000D01*
X31964285Y-88857142D01*
X30850000Y-88885714D02*
X30878571Y-88857142D01*
X30935714Y-88828571D01*
X30992857Y-88828571D01*
X31050000Y-88857142D01*
X31078571Y-88885714D01*
X31107142Y-88942857D01*
X31107142Y-89000000D01*
X31078571Y-89057142D01*
X31050000Y-89085714D01*
X30992857Y-89114285D01*
X30935714Y-89114285D01*
X30878571Y-89085714D01*
X30850000Y-89057142D01*
X30850000Y-88828571D02*
X30850000Y-89057142D01*
X30821428Y-89085714D01*
X30792857Y-89085714D01*
X30735714Y-89057142D01*
X30707142Y-89000000D01*
X30707142Y-88857142D01*
X30764285Y-88771428D01*
X30850000Y-88714285D01*
X30964285Y-88685714D01*
X31078571Y-88714285D01*
X31164285Y-88771428D01*
X31221428Y-88857142D01*
X31250000Y-88971428D01*
X31221428Y-89085714D01*
X31164285Y-89171428D01*
X31078571Y-89228571D01*
X30964285Y-89257142D01*
X30850000Y-89228571D01*
X30764285Y-89171428D01*
X30450000Y-89171428D02*
X30450000Y-88771428D01*
X30450000Y-88828571D02*
X30421428Y-88800000D01*
X30364285Y-88771428D01*
X30278571Y-88771428D01*
X30221428Y-88800000D01*
X30192857Y-88857142D01*
X30192857Y-89171428D01*
X30192857Y-88857142D02*
X30164285Y-88800000D01*
X30107142Y-88771428D01*
X30021428Y-88771428D01*
X29964285Y-88800000D01*
X29935714Y-88857142D01*
X29935714Y-89171428D01*
X29392857Y-89142857D02*
X29450000Y-89171428D01*
X29564285Y-89171428D01*
X29621428Y-89142857D01*
X29650000Y-89114285D01*
X29678571Y-89057142D01*
X29678571Y-88885714D01*
X29650000Y-88828571D01*
X29621428Y-88800000D01*
X29564285Y-88771428D01*
X29450000Y-88771428D01*
X29392857Y-88800000D01*
X29135714Y-89171428D02*
X29135714Y-88771428D01*
X29135714Y-88828571D02*
X29107142Y-88800000D01*
X29050000Y-88771428D01*
X28964285Y-88771428D01*
X28907142Y-88800000D01*
X28878571Y-88857142D01*
X28878571Y-89171428D01*
X28878571Y-88857142D02*
X28850000Y-88800000D01*
X28792857Y-88771428D01*
X28707142Y-88771428D01*
X28650000Y-88800000D01*
X28621428Y-88857142D01*
X28621428Y-89171428D01*
X28392857Y-88571428D02*
X28021428Y-88571428D01*
X28221428Y-88800000D01*
X28135714Y-88800000D01*
X28078571Y-88828571D01*
X28050000Y-88857142D01*
X28021428Y-88914285D01*
X28021428Y-89057142D01*
X28050000Y-89114285D01*
X28078571Y-89142857D01*
X28135714Y-89171428D01*
X28307142Y-89171428D01*
X28364285Y-89142857D01*
X28392857Y-89114285D01*
X27764285Y-88771428D02*
X27764285Y-89171428D01*
X27764285Y-88828571D02*
X27735714Y-88800000D01*
X27678571Y-88771428D01*
X27592857Y-88771428D01*
X27535714Y-88800000D01*
X27507142Y-88857142D01*
X27507142Y-89171428D01*
X26964285Y-89171428D02*
X26964285Y-88857142D01*
X26992857Y-88800000D01*
X27050000Y-88771428D01*
X27164285Y-88771428D01*
X27221428Y-88800000D01*
X26964285Y-89142857D02*
X27021428Y-89171428D01*
X27164285Y-89171428D01*
X27221428Y-89142857D01*
X27250000Y-89085714D01*
X27250000Y-89028571D01*
X27221428Y-88971428D01*
X27164285Y-88942857D01*
X27021428Y-88942857D01*
X26964285Y-88914285D01*
X26421428Y-89142857D02*
X26478571Y-89171428D01*
X26592857Y-89171428D01*
X26650000Y-89142857D01*
X26678571Y-89114285D01*
X26707142Y-89057142D01*
X26707142Y-88885714D01*
X26678571Y-88828571D01*
X26650000Y-88800000D01*
X26592857Y-88771428D01*
X26478571Y-88771428D01*
X26421428Y-88800000D01*
X26221428Y-88571428D02*
X25850000Y-88571428D01*
X26050000Y-88800000D01*
X25964285Y-88800000D01*
X25907142Y-88828571D01*
X25878571Y-88857142D01*
X25850000Y-88914285D01*
X25850000Y-89057142D01*
X25878571Y-89114285D01*
X25907142Y-89142857D01*
X25964285Y-89171428D01*
X26135714Y-89171428D01*
X26192857Y-89142857D01*
X26221428Y-89114285D01*
X38278571Y-90116428D02*
X38278571Y-89716428D01*
X38278571Y-89516428D02*
X38307142Y-89545000D01*
X38278571Y-89573571D01*
X38250000Y-89545000D01*
X38278571Y-89516428D01*
X38278571Y-89573571D01*
X37907142Y-90116428D02*
X37964285Y-90087857D01*
X37992857Y-90030714D01*
X37992857Y-89516428D01*
X37592857Y-90116428D02*
X37650000Y-90087857D01*
X37678571Y-90030714D01*
X37678571Y-89516428D01*
X37107142Y-89716428D02*
X37107142Y-90116428D01*
X37364285Y-89716428D02*
X37364285Y-90030714D01*
X37335714Y-90087857D01*
X37278571Y-90116428D01*
X37192857Y-90116428D01*
X37135714Y-90087857D01*
X37107142Y-90059285D01*
X36850000Y-90087857D02*
X36792857Y-90116428D01*
X36678571Y-90116428D01*
X36621428Y-90087857D01*
X36592857Y-90030714D01*
X36592857Y-90002142D01*
X36621428Y-89945000D01*
X36678571Y-89916428D01*
X36764285Y-89916428D01*
X36821428Y-89887857D01*
X36850000Y-89830714D01*
X36850000Y-89802142D01*
X36821428Y-89745000D01*
X36764285Y-89716428D01*
X36678571Y-89716428D01*
X36621428Y-89745000D01*
X36421428Y-89716428D02*
X36192857Y-89716428D01*
X36335714Y-89516428D02*
X36335714Y-90030714D01*
X36307142Y-90087857D01*
X36250000Y-90116428D01*
X36192857Y-90116428D01*
X35992857Y-90116428D02*
X35992857Y-89716428D01*
X35992857Y-89830714D02*
X35964285Y-89773571D01*
X35935714Y-89745000D01*
X35878571Y-89716428D01*
X35821428Y-89716428D01*
X35364285Y-90116428D02*
X35364285Y-89802142D01*
X35392857Y-89745000D01*
X35450000Y-89716428D01*
X35564285Y-89716428D01*
X35621428Y-89745000D01*
X35364285Y-90087857D02*
X35421428Y-90116428D01*
X35564285Y-90116428D01*
X35621428Y-90087857D01*
X35650000Y-90030714D01*
X35650000Y-89973571D01*
X35621428Y-89916428D01*
X35564285Y-89887857D01*
X35421428Y-89887857D01*
X35364285Y-89859285D01*
X35164285Y-89716428D02*
X34935714Y-89716428D01*
X35078571Y-89516428D02*
X35078571Y-90030714D01*
X35050000Y-90087857D01*
X34992857Y-90116428D01*
X34935714Y-90116428D01*
X34650000Y-90116428D02*
X34707142Y-90087857D01*
X34735714Y-90059285D01*
X34764285Y-90002142D01*
X34764285Y-89830714D01*
X34735714Y-89773571D01*
X34707142Y-89745000D01*
X34650000Y-89716428D01*
X34564285Y-89716428D01*
X34507142Y-89745000D01*
X34478571Y-89773571D01*
X34450000Y-89830714D01*
X34450000Y-90002142D01*
X34478571Y-90059285D01*
X34507142Y-90087857D01*
X34564285Y-90116428D01*
X34650000Y-90116428D01*
X34192857Y-90116428D02*
X34192857Y-89716428D01*
X34192857Y-89830714D02*
X34164285Y-89773571D01*
X34135714Y-89745000D01*
X34078571Y-89716428D01*
X34021428Y-89716428D01*
X33821428Y-90059285D02*
X33792857Y-90087857D01*
X33821428Y-90116428D01*
X33850000Y-90087857D01*
X33821428Y-90059285D01*
X33821428Y-90116428D01*
X33821428Y-89745000D02*
X33792857Y-89773571D01*
X33821428Y-89802142D01*
X33850000Y-89773571D01*
X33821428Y-89745000D01*
X33821428Y-89802142D01*
X33078571Y-89716428D02*
X33078571Y-90230714D01*
X33107142Y-90287857D01*
X33164285Y-90316428D01*
X33192857Y-90316428D01*
X33078571Y-89516428D02*
X33107142Y-89545000D01*
X33078571Y-89573571D01*
X33050000Y-89545000D01*
X33078571Y-89516428D01*
X33078571Y-89573571D01*
X32535714Y-90116428D02*
X32535714Y-89802142D01*
X32564285Y-89745000D01*
X32621428Y-89716428D01*
X32735714Y-89716428D01*
X32792857Y-89745000D01*
X32535714Y-90087857D02*
X32592857Y-90116428D01*
X32735714Y-90116428D01*
X32792857Y-90087857D01*
X32821428Y-90030714D01*
X32821428Y-89973571D01*
X32792857Y-89916428D01*
X32735714Y-89887857D01*
X32592857Y-89887857D01*
X32535714Y-89859285D01*
X32250000Y-90116428D02*
X32250000Y-89716428D01*
X32250000Y-89773571D02*
X32221428Y-89745000D01*
X32164285Y-89716428D01*
X32078571Y-89716428D01*
X32021428Y-89745000D01*
X31992857Y-89802142D01*
X31992857Y-90116428D01*
X31992857Y-89802142D02*
X31964285Y-89745000D01*
X31907142Y-89716428D01*
X31821428Y-89716428D01*
X31764285Y-89745000D01*
X31735714Y-89802142D01*
X31735714Y-90116428D01*
X31221428Y-90087857D02*
X31278571Y-90116428D01*
X31392857Y-90116428D01*
X31450000Y-90087857D01*
X31478571Y-90030714D01*
X31478571Y-89802142D01*
X31450000Y-89745000D01*
X31392857Y-89716428D01*
X31278571Y-89716428D01*
X31221428Y-89745000D01*
X31192857Y-89802142D01*
X31192857Y-89859285D01*
X31478571Y-89916428D01*
X30964285Y-90087857D02*
X30907142Y-90116428D01*
X30792857Y-90116428D01*
X30735714Y-90087857D01*
X30707142Y-90030714D01*
X30707142Y-90002142D01*
X30735714Y-89945000D01*
X30792857Y-89916428D01*
X30878571Y-89916428D01*
X30935714Y-89887857D01*
X30964285Y-89830714D01*
X30964285Y-89802142D01*
X30935714Y-89745000D01*
X30878571Y-89716428D01*
X30792857Y-89716428D01*
X30735714Y-89745000D01*
X30192857Y-90116428D02*
X30192857Y-89516428D01*
X30192857Y-90087857D02*
X30250000Y-90116428D01*
X30364285Y-90116428D01*
X30421428Y-90087857D01*
X30450000Y-90059285D01*
X30478571Y-90002142D01*
X30478571Y-89830714D01*
X30450000Y-89773571D01*
X30421428Y-89745000D01*
X30364285Y-89716428D01*
X30250000Y-89716428D01*
X30192857Y-89745000D01*
X29678571Y-90087857D02*
X29735714Y-90116428D01*
X29850000Y-90116428D01*
X29907142Y-90087857D01*
X29935714Y-90030714D01*
X29935714Y-89802142D01*
X29907142Y-89745000D01*
X29850000Y-89716428D01*
X29735714Y-89716428D01*
X29678571Y-89745000D01*
X29650000Y-89802142D01*
X29650000Y-89859285D01*
X29935714Y-89916428D01*
X29135714Y-90116428D02*
X29135714Y-89802142D01*
X29164285Y-89745000D01*
X29221428Y-89716428D01*
X29335714Y-89716428D01*
X29392857Y-89745000D01*
X29135714Y-90087857D02*
X29192857Y-90116428D01*
X29335714Y-90116428D01*
X29392857Y-90087857D01*
X29421428Y-90030714D01*
X29421428Y-89973571D01*
X29392857Y-89916428D01*
X29335714Y-89887857D01*
X29192857Y-89887857D01*
X29135714Y-89859285D01*
X28850000Y-89716428D02*
X28850000Y-90116428D01*
X28850000Y-89773571D02*
X28821428Y-89745000D01*
X28764285Y-89716428D01*
X28678571Y-89716428D01*
X28621428Y-89745000D01*
X28592857Y-89802142D01*
X28592857Y-90116428D01*
X28307142Y-90116428D02*
X28307142Y-89516428D01*
X28050000Y-90116428D02*
X28050000Y-89802142D01*
X28078571Y-89745000D01*
X28135714Y-89716428D01*
X28221428Y-89716428D01*
X28278571Y-89745000D01*
X28307142Y-89773571D01*
X27507142Y-90116428D02*
X27507142Y-89802142D01*
X27535714Y-89745000D01*
X27592857Y-89716428D01*
X27707142Y-89716428D01*
X27764285Y-89745000D01*
X27507142Y-90087857D02*
X27564285Y-90116428D01*
X27707142Y-90116428D01*
X27764285Y-90087857D01*
X27792857Y-90030714D01*
X27792857Y-89973571D01*
X27764285Y-89916428D01*
X27707142Y-89887857D01*
X27564285Y-89887857D01*
X27507142Y-89859285D01*
X27250000Y-90087857D02*
X27192857Y-90116428D01*
X27078571Y-90116428D01*
X27021428Y-90087857D01*
X26992857Y-90030714D01*
X26992857Y-90002142D01*
X27021428Y-89945000D01*
X27078571Y-89916428D01*
X27164285Y-89916428D01*
X27221428Y-89887857D01*
X27250000Y-89830714D01*
X27250000Y-89802142D01*
X27221428Y-89745000D01*
X27164285Y-89716428D01*
X27078571Y-89716428D01*
X27021428Y-89745000D01*
X26735714Y-90116428D02*
X26735714Y-89516428D01*
X26678571Y-89887857D02*
X26507142Y-90116428D01*
X26507142Y-89716428D02*
X26735714Y-89945000D01*
X26250000Y-90116428D02*
X26250000Y-89716428D01*
X26250000Y-89516428D02*
X26278571Y-89545000D01*
X26250000Y-89573571D01*
X26221428Y-89545000D01*
X26250000Y-89516428D01*
X26250000Y-89573571D01*
X25964285Y-89716428D02*
X25964285Y-90116428D01*
X25964285Y-89773571D02*
X25935714Y-89745000D01*
X25878571Y-89716428D01*
X25792857Y-89716428D01*
X25735714Y-89745000D01*
X25707142Y-89802142D01*
X25707142Y-90116428D01*
X25450000Y-90087857D02*
X25392857Y-90116428D01*
X25278571Y-90116428D01*
X25221428Y-90087857D01*
X25192857Y-90030714D01*
X25192857Y-90002142D01*
X25221428Y-89945000D01*
X25278571Y-89916428D01*
X25364285Y-89916428D01*
X25421428Y-89887857D01*
X25450000Y-89830714D01*
X25450000Y-89802142D01*
X25421428Y-89745000D01*
X25364285Y-89716428D01*
X25278571Y-89716428D01*
X25221428Y-89745000D01*
D12*
X98020000Y-135040000D02*
X98020000Y-136740000D01*
X98020000Y-136740000D02*
X95470000Y-136740000D01*
X98020000Y-135040000D02*
X95470000Y-135040000D01*
D13*
X65150000Y-61625000D02*
X63725000Y-61625000D01*
X72400000Y-61850000D02*
X72075000Y-61850000D01*
X72400000Y-54600000D02*
X72075000Y-54600000D01*
X65150000Y-54600000D02*
X65475000Y-54600000D01*
X65150000Y-61850000D02*
X65475000Y-61850000D01*
X65150000Y-54600000D02*
X65150000Y-54925000D01*
X72400000Y-54600000D02*
X72400000Y-54925000D01*
X72400000Y-61850000D02*
X72400000Y-61525000D01*
X65150000Y-61850000D02*
X65150000Y-61625000D01*
D12*
X104980000Y-122790000D02*
X104980000Y-115970000D01*
X100760000Y-122790000D02*
X100760000Y-115970000D01*
X104980000Y-122790000D02*
X103670000Y-122790000D01*
X102070000Y-122790000D02*
X100760000Y-122790000D01*
X104980000Y-115970000D02*
X103670000Y-115970000D01*
X102070000Y-115970000D02*
X100760000Y-115970000D01*
X105220000Y-123030000D02*
X105220000Y-121647000D01*
X105220000Y-123030000D02*
X103837000Y-123030000D01*
X103505000Y-121190000D02*
X102235000Y-121190000D01*
X102235000Y-121190000D02*
X102235000Y-117570000D01*
X102235000Y-117570000D02*
X103505000Y-117570000D01*
X103505000Y-117570000D02*
X103505000Y-121190000D01*
X103385000Y-121190000D02*
X103385000Y-119983333D01*
X103265000Y-121190000D02*
X103265000Y-119983333D01*
X103145000Y-121190000D02*
X103145000Y-119983333D01*
X103025000Y-121190000D02*
X103025000Y-119983333D01*
X102905000Y-121190000D02*
X102905000Y-119983333D01*
X102785000Y-121190000D02*
X102785000Y-119983333D01*
X102665000Y-121190000D02*
X102665000Y-119983333D01*
X102545000Y-121190000D02*
X102545000Y-119983333D01*
X102425000Y-121190000D02*
X102425000Y-119983333D01*
X102305000Y-121190000D02*
X102305000Y-119983333D01*
X103505000Y-119983333D02*
X102235000Y-119983333D01*
X80880000Y-144360000D02*
X83430000Y-144360000D01*
X80880000Y-142660000D02*
X83430000Y-142660000D01*
X80880000Y-144360000D02*
X80880000Y-142660000D01*
X92555000Y-73735000D02*
X92555000Y-76275000D01*
X98930000Y-73735000D02*
X92555000Y-73735000D01*
X98930000Y-104315000D02*
X98930000Y-73735000D01*
X92555000Y-104315000D02*
X92555000Y-101775000D01*
X98930000Y-104315000D02*
X92555000Y-104315000D01*
X48105000Y-76275000D02*
X60805000Y-76275000D01*
X48105000Y-73735000D02*
X48105000Y-76275000D01*
X41760000Y-73735000D02*
X48105000Y-73735000D01*
X41760000Y-104315000D02*
X41760000Y-73735000D01*
X48105000Y-104315000D02*
X41760000Y-104315000D01*
X48105000Y-101775000D02*
X48105000Y-104315000D01*
X48105000Y-101775000D02*
X60805000Y-101775000D01*
X92555000Y-76275000D02*
X79855000Y-76275000D01*
X60805000Y-104315000D02*
X60805000Y-101775000D01*
X79855000Y-104315000D02*
X60805000Y-104315000D01*
X79855000Y-101775000D02*
X79855000Y-104315000D01*
X92555000Y-101775000D02*
X79855000Y-101775000D01*
X79855000Y-73735000D02*
X79855000Y-76275000D01*
X60805000Y-73735000D02*
X79855000Y-73735000D01*
X60805000Y-76275000D02*
X60805000Y-73735000D01*
X98930000Y-88771000D02*
X41760000Y-88771000D01*
X41760000Y-89279000D02*
X98930000Y-89279000D01*
X79855000Y-99060000D02*
X79855000Y-97790000D01*
X62075000Y-99060000D02*
X79855000Y-99060000D01*
X62075000Y-97790000D02*
X62075000Y-99060000D01*
X60805000Y-97790000D02*
X62075000Y-97790000D01*
X60805000Y-95250000D02*
X60805000Y-97790000D01*
X62075000Y-95250000D02*
X60805000Y-95250000D01*
X62075000Y-93980000D02*
X62075000Y-95250000D01*
X79855000Y-93980000D02*
X62075000Y-93980000D01*
X79855000Y-97790000D02*
X79855000Y-93980000D01*
X78585000Y-78990000D02*
X60805000Y-78990000D01*
X78585000Y-80260000D02*
X78585000Y-78990000D01*
X79855000Y-80260000D02*
X78585000Y-80260000D01*
X79855000Y-82800000D02*
X79855000Y-80260000D01*
X78585000Y-82800000D02*
X79855000Y-82800000D01*
X78585000Y-84070000D02*
X78585000Y-82800000D01*
X60805000Y-84070000D02*
X78585000Y-84070000D01*
X60805000Y-78990000D02*
X60805000Y-84070000D01*
X100200000Y-105585000D02*
X40490000Y-105585000D01*
X40490000Y-105585000D02*
X40490000Y-72465000D01*
X40490000Y-72465000D02*
X100200000Y-72465000D01*
X100200000Y-72465000D02*
X100200000Y-105585000D01*
X70385000Y-136898748D02*
X70385000Y-137421252D01*
X71855000Y-136898748D02*
X71855000Y-137421252D01*
X51870000Y-114435000D02*
X55755000Y-114435000D01*
X55755000Y-114435000D02*
X55755000Y-116705000D01*
X55755000Y-116705000D02*
X51870000Y-116705000D01*
D14*
X60452000Y-147320000D02*
X61468000Y-147320000D01*
D15*
X73435000Y-151945000D02*
X73435000Y-150595000D01*
X64495000Y-150595000D02*
X64495000Y-151945000D01*
X64495000Y-155945000D02*
X73435000Y-155945000D01*
X73435000Y-155945000D02*
X73435000Y-154595000D01*
X64495000Y-154595000D02*
X64495000Y-155945000D01*
D14*
X79502000Y-146304000D02*
X79502000Y-145796000D01*
X83820000Y-145796000D02*
X83820000Y-146304000D01*
X91820000Y-138900000D02*
X91820000Y-140500000D01*
X88520000Y-138900000D02*
X88520000Y-140500000D01*
X90570000Y-138650000D02*
X89770000Y-138650000D01*
X68585000Y-113525000D02*
X72385000Y-113525000D01*
X72385000Y-108725000D02*
X68585000Y-108725000D01*
X69850000Y-113055400D02*
G75*
G03*
X69850000Y-113055400I-254000J0D01*
G01*
X52705000Y-66294000D02*
X52705000Y-65786000D01*
D12*
X95884420Y-133860000D02*
X96165580Y-133860000D01*
X95884420Y-132840000D02*
X96165580Y-132840000D01*
X73519420Y-71630000D02*
X73800580Y-71630000D01*
X73519420Y-70610000D02*
X73800580Y-70610000D01*
D13*
X67274001Y-43765286D02*
X67024001Y-44515286D01*
X66774001Y-43765286D01*
X66095429Y-44443858D02*
X66131143Y-44479572D01*
X66238286Y-44515286D01*
X66309715Y-44515286D01*
X66416858Y-44479572D01*
X66488286Y-44408143D01*
X66524001Y-44336715D01*
X66559715Y-44193858D01*
X66559715Y-44086715D01*
X66524001Y-43943858D01*
X66488286Y-43872429D01*
X66416858Y-43801001D01*
X66309715Y-43765286D01*
X66238286Y-43765286D01*
X66131143Y-43801001D01*
X66095429Y-43836715D01*
X65345429Y-44443858D02*
X65381143Y-44479572D01*
X65488286Y-44515286D01*
X65559715Y-44515286D01*
X65666858Y-44479572D01*
X65738286Y-44408143D01*
X65774001Y-44336715D01*
X65809715Y-44193858D01*
X65809715Y-44086715D01*
X65774001Y-43943858D01*
X65738286Y-43872429D01*
X65666858Y-43801001D01*
X65559715Y-43765286D01*
X65488286Y-43765286D01*
X65381143Y-43801001D01*
X65345429Y-43836715D01*
X66845429Y-49643001D02*
X66916858Y-49607286D01*
X67024001Y-49607286D01*
X67131143Y-49643001D01*
X67202572Y-49714429D01*
X67238286Y-49785858D01*
X67274001Y-49928715D01*
X67274001Y-50035858D01*
X67238286Y-50178715D01*
X67202572Y-50250143D01*
X67131143Y-50321572D01*
X67024001Y-50357286D01*
X66952572Y-50357286D01*
X66845429Y-50321572D01*
X66809715Y-50285858D01*
X66809715Y-50035858D01*
X66952572Y-50035858D01*
X66488286Y-50357286D02*
X66488286Y-49607286D01*
X66059715Y-50357286D01*
X66059715Y-49607286D01*
X65702572Y-50357286D02*
X65702572Y-49607286D01*
X65524001Y-49607286D01*
X65416858Y-49643001D01*
X65345429Y-49714429D01*
X65309715Y-49785858D01*
X65274001Y-49928715D01*
X65274001Y-50035858D01*
X65309715Y-50178715D01*
X65345429Y-50250143D01*
X65416858Y-50321572D01*
X65524001Y-50357286D01*
X65702572Y-50357286D01*
X39941428Y-81637142D02*
X38798571Y-81637142D01*
X39941428Y-96627142D02*
X38798571Y-96627142D01*
X39370000Y-97198571D02*
X39370000Y-96055714D01*
X60106428Y-81637142D02*
X58963571Y-81637142D01*
X81696428Y-81637142D02*
X80553571Y-81637142D01*
X81125000Y-82208571D02*
X81125000Y-81065714D01*
X60106428Y-96627142D02*
X58963571Y-96627142D01*
X59535000Y-97198571D02*
X59535000Y-96055714D01*
X81696428Y-96627142D02*
X80553571Y-96627142D01*
M02*
