G04 #@! TF.GenerationSoftware,KiCad,Pcbnew,(5.1.10)-1*
G04 #@! TF.CreationDate,2021-10-13T01:49:27-04:00*
G04 #@! TF.ProjectId,ScryptKeeper,53637279-7074-44b6-9565-7065722e6b69,rev?*
G04 #@! TF.SameCoordinates,Original*
G04 #@! TF.FileFunction,Paste,Bot*
G04 #@! TF.FilePolarity,Positive*
%FSLAX46Y46*%
G04 Gerber Fmt 4.6, Leading zero omitted, Abs format (unit mm)*
G04 Created by KiCad (PCBNEW (5.1.10)-1) date 2021-10-13 01:49:27*
%MOMM*%
%LPD*%
G01*
G04 APERTURE LIST*
%ADD10C,0.100000*%
%ADD11R,0.500000X0.500000*%
%ADD12R,0.550000X1.600000*%
%ADD13R,1.600000X0.550000*%
%ADD14R,1.120000X2.160000*%
%ADD15R,1.300000X1.200000*%
%ADD16R,0.575000X1.150000*%
%ADD17R,0.275000X1.150000*%
%ADD18R,0.600000X0.600000*%
%ADD19R,0.550000X1.200000*%
%ADD20R,2.200000X0.600000*%
G04 APERTURE END LIST*
D10*
G36*
X73791000Y-149645800D02*
G01*
X73791000Y-148680600D01*
X73766137Y-148523619D01*
X73693981Y-148382005D01*
X73581595Y-148269619D01*
X73283000Y-148172600D01*
X73098317Y-148209336D01*
X72941750Y-148313950D01*
X72800400Y-148655200D01*
X72800400Y-149671200D01*
X72837136Y-149855883D01*
X72941750Y-150012450D01*
X73283000Y-150153800D01*
X73439981Y-150128937D01*
X73581595Y-150056781D01*
X73693981Y-149944395D01*
X73791000Y-149645800D01*
G37*
G36*
X65142300Y-149633100D02*
G01*
X65142300Y-148667900D01*
X65117437Y-148510919D01*
X65045281Y-148369305D01*
X64932895Y-148256919D01*
X64634300Y-148159900D01*
X64449617Y-148196636D01*
X64293050Y-148301250D01*
X64151700Y-148642500D01*
X64151700Y-149658500D01*
X64188436Y-149843183D01*
X64293050Y-149999750D01*
X64634300Y-150141100D01*
X64791281Y-150116237D01*
X64932895Y-150044081D01*
X65045281Y-149931695D01*
X65142300Y-149633100D01*
G37*
G36*
X65142300Y-153824100D02*
G01*
X65142300Y-152858900D01*
X65117437Y-152701919D01*
X65045281Y-152560305D01*
X64932895Y-152447919D01*
X64634300Y-152350900D01*
X64449617Y-152387636D01*
X64293050Y-152492250D01*
X64151700Y-152833500D01*
X64151700Y-153849500D01*
X64188436Y-154034183D01*
X64293050Y-154190750D01*
X64634300Y-154332100D01*
X64791281Y-154307237D01*
X64932895Y-154235081D01*
X65045281Y-154122695D01*
X65142300Y-153824100D01*
G37*
G36*
X73778300Y-153824100D02*
G01*
X73778300Y-152858900D01*
X73753437Y-152701919D01*
X73681281Y-152560305D01*
X73568895Y-152447919D01*
X73270300Y-152350900D01*
X73085617Y-152387636D01*
X72929050Y-152492250D01*
X72787700Y-152833500D01*
X72787700Y-153849500D01*
X72824436Y-154034183D01*
X72929050Y-154190750D01*
X73270300Y-154332100D01*
X73427281Y-154307237D01*
X73568895Y-154235081D01*
X73681281Y-154122695D01*
X73778300Y-153824100D01*
G37*
D11*
X95420000Y-135890000D03*
X97620000Y-135890000D03*
D12*
X65975000Y-62475000D03*
X66775000Y-62475000D03*
X67575000Y-62475000D03*
X68375000Y-62475000D03*
X69175000Y-62475000D03*
X69975000Y-62475000D03*
X70775000Y-62475000D03*
X71575000Y-62475000D03*
D13*
X73025000Y-61025000D03*
X73025000Y-60225000D03*
X73025000Y-59425000D03*
X73025000Y-58625000D03*
X73025000Y-57825000D03*
X73025000Y-57025000D03*
X73025000Y-56225000D03*
X73025000Y-55425000D03*
D12*
X71575000Y-53975000D03*
X70775000Y-53975000D03*
X69975000Y-53975000D03*
X69175000Y-53975000D03*
X68375000Y-53975000D03*
X67575000Y-53975000D03*
X66775000Y-53975000D03*
X65975000Y-53975000D03*
D13*
X64525000Y-55425000D03*
X64525000Y-56225000D03*
X64525000Y-57025000D03*
X64525000Y-57825000D03*
X64525000Y-58625000D03*
X64525000Y-59425000D03*
X64525000Y-60225000D03*
X64525000Y-61025000D03*
D14*
X102870000Y-122745000D03*
X102870000Y-116015000D03*
D11*
X81280000Y-143510000D03*
X83480000Y-143510000D03*
G36*
G01*
X70645000Y-137610000D02*
X71595000Y-137610000D01*
G75*
G02*
X71845000Y-137860000I0J-250000D01*
G01*
X71845000Y-138360000D01*
G75*
G02*
X71595000Y-138610000I-250000J0D01*
G01*
X70645000Y-138610000D01*
G75*
G02*
X70395000Y-138360000I0J250000D01*
G01*
X70395000Y-137860000D01*
G75*
G02*
X70645000Y-137610000I250000J0D01*
G01*
G37*
G36*
G01*
X70645000Y-135710000D02*
X71595000Y-135710000D01*
G75*
G02*
X71845000Y-135960000I0J-250000D01*
G01*
X71845000Y-136460000D01*
G75*
G02*
X71595000Y-136710000I-250000J0D01*
G01*
X70645000Y-136710000D01*
G75*
G02*
X70395000Y-136460000I0J250000D01*
G01*
X70395000Y-135960000D01*
G75*
G02*
X70645000Y-135710000I250000J0D01*
G01*
G37*
G36*
G01*
X52695000Y-114945000D02*
X52695000Y-116195000D01*
G75*
G02*
X52445000Y-116445000I-250000J0D01*
G01*
X51695000Y-116445000D01*
G75*
G02*
X51445000Y-116195000I0J250000D01*
G01*
X51445000Y-114945000D01*
G75*
G02*
X51695000Y-114695000I250000J0D01*
G01*
X52445000Y-114695000D01*
G75*
G02*
X52695000Y-114945000I0J-250000D01*
G01*
G37*
G36*
G01*
X55495000Y-114945000D02*
X55495000Y-116195000D01*
G75*
G02*
X55245000Y-116445000I-250000J0D01*
G01*
X54495000Y-116445000D01*
G75*
G02*
X54245000Y-116195000I0J250000D01*
G01*
X54245000Y-114945000D01*
G75*
G02*
X54495000Y-114695000I250000J0D01*
G01*
X55245000Y-114695000D01*
G75*
G02*
X55495000Y-114945000I0J-250000D01*
G01*
G37*
D15*
X60960000Y-148336000D03*
X60960000Y-146304000D03*
D16*
X72165000Y-148590000D03*
X71365000Y-148590000D03*
D17*
X70715000Y-148590000D03*
X70215000Y-148590000D03*
X69715000Y-148590000D03*
X69215000Y-148590000D03*
X68715000Y-148590000D03*
X68215000Y-148590000D03*
X67715000Y-148590000D03*
X67215000Y-148590000D03*
D16*
X66565000Y-148590000D03*
X65765000Y-148590000D03*
D18*
X80010000Y-146050000D03*
X78994000Y-146050000D03*
X83312000Y-146050000D03*
X84328000Y-146050000D03*
D19*
X91120000Y-141000100D03*
X90170000Y-141000100D03*
X89220000Y-141000100D03*
X89220000Y-138399900D03*
X91120000Y-138399900D03*
D20*
X67885000Y-111760000D03*
X73085000Y-111760000D03*
X67885000Y-113030000D03*
X67885000Y-110490000D03*
X67885000Y-109220000D03*
X73085000Y-113030000D03*
X73085000Y-110490000D03*
X73085000Y-109220000D03*
D18*
X52197000Y-66040000D03*
X53213000Y-66040000D03*
G36*
G01*
X94800000Y-133600000D02*
X94800000Y-133100000D01*
G75*
G02*
X95025000Y-132875000I225000J0D01*
G01*
X95475000Y-132875000D01*
G75*
G02*
X95700000Y-133100000I0J-225000D01*
G01*
X95700000Y-133600000D01*
G75*
G02*
X95475000Y-133825000I-225000J0D01*
G01*
X95025000Y-133825000D01*
G75*
G02*
X94800000Y-133600000I0J225000D01*
G01*
G37*
G36*
G01*
X96350000Y-133600000D02*
X96350000Y-133100000D01*
G75*
G02*
X96575000Y-132875000I225000J0D01*
G01*
X97025000Y-132875000D01*
G75*
G02*
X97250000Y-133100000I0J-225000D01*
G01*
X97250000Y-133600000D01*
G75*
G02*
X97025000Y-133825000I-225000J0D01*
G01*
X96575000Y-133825000D01*
G75*
G02*
X96350000Y-133600000I0J225000D01*
G01*
G37*
G36*
G01*
X72435000Y-71370000D02*
X72435000Y-70870000D01*
G75*
G02*
X72660000Y-70645000I225000J0D01*
G01*
X73110000Y-70645000D01*
G75*
G02*
X73335000Y-70870000I0J-225000D01*
G01*
X73335000Y-71370000D01*
G75*
G02*
X73110000Y-71595000I-225000J0D01*
G01*
X72660000Y-71595000D01*
G75*
G02*
X72435000Y-71370000I0J225000D01*
G01*
G37*
G36*
G01*
X73985000Y-71370000D02*
X73985000Y-70870000D01*
G75*
G02*
X74210000Y-70645000I225000J0D01*
G01*
X74660000Y-70645000D01*
G75*
G02*
X74885000Y-70870000I0J-225000D01*
G01*
X74885000Y-71370000D01*
G75*
G02*
X74660000Y-71595000I-225000J0D01*
G01*
X74210000Y-71595000D01*
G75*
G02*
X73985000Y-71370000I0J225000D01*
G01*
G37*
M02*
