G04 #@! TF.GenerationSoftware,KiCad,Pcbnew,(5.1.10)-1*
G04 #@! TF.CreationDate,2021-10-13T01:49:27-04:00*
G04 #@! TF.ProjectId,ScryptKeeper,53637279-7074-44b6-9565-7065722e6b69,rev?*
G04 #@! TF.SameCoordinates,Original*
G04 #@! TF.FileFunction,Soldermask,Bot*
G04 #@! TF.FilePolarity,Negative*
%FSLAX46Y46*%
G04 Gerber Fmt 4.6, Leading zero omitted, Abs format (unit mm)*
G04 Created by KiCad (PCBNEW (5.1.10)-1) date 2021-10-13 01:49:27*
%MOMM*%
%LPD*%
G01*
G04 APERTURE LIST*
%ADD10C,0.010000*%
%ADD11R,0.500000X0.500000*%
%ADD12R,0.550000X1.600000*%
%ADD13R,1.600000X0.550000*%
%ADD14R,1.120000X2.160000*%
%ADD15R,2.000000X2.000000*%
%ADD16C,0.100000*%
%ADD17C,4.300000*%
%ADD18C,1.727200*%
%ADD19O,1.727200X1.727200*%
%ADD20R,1.727200X1.727200*%
%ADD21C,2.000000*%
%ADD22O,1.101600X2.101600*%
%ADD23C,0.650000*%
G04 APERTURE END LIST*
D10*
G36*
X48719460Y-109878497D02*
G01*
X48842083Y-109879903D01*
X49244250Y-109886750D01*
X49549700Y-110072716D01*
X49932994Y-110292883D01*
X50353842Y-110510224D01*
X50807478Y-110722877D01*
X51289135Y-110928979D01*
X51794046Y-111126666D01*
X52317443Y-111314076D01*
X52854560Y-111489346D01*
X53400629Y-111650614D01*
X53950882Y-111796015D01*
X53975000Y-111801991D01*
X54313628Y-111881520D01*
X54685311Y-111961371D01*
X55080816Y-112039903D01*
X55490909Y-112115476D01*
X55906357Y-112186450D01*
X56317928Y-112251186D01*
X56716387Y-112308042D01*
X57086500Y-112354681D01*
X57173819Y-112365302D01*
X57240757Y-112376212D01*
X57297431Y-112391242D01*
X57353959Y-112414219D01*
X57420460Y-112448973D01*
X57507051Y-112499334D01*
X57573333Y-112538919D01*
X57805240Y-112680337D01*
X58008143Y-112809535D01*
X58180123Y-112925191D01*
X58319262Y-113025984D01*
X58423642Y-113110590D01*
X58477078Y-113161682D01*
X58648594Y-113372885D01*
X58800583Y-113618372D01*
X58930462Y-113893635D01*
X58995331Y-114067167D01*
X59056574Y-114247084D01*
X59046689Y-113929584D01*
X59042251Y-113814247D01*
X59036703Y-113710922D01*
X59030637Y-113628460D01*
X59024645Y-113575711D01*
X59022267Y-113564459D01*
X59018328Y-113528104D01*
X59027965Y-113516834D01*
X59049933Y-113529491D01*
X59099538Y-113564817D01*
X59171515Y-113618846D01*
X59260597Y-113687608D01*
X59361520Y-113767138D01*
X59384975Y-113785835D01*
X59482287Y-113865788D01*
X59590068Y-113958121D01*
X59703892Y-114058657D01*
X59819337Y-114163215D01*
X59931978Y-114267618D01*
X60037391Y-114367687D01*
X60131152Y-114459242D01*
X60208836Y-114538106D01*
X60266021Y-114600099D01*
X60298281Y-114641043D01*
X60303833Y-114653733D01*
X60285137Y-114668498D01*
X60233504Y-114695093D01*
X60155613Y-114730432D01*
X60058145Y-114771427D01*
X59991625Y-114798013D01*
X59711548Y-114914875D01*
X59470797Y-115030822D01*
X59266445Y-115147621D01*
X59095570Y-115267042D01*
X58955248Y-115390852D01*
X58885057Y-115467324D01*
X58835548Y-115528217D01*
X58808157Y-115573263D01*
X58797053Y-115618414D01*
X58796408Y-115679622D01*
X58797533Y-115706852D01*
X58788700Y-115886197D01*
X58748666Y-116087881D01*
X58679625Y-116308223D01*
X58583766Y-116543539D01*
X58463283Y-116790149D01*
X58320366Y-117044370D01*
X58157207Y-117302519D01*
X57975998Y-117560917D01*
X57778931Y-117815879D01*
X57568197Y-118063724D01*
X57345988Y-118300771D01*
X57128833Y-118510251D01*
X56727726Y-118854149D01*
X56320905Y-119156247D01*
X55907983Y-119416742D01*
X55488570Y-119635831D01*
X55062276Y-119813713D01*
X54628714Y-119950584D01*
X54187494Y-120046642D01*
X54061629Y-120066381D01*
X53907903Y-120084230D01*
X53730793Y-120097887D01*
X53542298Y-120106996D01*
X53354423Y-120111201D01*
X53179168Y-120110146D01*
X53028537Y-120103473D01*
X52973343Y-120098686D01*
X52704134Y-120064948D01*
X52466649Y-120023616D01*
X52265356Y-119975501D01*
X52214865Y-119960544D01*
X51681694Y-119779257D01*
X51186162Y-119579187D01*
X50727793Y-119359965D01*
X50306107Y-119121224D01*
X49920627Y-118862596D01*
X49570875Y-118583712D01*
X49256371Y-118284204D01*
X48976639Y-117963705D01*
X48731199Y-117621845D01*
X48519574Y-117258257D01*
X48409073Y-117030500D01*
X48274845Y-116692358D01*
X48161686Y-116320268D01*
X48070508Y-115917510D01*
X48023948Y-115644084D01*
X48014276Y-115553076D01*
X48006567Y-115427325D01*
X48000821Y-115274372D01*
X47997039Y-115101762D01*
X47995225Y-114917039D01*
X47995378Y-114727745D01*
X47997501Y-114541424D01*
X48001595Y-114365619D01*
X48007662Y-114207875D01*
X48015703Y-114075734D01*
X48023611Y-113993084D01*
X48049836Y-113787143D01*
X48077617Y-113592434D01*
X48108345Y-113401709D01*
X48143410Y-113207720D01*
X48184205Y-113003219D01*
X48232121Y-112780958D01*
X48288548Y-112533690D01*
X48354878Y-112254167D01*
X48367214Y-112203023D01*
X48406133Y-112039597D01*
X48442862Y-111880872D01*
X48475834Y-111733974D01*
X48503479Y-111606029D01*
X48524229Y-111504162D01*
X48536517Y-111435497D01*
X48537262Y-111430439D01*
X48554100Y-111189330D01*
X48540620Y-110930338D01*
X48498602Y-110663182D01*
X48429824Y-110397580D01*
X48336069Y-110143248D01*
X48278959Y-110020510D01*
X48218539Y-109900271D01*
X48329228Y-109886663D01*
X48386080Y-109882662D01*
X48476142Y-109879887D01*
X48590305Y-109878459D01*
X48719460Y-109878497D01*
G37*
X48719460Y-109878497D02*
X48842083Y-109879903D01*
X49244250Y-109886750D01*
X49549700Y-110072716D01*
X49932994Y-110292883D01*
X50353842Y-110510224D01*
X50807478Y-110722877D01*
X51289135Y-110928979D01*
X51794046Y-111126666D01*
X52317443Y-111314076D01*
X52854560Y-111489346D01*
X53400629Y-111650614D01*
X53950882Y-111796015D01*
X53975000Y-111801991D01*
X54313628Y-111881520D01*
X54685311Y-111961371D01*
X55080816Y-112039903D01*
X55490909Y-112115476D01*
X55906357Y-112186450D01*
X56317928Y-112251186D01*
X56716387Y-112308042D01*
X57086500Y-112354681D01*
X57173819Y-112365302D01*
X57240757Y-112376212D01*
X57297431Y-112391242D01*
X57353959Y-112414219D01*
X57420460Y-112448973D01*
X57507051Y-112499334D01*
X57573333Y-112538919D01*
X57805240Y-112680337D01*
X58008143Y-112809535D01*
X58180123Y-112925191D01*
X58319262Y-113025984D01*
X58423642Y-113110590D01*
X58477078Y-113161682D01*
X58648594Y-113372885D01*
X58800583Y-113618372D01*
X58930462Y-113893635D01*
X58995331Y-114067167D01*
X59056574Y-114247084D01*
X59046689Y-113929584D01*
X59042251Y-113814247D01*
X59036703Y-113710922D01*
X59030637Y-113628460D01*
X59024645Y-113575711D01*
X59022267Y-113564459D01*
X59018328Y-113528104D01*
X59027965Y-113516834D01*
X59049933Y-113529491D01*
X59099538Y-113564817D01*
X59171515Y-113618846D01*
X59260597Y-113687608D01*
X59361520Y-113767138D01*
X59384975Y-113785835D01*
X59482287Y-113865788D01*
X59590068Y-113958121D01*
X59703892Y-114058657D01*
X59819337Y-114163215D01*
X59931978Y-114267618D01*
X60037391Y-114367687D01*
X60131152Y-114459242D01*
X60208836Y-114538106D01*
X60266021Y-114600099D01*
X60298281Y-114641043D01*
X60303833Y-114653733D01*
X60285137Y-114668498D01*
X60233504Y-114695093D01*
X60155613Y-114730432D01*
X60058145Y-114771427D01*
X59991625Y-114798013D01*
X59711548Y-114914875D01*
X59470797Y-115030822D01*
X59266445Y-115147621D01*
X59095570Y-115267042D01*
X58955248Y-115390852D01*
X58885057Y-115467324D01*
X58835548Y-115528217D01*
X58808157Y-115573263D01*
X58797053Y-115618414D01*
X58796408Y-115679622D01*
X58797533Y-115706852D01*
X58788700Y-115886197D01*
X58748666Y-116087881D01*
X58679625Y-116308223D01*
X58583766Y-116543539D01*
X58463283Y-116790149D01*
X58320366Y-117044370D01*
X58157207Y-117302519D01*
X57975998Y-117560917D01*
X57778931Y-117815879D01*
X57568197Y-118063724D01*
X57345988Y-118300771D01*
X57128833Y-118510251D01*
X56727726Y-118854149D01*
X56320905Y-119156247D01*
X55907983Y-119416742D01*
X55488570Y-119635831D01*
X55062276Y-119813713D01*
X54628714Y-119950584D01*
X54187494Y-120046642D01*
X54061629Y-120066381D01*
X53907903Y-120084230D01*
X53730793Y-120097887D01*
X53542298Y-120106996D01*
X53354423Y-120111201D01*
X53179168Y-120110146D01*
X53028537Y-120103473D01*
X52973343Y-120098686D01*
X52704134Y-120064948D01*
X52466649Y-120023616D01*
X52265356Y-119975501D01*
X52214865Y-119960544D01*
X51681694Y-119779257D01*
X51186162Y-119579187D01*
X50727793Y-119359965D01*
X50306107Y-119121224D01*
X49920627Y-118862596D01*
X49570875Y-118583712D01*
X49256371Y-118284204D01*
X48976639Y-117963705D01*
X48731199Y-117621845D01*
X48519574Y-117258257D01*
X48409073Y-117030500D01*
X48274845Y-116692358D01*
X48161686Y-116320268D01*
X48070508Y-115917510D01*
X48023948Y-115644084D01*
X48014276Y-115553076D01*
X48006567Y-115427325D01*
X48000821Y-115274372D01*
X47997039Y-115101762D01*
X47995225Y-114917039D01*
X47995378Y-114727745D01*
X47997501Y-114541424D01*
X48001595Y-114365619D01*
X48007662Y-114207875D01*
X48015703Y-114075734D01*
X48023611Y-113993084D01*
X48049836Y-113787143D01*
X48077617Y-113592434D01*
X48108345Y-113401709D01*
X48143410Y-113207720D01*
X48184205Y-113003219D01*
X48232121Y-112780958D01*
X48288548Y-112533690D01*
X48354878Y-112254167D01*
X48367214Y-112203023D01*
X48406133Y-112039597D01*
X48442862Y-111880872D01*
X48475834Y-111733974D01*
X48503479Y-111606029D01*
X48524229Y-111504162D01*
X48536517Y-111435497D01*
X48537262Y-111430439D01*
X48554100Y-111189330D01*
X48540620Y-110930338D01*
X48498602Y-110663182D01*
X48429824Y-110397580D01*
X48336069Y-110143248D01*
X48278959Y-110020510D01*
X48218539Y-109900271D01*
X48329228Y-109886663D01*
X48386080Y-109882662D01*
X48476142Y-109879887D01*
X48590305Y-109878459D01*
X48719460Y-109878497D01*
D11*
X95420000Y-135890000D03*
X97620000Y-135890000D03*
D12*
X65975000Y-62475000D03*
X66775000Y-62475000D03*
X67575000Y-62475000D03*
X68375000Y-62475000D03*
X69175000Y-62475000D03*
X69975000Y-62475000D03*
X70775000Y-62475000D03*
X71575000Y-62475000D03*
D13*
X73025000Y-61025000D03*
X73025000Y-60225000D03*
X73025000Y-59425000D03*
X73025000Y-58625000D03*
X73025000Y-57825000D03*
X73025000Y-57025000D03*
X73025000Y-56225000D03*
X73025000Y-55425000D03*
D12*
X71575000Y-53975000D03*
X70775000Y-53975000D03*
X69975000Y-53975000D03*
X69175000Y-53975000D03*
X68375000Y-53975000D03*
X67575000Y-53975000D03*
X66775000Y-53975000D03*
X65975000Y-53975000D03*
D13*
X64525000Y-55425000D03*
X64525000Y-56225000D03*
X64525000Y-57025000D03*
X64525000Y-57825000D03*
X64525000Y-58625000D03*
X64525000Y-59425000D03*
X64525000Y-60225000D03*
X64525000Y-61025000D03*
D14*
X102870000Y-122745000D03*
X102870000Y-116015000D03*
D15*
X106680000Y-135255000D03*
D16*
G36*
X32385000Y-136669214D02*
G01*
X30970786Y-135255000D01*
X32385000Y-133840786D01*
X33799214Y-135255000D01*
X32385000Y-136669214D01*
G37*
G36*
X34925000Y-139209214D02*
G01*
X33510786Y-137795000D01*
X34925000Y-136380786D01*
X36339214Y-137795000D01*
X34925000Y-139209214D01*
G37*
D15*
X106680000Y-132080000D03*
D17*
X43815000Y-58420000D03*
X97790000Y-58420000D03*
D18*
X71414001Y-45720001D03*
X71414001Y-48260001D03*
D19*
X68874001Y-45720001D03*
X68874001Y-48260001D03*
X66334001Y-45720001D03*
D20*
X66334001Y-48260001D03*
D16*
G36*
X110393975Y-75833975D02*
G01*
X112126025Y-74833975D01*
X113126025Y-76566025D01*
X111393975Y-77566025D01*
X110393975Y-75833975D01*
G37*
G36*
X108488975Y-72658975D02*
G01*
X110221025Y-71658975D01*
X111221025Y-73391025D01*
X109488975Y-74391025D01*
X108488975Y-72658975D01*
G37*
G36*
G01*
X40640000Y-60274200D02*
X40640000Y-60274200D01*
G75*
G02*
X41325800Y-60960000I0J-685800D01*
G01*
X41325800Y-60960000D01*
G75*
G02*
X40640000Y-61645800I-685800J0D01*
G01*
X40640000Y-61645800D01*
G75*
G02*
X39954200Y-60960000I0J685800D01*
G01*
X39954200Y-60960000D01*
G75*
G02*
X40640000Y-60274200I685800J0D01*
G01*
G37*
D11*
X81280000Y-143510000D03*
X83480000Y-143510000D03*
D21*
X43180000Y-81530000D03*
D15*
X43180000Y-96520000D03*
G36*
G01*
X70645000Y-137610000D02*
X71595000Y-137610000D01*
G75*
G02*
X71845000Y-137860000I0J-250000D01*
G01*
X71845000Y-138360000D01*
G75*
G02*
X71595000Y-138610000I-250000J0D01*
G01*
X70645000Y-138610000D01*
G75*
G02*
X70395000Y-138360000I0J250000D01*
G01*
X70395000Y-137860000D01*
G75*
G02*
X70645000Y-137610000I250000J0D01*
G01*
G37*
G36*
G01*
X70645000Y-135710000D02*
X71595000Y-135710000D01*
G75*
G02*
X71845000Y-135960000I0J-250000D01*
G01*
X71845000Y-136460000D01*
G75*
G02*
X71595000Y-136710000I-250000J0D01*
G01*
X70645000Y-136710000D01*
G75*
G02*
X70395000Y-136460000I0J250000D01*
G01*
X70395000Y-135960000D01*
G75*
G02*
X70645000Y-135710000I250000J0D01*
G01*
G37*
D16*
G36*
X106028695Y-99899629D02*
G01*
X107443534Y-98908948D01*
X108434215Y-100323787D01*
X107019376Y-101314468D01*
X106028695Y-99899629D01*
G37*
G36*
G01*
X105279229Y-97323642D02*
X105279229Y-97323642D01*
G75*
G02*
X106481990Y-97535721I495341J-707420D01*
G01*
X106481990Y-97535721D01*
G75*
G02*
X106269911Y-98738482I-707420J-495341D01*
G01*
X106269911Y-98738482D01*
G75*
G02*
X105067150Y-98526403I-495341J707420D01*
G01*
X105067150Y-98526403D01*
G75*
G02*
X105279229Y-97323642I707420J495341D01*
G01*
G37*
G36*
G01*
X108816760Y-97947404D02*
X108816760Y-97947404D01*
G75*
G02*
X110019521Y-98159483I495341J-707420D01*
G01*
X110019521Y-98159483D01*
G75*
G02*
X109807442Y-99362244I-707420J-495341D01*
G01*
X109807442Y-99362244D01*
G75*
G02*
X108604681Y-99150165I-495341J707420D01*
G01*
X108604681Y-99150165D01*
G75*
G02*
X108816760Y-97947404I707420J495341D01*
G01*
G37*
G36*
G01*
X107359876Y-95866757D02*
X107359876Y-95866757D01*
G75*
G02*
X108562637Y-96078836I495341J-707420D01*
G01*
X108562637Y-96078836D01*
G75*
G02*
X108350558Y-97281597I-707420J-495341D01*
G01*
X108350558Y-97281597D01*
G75*
G02*
X107147797Y-97069518I-495341J707420D01*
G01*
X107147797Y-97069518D01*
G75*
G02*
X107359876Y-95866757I707420J495341D01*
G01*
G37*
D18*
X111392747Y-97197939D03*
X109935863Y-95117293D03*
G36*
G01*
X52695000Y-114945000D02*
X52695000Y-116195000D01*
G75*
G02*
X52445000Y-116445000I-250000J0D01*
G01*
X51695000Y-116445000D01*
G75*
G02*
X51445000Y-116195000I0J250000D01*
G01*
X51445000Y-114945000D01*
G75*
G02*
X51695000Y-114695000I250000J0D01*
G01*
X52445000Y-114695000D01*
G75*
G02*
X52695000Y-114945000I0J-250000D01*
G01*
G37*
G36*
G01*
X55495000Y-114945000D02*
X55495000Y-116195000D01*
G75*
G02*
X55245000Y-116445000I-250000J0D01*
G01*
X54495000Y-116445000D01*
G75*
G02*
X54245000Y-116195000I0J250000D01*
G01*
X54245000Y-114945000D01*
G75*
G02*
X54495000Y-114695000I250000J0D01*
G01*
X55245000Y-114695000D01*
G75*
G02*
X55495000Y-114945000I0J-250000D01*
G01*
G37*
G36*
G01*
X60310000Y-147685200D02*
X61610000Y-147685200D01*
G75*
G02*
X61660800Y-147736000I0J-50800D01*
G01*
X61660800Y-148936000D01*
G75*
G02*
X61610000Y-148986800I-50800J0D01*
G01*
X60310000Y-148986800D01*
G75*
G02*
X60259200Y-148936000I0J50800D01*
G01*
X60259200Y-147736000D01*
G75*
G02*
X60310000Y-147685200I50800J0D01*
G01*
G37*
G36*
G01*
X60310000Y-145653200D02*
X61610000Y-145653200D01*
G75*
G02*
X61660800Y-145704000I0J-50800D01*
G01*
X61660800Y-146904000D01*
G75*
G02*
X61610000Y-146954800I-50800J0D01*
G01*
X60310000Y-146954800D01*
G75*
G02*
X60259200Y-146904000I0J50800D01*
G01*
X60259200Y-145704000D01*
G75*
G02*
X60310000Y-145653200I50800J0D01*
G01*
G37*
G36*
G01*
X72503300Y-148014999D02*
X72503300Y-149165001D01*
G75*
G02*
X72452501Y-149215800I-50799J0D01*
G01*
X71877499Y-149215800D01*
G75*
G02*
X71826700Y-149165001I0J50799D01*
G01*
X71826700Y-148014999D01*
G75*
G02*
X71877499Y-147964200I50799J0D01*
G01*
X72452501Y-147964200D01*
G75*
G02*
X72503300Y-148014999I0J-50799D01*
G01*
G37*
G36*
G01*
X71703300Y-148014999D02*
X71703300Y-149165001D01*
G75*
G02*
X71652501Y-149215800I-50799J0D01*
G01*
X71077499Y-149215800D01*
G75*
G02*
X71026700Y-149165001I0J50799D01*
G01*
X71026700Y-148014999D01*
G75*
G02*
X71077499Y-147964200I50799J0D01*
G01*
X71652501Y-147964200D01*
G75*
G02*
X71703300Y-148014999I0J-50799D01*
G01*
G37*
G36*
G01*
X70903300Y-148015000D02*
X70903300Y-149165000D01*
G75*
G02*
X70852500Y-149215800I-50800J0D01*
G01*
X70577500Y-149215800D01*
G75*
G02*
X70526700Y-149165000I0J50800D01*
G01*
X70526700Y-148015000D01*
G75*
G02*
X70577500Y-147964200I50800J0D01*
G01*
X70852500Y-147964200D01*
G75*
G02*
X70903300Y-148015000I0J-50800D01*
G01*
G37*
G36*
G01*
X70403300Y-148015000D02*
X70403300Y-149165000D01*
G75*
G02*
X70352500Y-149215800I-50800J0D01*
G01*
X70077500Y-149215800D01*
G75*
G02*
X70026700Y-149165000I0J50800D01*
G01*
X70026700Y-148015000D01*
G75*
G02*
X70077500Y-147964200I50800J0D01*
G01*
X70352500Y-147964200D01*
G75*
G02*
X70403300Y-148015000I0J-50800D01*
G01*
G37*
G36*
G01*
X69903300Y-148015000D02*
X69903300Y-149165000D01*
G75*
G02*
X69852500Y-149215800I-50800J0D01*
G01*
X69577500Y-149215800D01*
G75*
G02*
X69526700Y-149165000I0J50800D01*
G01*
X69526700Y-148015000D01*
G75*
G02*
X69577500Y-147964200I50800J0D01*
G01*
X69852500Y-147964200D01*
G75*
G02*
X69903300Y-148015000I0J-50800D01*
G01*
G37*
G36*
G01*
X69403300Y-148015000D02*
X69403300Y-149165000D01*
G75*
G02*
X69352500Y-149215800I-50800J0D01*
G01*
X69077500Y-149215800D01*
G75*
G02*
X69026700Y-149165000I0J50800D01*
G01*
X69026700Y-148015000D01*
G75*
G02*
X69077500Y-147964200I50800J0D01*
G01*
X69352500Y-147964200D01*
G75*
G02*
X69403300Y-148015000I0J-50800D01*
G01*
G37*
G36*
G01*
X68903300Y-148015000D02*
X68903300Y-149165000D01*
G75*
G02*
X68852500Y-149215800I-50800J0D01*
G01*
X68577500Y-149215800D01*
G75*
G02*
X68526700Y-149165000I0J50800D01*
G01*
X68526700Y-148015000D01*
G75*
G02*
X68577500Y-147964200I50800J0D01*
G01*
X68852500Y-147964200D01*
G75*
G02*
X68903300Y-148015000I0J-50800D01*
G01*
G37*
G36*
G01*
X68403300Y-148015000D02*
X68403300Y-149165000D01*
G75*
G02*
X68352500Y-149215800I-50800J0D01*
G01*
X68077500Y-149215800D01*
G75*
G02*
X68026700Y-149165000I0J50800D01*
G01*
X68026700Y-148015000D01*
G75*
G02*
X68077500Y-147964200I50800J0D01*
G01*
X68352500Y-147964200D01*
G75*
G02*
X68403300Y-148015000I0J-50800D01*
G01*
G37*
G36*
G01*
X67903300Y-148015000D02*
X67903300Y-149165000D01*
G75*
G02*
X67852500Y-149215800I-50800J0D01*
G01*
X67577500Y-149215800D01*
G75*
G02*
X67526700Y-149165000I0J50800D01*
G01*
X67526700Y-148015000D01*
G75*
G02*
X67577500Y-147964200I50800J0D01*
G01*
X67852500Y-147964200D01*
G75*
G02*
X67903300Y-148015000I0J-50800D01*
G01*
G37*
G36*
G01*
X67403300Y-148015000D02*
X67403300Y-149165000D01*
G75*
G02*
X67352500Y-149215800I-50800J0D01*
G01*
X67077500Y-149215800D01*
G75*
G02*
X67026700Y-149165000I0J50800D01*
G01*
X67026700Y-148015000D01*
G75*
G02*
X67077500Y-147964200I50800J0D01*
G01*
X67352500Y-147964200D01*
G75*
G02*
X67403300Y-148015000I0J-50800D01*
G01*
G37*
G36*
G01*
X66903300Y-148014999D02*
X66903300Y-149165001D01*
G75*
G02*
X66852501Y-149215800I-50799J0D01*
G01*
X66277499Y-149215800D01*
G75*
G02*
X66226700Y-149165001I0J50799D01*
G01*
X66226700Y-148014999D01*
G75*
G02*
X66277499Y-147964200I50799J0D01*
G01*
X66852501Y-147964200D01*
G75*
G02*
X66903300Y-148014999I0J-50799D01*
G01*
G37*
G36*
G01*
X66103300Y-148014999D02*
X66103300Y-149165001D01*
G75*
G02*
X66052501Y-149215800I-50799J0D01*
G01*
X65477499Y-149215800D01*
G75*
G02*
X65426700Y-149165001I0J50799D01*
G01*
X65426700Y-148014999D01*
G75*
G02*
X65477499Y-147964200I50799J0D01*
G01*
X66052501Y-147964200D01*
G75*
G02*
X66103300Y-148014999I0J-50799D01*
G01*
G37*
D22*
X73285000Y-153345000D03*
X64645000Y-153345000D03*
X64645000Y-149165000D03*
X73285000Y-149165000D03*
D23*
X66075000Y-149665000D03*
X71855000Y-149665000D03*
G36*
G01*
X79659200Y-146350000D02*
X79659200Y-145750000D01*
G75*
G02*
X79710000Y-145699200I50800J0D01*
G01*
X80310000Y-145699200D01*
G75*
G02*
X80360800Y-145750000I0J-50800D01*
G01*
X80360800Y-146350000D01*
G75*
G02*
X80310000Y-146400800I-50800J0D01*
G01*
X79710000Y-146400800D01*
G75*
G02*
X79659200Y-146350000I0J50800D01*
G01*
G37*
G36*
G01*
X78643200Y-146350000D02*
X78643200Y-145750000D01*
G75*
G02*
X78694000Y-145699200I50800J0D01*
G01*
X79294000Y-145699200D01*
G75*
G02*
X79344800Y-145750000I0J-50800D01*
G01*
X79344800Y-146350000D01*
G75*
G02*
X79294000Y-146400800I-50800J0D01*
G01*
X78694000Y-146400800D01*
G75*
G02*
X78643200Y-146350000I0J50800D01*
G01*
G37*
G36*
G01*
X83662800Y-145750000D02*
X83662800Y-146350000D01*
G75*
G02*
X83612000Y-146400800I-50800J0D01*
G01*
X83012000Y-146400800D01*
G75*
G02*
X82961200Y-146350000I0J50800D01*
G01*
X82961200Y-145750000D01*
G75*
G02*
X83012000Y-145699200I50800J0D01*
G01*
X83612000Y-145699200D01*
G75*
G02*
X83662800Y-145750000I0J-50800D01*
G01*
G37*
G36*
G01*
X84678800Y-145750000D02*
X84678800Y-146350000D01*
G75*
G02*
X84628000Y-146400800I-50800J0D01*
G01*
X84028000Y-146400800D01*
G75*
G02*
X83977200Y-146350000I0J50800D01*
G01*
X83977200Y-145750000D01*
G75*
G02*
X84028000Y-145699200I50800J0D01*
G01*
X84628000Y-145699200D01*
G75*
G02*
X84678800Y-145750000I0J-50800D01*
G01*
G37*
G36*
G01*
X91445800Y-140400100D02*
X91445800Y-141600100D01*
G75*
G02*
X91395000Y-141650900I-50800J0D01*
G01*
X90845000Y-141650900D01*
G75*
G02*
X90794200Y-141600100I0J50800D01*
G01*
X90794200Y-140400100D01*
G75*
G02*
X90845000Y-140349300I50800J0D01*
G01*
X91395000Y-140349300D01*
G75*
G02*
X91445800Y-140400100I0J-50800D01*
G01*
G37*
G36*
G01*
X90495800Y-140400100D02*
X90495800Y-141600100D01*
G75*
G02*
X90445000Y-141650900I-50800J0D01*
G01*
X89895000Y-141650900D01*
G75*
G02*
X89844200Y-141600100I0J50800D01*
G01*
X89844200Y-140400100D01*
G75*
G02*
X89895000Y-140349300I50800J0D01*
G01*
X90445000Y-140349300D01*
G75*
G02*
X90495800Y-140400100I0J-50800D01*
G01*
G37*
G36*
G01*
X89545800Y-140400100D02*
X89545800Y-141600100D01*
G75*
G02*
X89495000Y-141650900I-50800J0D01*
G01*
X88945000Y-141650900D01*
G75*
G02*
X88894200Y-141600100I0J50800D01*
G01*
X88894200Y-140400100D01*
G75*
G02*
X88945000Y-140349300I50800J0D01*
G01*
X89495000Y-140349300D01*
G75*
G02*
X89545800Y-140400100I0J-50800D01*
G01*
G37*
G36*
G01*
X89545800Y-137799900D02*
X89545800Y-138999900D01*
G75*
G02*
X89495000Y-139050700I-50800J0D01*
G01*
X88945000Y-139050700D01*
G75*
G02*
X88894200Y-138999900I0J50800D01*
G01*
X88894200Y-137799900D01*
G75*
G02*
X88945000Y-137749100I50800J0D01*
G01*
X89495000Y-137749100D01*
G75*
G02*
X89545800Y-137799900I0J-50800D01*
G01*
G37*
G36*
G01*
X91445800Y-137799900D02*
X91445800Y-138999900D01*
G75*
G02*
X91395000Y-139050700I-50800J0D01*
G01*
X90845000Y-139050700D01*
G75*
G02*
X90794200Y-138999900I0J50800D01*
G01*
X90794200Y-137799900D01*
G75*
G02*
X90845000Y-137749100I50800J0D01*
G01*
X91395000Y-137749100D01*
G75*
G02*
X91445800Y-137799900I0J-50800D01*
G01*
G37*
G36*
G01*
X68985000Y-112110800D02*
X66785000Y-112110800D01*
G75*
G02*
X66734200Y-112060000I0J50800D01*
G01*
X66734200Y-111460000D01*
G75*
G02*
X66785000Y-111409200I50800J0D01*
G01*
X68985000Y-111409200D01*
G75*
G02*
X69035800Y-111460000I0J-50800D01*
G01*
X69035800Y-112060000D01*
G75*
G02*
X68985000Y-112110800I-50800J0D01*
G01*
G37*
G36*
G01*
X74185000Y-112110800D02*
X71985000Y-112110800D01*
G75*
G02*
X71934200Y-112060000I0J50800D01*
G01*
X71934200Y-111460000D01*
G75*
G02*
X71985000Y-111409200I50800J0D01*
G01*
X74185000Y-111409200D01*
G75*
G02*
X74235800Y-111460000I0J-50800D01*
G01*
X74235800Y-112060000D01*
G75*
G02*
X74185000Y-112110800I-50800J0D01*
G01*
G37*
G36*
G01*
X68985000Y-113380800D02*
X66785000Y-113380800D01*
G75*
G02*
X66734200Y-113330000I0J50800D01*
G01*
X66734200Y-112730000D01*
G75*
G02*
X66785000Y-112679200I50800J0D01*
G01*
X68985000Y-112679200D01*
G75*
G02*
X69035800Y-112730000I0J-50800D01*
G01*
X69035800Y-113330000D01*
G75*
G02*
X68985000Y-113380800I-50800J0D01*
G01*
G37*
G36*
G01*
X68985000Y-110840800D02*
X66785000Y-110840800D01*
G75*
G02*
X66734200Y-110790000I0J50800D01*
G01*
X66734200Y-110190000D01*
G75*
G02*
X66785000Y-110139200I50800J0D01*
G01*
X68985000Y-110139200D01*
G75*
G02*
X69035800Y-110190000I0J-50800D01*
G01*
X69035800Y-110790000D01*
G75*
G02*
X68985000Y-110840800I-50800J0D01*
G01*
G37*
G36*
G01*
X68985000Y-109570800D02*
X66785000Y-109570800D01*
G75*
G02*
X66734200Y-109520000I0J50800D01*
G01*
X66734200Y-108920000D01*
G75*
G02*
X66785000Y-108869200I50800J0D01*
G01*
X68985000Y-108869200D01*
G75*
G02*
X69035800Y-108920000I0J-50800D01*
G01*
X69035800Y-109520000D01*
G75*
G02*
X68985000Y-109570800I-50800J0D01*
G01*
G37*
G36*
G01*
X74185000Y-113380800D02*
X71985000Y-113380800D01*
G75*
G02*
X71934200Y-113330000I0J50800D01*
G01*
X71934200Y-112730000D01*
G75*
G02*
X71985000Y-112679200I50800J0D01*
G01*
X74185000Y-112679200D01*
G75*
G02*
X74235800Y-112730000I0J-50800D01*
G01*
X74235800Y-113330000D01*
G75*
G02*
X74185000Y-113380800I-50800J0D01*
G01*
G37*
G36*
G01*
X74185000Y-110840800D02*
X71985000Y-110840800D01*
G75*
G02*
X71934200Y-110790000I0J50800D01*
G01*
X71934200Y-110190000D01*
G75*
G02*
X71985000Y-110139200I50800J0D01*
G01*
X74185000Y-110139200D01*
G75*
G02*
X74235800Y-110190000I0J-50800D01*
G01*
X74235800Y-110790000D01*
G75*
G02*
X74185000Y-110840800I-50800J0D01*
G01*
G37*
G36*
G01*
X74185000Y-109570800D02*
X71985000Y-109570800D01*
G75*
G02*
X71934200Y-109520000I0J50800D01*
G01*
X71934200Y-108920000D01*
G75*
G02*
X71985000Y-108869200I50800J0D01*
G01*
X74185000Y-108869200D01*
G75*
G02*
X74235800Y-108920000I0J-50800D01*
G01*
X74235800Y-109520000D01*
G75*
G02*
X74185000Y-109570800I-50800J0D01*
G01*
G37*
G36*
G01*
X51846200Y-66340000D02*
X51846200Y-65740000D01*
G75*
G02*
X51897000Y-65689200I50800J0D01*
G01*
X52497000Y-65689200D01*
G75*
G02*
X52547800Y-65740000I0J-50800D01*
G01*
X52547800Y-66340000D01*
G75*
G02*
X52497000Y-66390800I-50800J0D01*
G01*
X51897000Y-66390800D01*
G75*
G02*
X51846200Y-66340000I0J50800D01*
G01*
G37*
G36*
G01*
X52862200Y-66340000D02*
X52862200Y-65740000D01*
G75*
G02*
X52913000Y-65689200I50800J0D01*
G01*
X53513000Y-65689200D01*
G75*
G02*
X53563800Y-65740000I0J-50800D01*
G01*
X53563800Y-66340000D01*
G75*
G02*
X53513000Y-66390800I-50800J0D01*
G01*
X52913000Y-66390800D01*
G75*
G02*
X52862200Y-66340000I0J50800D01*
G01*
G37*
G36*
G01*
X94800000Y-133600000D02*
X94800000Y-133100000D01*
G75*
G02*
X95025000Y-132875000I225000J0D01*
G01*
X95475000Y-132875000D01*
G75*
G02*
X95700000Y-133100000I0J-225000D01*
G01*
X95700000Y-133600000D01*
G75*
G02*
X95475000Y-133825000I-225000J0D01*
G01*
X95025000Y-133825000D01*
G75*
G02*
X94800000Y-133600000I0J225000D01*
G01*
G37*
G36*
G01*
X96350000Y-133600000D02*
X96350000Y-133100000D01*
G75*
G02*
X96575000Y-132875000I225000J0D01*
G01*
X97025000Y-132875000D01*
G75*
G02*
X97250000Y-133100000I0J-225000D01*
G01*
X97250000Y-133600000D01*
G75*
G02*
X97025000Y-133825000I-225000J0D01*
G01*
X96575000Y-133825000D01*
G75*
G02*
X96350000Y-133600000I0J225000D01*
G01*
G37*
G36*
G01*
X72435000Y-71370000D02*
X72435000Y-70870000D01*
G75*
G02*
X72660000Y-70645000I225000J0D01*
G01*
X73110000Y-70645000D01*
G75*
G02*
X73335000Y-70870000I0J-225000D01*
G01*
X73335000Y-71370000D01*
G75*
G02*
X73110000Y-71595000I-225000J0D01*
G01*
X72660000Y-71595000D01*
G75*
G02*
X72435000Y-71370000I0J225000D01*
G01*
G37*
G36*
G01*
X73985000Y-71370000D02*
X73985000Y-70870000D01*
G75*
G02*
X74210000Y-70645000I225000J0D01*
G01*
X74660000Y-70645000D01*
G75*
G02*
X74885000Y-70870000I0J-225000D01*
G01*
X74885000Y-71370000D01*
G75*
G02*
X74660000Y-71595000I-225000J0D01*
G01*
X74210000Y-71595000D01*
G75*
G02*
X73985000Y-71370000I0J225000D01*
G01*
G37*
M02*
