M48
; DRILL file {KiCad (5.1.10)-1} date 10/13/21 01:49:18
; FORMAT={-:-/ absolute / inch / decimal}
; #@! TF.CreationDate,2021-10-13T01:49:18-04:00
; #@! TF.GenerationSoftware,Kicad,Pcbnew,(5.1.10)-1
; #@! TF.FileFunction,Plated,1,16,PTH
FMAT,2
INCH
T1C0.0157
T2C0.0236
T3C0.0394
T4C0.0400
T5C0.0402
%
G90
G05
T1
X0.95Y-3.8
X1.1Y-4.175
X1.125Y-4.375
X1.15Y-3.15
X1.2Y-2.95
X1.225Y-3.925
X1.225Y-4.6
X1.325Y-4.175
X1.325Y-4.7
X1.4Y-4.9
X1.4044Y-4.7956
X1.45Y-2.8
X1.45Y-4.35
X1.475Y-4.75
X1.475Y-5.125
X1.55Y-2.65
X1.55Y-2.7
X1.6Y-2.75
X1.6Y-4.95
X1.625Y-2.475
X1.6267Y-2.7765
X1.675Y-2.85
X1.7Y-2.65
X1.7Y-5.05
X1.725Y-2.725
X1.8Y-2.65
X1.8Y-2.8
X1.825Y-2.55
X1.85Y-2.425
X1.9Y-4.05
X1.925Y-2.175
X2.0Y-2.1
X2.0Y-4.15
X2.05Y-5.65
X2.1Y-2.25
X2.1Y-2.3267
X2.125Y-5.35
X2.15Y-2.6767
X2.1911Y-2.2589
X2.25Y-2.15
X2.25Y-2.3
X2.25Y-2.35
X2.3Y-2.1233
X2.3Y-3.9267
X2.3397Y-2.05
X2.35Y-2.3064
X2.3767Y-2.2517
X2.4241Y-2.2308
X2.425Y-2.1767
X2.425Y-5.975
X2.45Y-2.275
X2.4634Y-2.6891
X2.475Y-2.4
X2.475Y-5.875
X2.4958Y-2.5432
X2.5Y-2.8192
X2.5Y-3.25
X2.5Y-5.95
X2.5Y-6.0
X2.55Y-2.05
X2.55Y-2.65
X2.55Y-3.3
X2.55Y-5.675
X2.575Y-5.8
X2.6Y-2.7
X2.6Y-3.4
X2.625Y-2.25
X2.625Y-5.725
X2.65Y-1.9967
X2.65Y-2.05
X2.65Y-2.65
X2.65Y-3.25
X2.65Y-3.6
X2.65Y-5.775
X2.6983Y-6.0233
X2.7Y-3.65
X2.7Y-3.7
X2.7Y-3.85
X2.725Y-2.05
X2.725Y-2.35
X2.725Y-5.7483
X2.75Y-3.9
X2.7517Y-6.05
X2.775Y-2.05
X2.775Y-4.05
X2.8Y-2.65
X2.8Y-2.7
X2.8Y-2.75
X2.8Y-2.8
X2.8Y-3.9
X2.8Y-4.6
X2.8Y-5.9483
X2.8238Y-5.6721
X2.85Y-4.175
X2.875Y-5.7
X2.9Y-4.025
X2.95Y-2.7
X2.95Y-5.6767
X2.9564Y-3.8064
X2.975Y-4.275
X2.975Y-4.5
X3.0Y-2.4635
X3.0135Y-2.5213
X3.025Y-2.0733
X3.05Y-5.9733
X3.0654Y-2.0612
X3.081Y-5.856
X3.1Y-2.6
X3.1Y-2.65
X3.1Y-2.75
X3.1Y-3.95
X3.1Y-4.0
X3.1Y-6.0
X3.125Y-2.1267
X3.15Y-2.55
X3.15Y-2.6
X3.15Y-2.75
X3.15Y-4.275
X3.175Y-3.95
X3.2Y-2.6767
X3.2Y-2.75
X3.2Y-4.775
X3.25Y-2.725
X3.3Y-2.45
X3.3Y-4.25
X3.35Y-2.6
X3.35Y-3.85
X3.35Y-4.75
X3.35Y-5.7
X3.35Y-5.8
X3.375Y-2.55
X3.3767Y-2.7
X3.4Y-5.55
X3.4Y-5.7461
X3.425Y-5.6
X3.45Y-2.65
X3.45Y-4.925
X3.4507Y-5.6507
X3.4622Y-5.4378
X3.55Y-5.35
X3.65Y-5.3464
X3.675Y-5.525
X3.7Y-4.45
X3.7Y-4.75
X3.7Y-5.425
X3.75Y-4.325
X3.75Y-4.85
X3.75Y-5.5813
X3.825Y-3.8
X3.9Y-2.75
X3.9Y-2.8033
X3.9Y-4.8233
X3.9Y-4.9
X3.95Y-2.65
X3.9711Y-5.075
X3.9978Y-5.1978
X4.0Y-3.875
X4.025Y-5.075
X4.05Y-3.7125
X4.05Y-3.75
X4.075Y-5.35
X4.0904Y-3.6745
X4.0957Y-3.5748
X4.1Y-3.25
X4.1Y-3.425
X4.1Y-4.0
X4.1Y-4.15
X4.125Y-3.5
X4.125Y-5.275
X4.15Y-3.3
X4.15Y-3.65
T2
X2.5451Y-5.8726
X2.5451Y-6.0372
X2.8852Y-5.8726
X2.8852Y-6.0372
T3
X1.275Y-5.325
X1.375Y-5.425
X4.2Y-5.2
X4.2Y-5.325
X4.325Y-2.875
X4.4Y-3.0
T4
X2.6116Y-1.8
X2.6116Y-1.9
X2.7116Y-1.8
X2.7116Y-1.9
X2.8116Y-1.8
X2.8116Y-1.9
X4.1644Y-3.8595
X4.2217Y-3.9414
X4.2463Y-3.8021
X4.3036Y-3.884
X4.3282Y-3.7448
X4.3855Y-3.8267
T5
X1.7Y-3.2098
X1.7Y-3.8
T0
M30
