%TF.GenerationSoftware,KiCad,Pcbnew,(5.1.10)-1*%
%TF.CreationDate,2021-10-13T15:42:42-04:00*%
%TF.ProjectId,TFTS-HTH-SAO-Scout-IS,54465453-2d48-4544-982d-53414f2d5363,rev?*%
%TF.SameCoordinates,Original*%
%TF.FileFunction,Legend,Top*%
%TF.FilePolarity,Positive*%
%FSLAX46Y46*%
G04 Gerber Fmt 4.6, Leading zero omitted, Abs format (unit mm)*
G04 Created by KiCad (PCBNEW (5.1.10)-1) date 2021-10-13 15:42:42*
%MOMM*%
%LPD*%
G01*
G04 APERTURE LIST*
%ADD10C,0.010000*%
G04 APERTURE END LIST*
D10*
%TO.C,G\u002A\u002A\u002A*%
G36*
X151017887Y-80107016D02*
G01*
X151090138Y-80112734D01*
X151150074Y-80126135D01*
X151212683Y-80150118D01*
X151261249Y-80172442D01*
X151416202Y-80266714D01*
X151540979Y-80384945D01*
X151635500Y-80521880D01*
X151699687Y-80672268D01*
X151733459Y-80830856D01*
X151736738Y-80992392D01*
X151709444Y-81151622D01*
X151651498Y-81303294D01*
X151562822Y-81442157D01*
X151443336Y-81562956D01*
X151292960Y-81660440D01*
X151283748Y-81665042D01*
X151210395Y-81698781D01*
X151147144Y-81720025D01*
X151078725Y-81732122D01*
X150989872Y-81738423D01*
X150941169Y-81740198D01*
X150829027Y-81741281D01*
X150744720Y-81735327D01*
X150674107Y-81720758D01*
X150626702Y-81705128D01*
X150461479Y-81623027D01*
X150323748Y-81512248D01*
X150215485Y-81377892D01*
X150138666Y-81225059D01*
X150095268Y-81058852D01*
X150087264Y-80884371D01*
X150116633Y-80706717D01*
X150177739Y-80546116D01*
X150262090Y-80414375D01*
X150374950Y-80295465D01*
X150504568Y-80200376D01*
X150595613Y-80155198D01*
X150672150Y-80129380D01*
X150751285Y-80114169D01*
X150848349Y-80107230D01*
X150918334Y-80106079D01*
X151017887Y-80107016D01*
G37*
X151017887Y-80107016D02*
X151090138Y-80112734D01*
X151150074Y-80126135D01*
X151212683Y-80150118D01*
X151261249Y-80172442D01*
X151416202Y-80266714D01*
X151540979Y-80384945D01*
X151635500Y-80521880D01*
X151699687Y-80672268D01*
X151733459Y-80830856D01*
X151736738Y-80992392D01*
X151709444Y-81151622D01*
X151651498Y-81303294D01*
X151562822Y-81442157D01*
X151443336Y-81562956D01*
X151292960Y-81660440D01*
X151283748Y-81665042D01*
X151210395Y-81698781D01*
X151147144Y-81720025D01*
X151078725Y-81732122D01*
X150989872Y-81738423D01*
X150941169Y-81740198D01*
X150829027Y-81741281D01*
X150744720Y-81735327D01*
X150674107Y-81720758D01*
X150626702Y-81705128D01*
X150461479Y-81623027D01*
X150323748Y-81512248D01*
X150215485Y-81377892D01*
X150138666Y-81225059D01*
X150095268Y-81058852D01*
X150087264Y-80884371D01*
X150116633Y-80706717D01*
X150177739Y-80546116D01*
X150262090Y-80414375D01*
X150374950Y-80295465D01*
X150504568Y-80200376D01*
X150595613Y-80155198D01*
X150672150Y-80129380D01*
X150751285Y-80114169D01*
X150848349Y-80107230D01*
X150918334Y-80106079D01*
X151017887Y-80107016D01*
G36*
X150133968Y-83981694D02*
G01*
X150299117Y-84051115D01*
X150454199Y-84161015D01*
X150507436Y-84210547D01*
X150608650Y-84325188D01*
X150677338Y-84440187D01*
X150718028Y-84566859D01*
X150735249Y-84716520D01*
X150736582Y-84783084D01*
X150727850Y-84941828D01*
X150698343Y-85073406D01*
X150643093Y-85189924D01*
X150557134Y-85303484D01*
X150496936Y-85367103D01*
X150405560Y-85451687D01*
X150324935Y-85509525D01*
X150242717Y-85549348D01*
X150235178Y-85552212D01*
X150085008Y-85593105D01*
X149927666Y-85609704D01*
X149779126Y-85600943D01*
X149714048Y-85586973D01*
X149535442Y-85517026D01*
X149382484Y-85416262D01*
X149258340Y-85288193D01*
X149166176Y-85136334D01*
X149109158Y-84964199D01*
X149098649Y-84903941D01*
X149092891Y-84717342D01*
X149125804Y-84541004D01*
X149194118Y-84379430D01*
X149294564Y-84237125D01*
X149423873Y-84118592D01*
X149578776Y-84028336D01*
X149756003Y-83970860D01*
X149779306Y-83966252D01*
X149960210Y-83953243D01*
X150133968Y-83981694D01*
G37*
X150133968Y-83981694D02*
X150299117Y-84051115D01*
X150454199Y-84161015D01*
X150507436Y-84210547D01*
X150608650Y-84325188D01*
X150677338Y-84440187D01*
X150718028Y-84566859D01*
X150735249Y-84716520D01*
X150736582Y-84783084D01*
X150727850Y-84941828D01*
X150698343Y-85073406D01*
X150643093Y-85189924D01*
X150557134Y-85303484D01*
X150496936Y-85367103D01*
X150405560Y-85451687D01*
X150324935Y-85509525D01*
X150242717Y-85549348D01*
X150235178Y-85552212D01*
X150085008Y-85593105D01*
X149927666Y-85609704D01*
X149779126Y-85600943D01*
X149714048Y-85586973D01*
X149535442Y-85517026D01*
X149382484Y-85416262D01*
X149258340Y-85288193D01*
X149166176Y-85136334D01*
X149109158Y-84964199D01*
X149098649Y-84903941D01*
X149092891Y-84717342D01*
X149125804Y-84541004D01*
X149194118Y-84379430D01*
X149294564Y-84237125D01*
X149423873Y-84118592D01*
X149578776Y-84028336D01*
X149756003Y-83970860D01*
X149779306Y-83966252D01*
X149960210Y-83953243D01*
X150133968Y-83981694D01*
G36*
X142059832Y-84635699D02*
G01*
X142135031Y-84639570D01*
X142192679Y-84648814D01*
X142245163Y-84665714D01*
X142304872Y-84692557D01*
X142327706Y-84703707D01*
X142478687Y-84799681D01*
X142602952Y-84926694D01*
X142702927Y-85087293D01*
X142712662Y-85107365D01*
X142745705Y-85181680D01*
X142765519Y-85243177D01*
X142775243Y-85307849D01*
X142778020Y-85391689D01*
X142777845Y-85439250D01*
X142770033Y-85582947D01*
X142746283Y-85701538D01*
X142701820Y-85810755D01*
X142631870Y-85926326D01*
X142628463Y-85931319D01*
X142552142Y-86020377D01*
X142451463Y-86107134D01*
X142341046Y-86180679D01*
X142235508Y-86230099D01*
X142222553Y-86234291D01*
X142101197Y-86258971D01*
X141963960Y-86267858D01*
X141828814Y-86260892D01*
X141713732Y-86238016D01*
X141707370Y-86235976D01*
X141572084Y-86181577D01*
X141462106Y-86112697D01*
X141360579Y-86018650D01*
X141354891Y-86012520D01*
X141245374Y-85865009D01*
X141172834Y-85704649D01*
X141136245Y-85536981D01*
X141134582Y-85367544D01*
X141166821Y-85201877D01*
X141231936Y-85045521D01*
X141328902Y-84904014D01*
X141456695Y-84782897D01*
X141598634Y-84695208D01*
X141657254Y-84668182D01*
X141708900Y-84650676D01*
X141765592Y-84640654D01*
X141839347Y-84636081D01*
X141942183Y-84634923D01*
X141954695Y-84634917D01*
X142059832Y-84635699D01*
G37*
X142059832Y-84635699D02*
X142135031Y-84639570D01*
X142192679Y-84648814D01*
X142245163Y-84665714D01*
X142304872Y-84692557D01*
X142327706Y-84703707D01*
X142478687Y-84799681D01*
X142602952Y-84926694D01*
X142702927Y-85087293D01*
X142712662Y-85107365D01*
X142745705Y-85181680D01*
X142765519Y-85243177D01*
X142775243Y-85307849D01*
X142778020Y-85391689D01*
X142777845Y-85439250D01*
X142770033Y-85582947D01*
X142746283Y-85701538D01*
X142701820Y-85810755D01*
X142631870Y-85926326D01*
X142628463Y-85931319D01*
X142552142Y-86020377D01*
X142451463Y-86107134D01*
X142341046Y-86180679D01*
X142235508Y-86230099D01*
X142222553Y-86234291D01*
X142101197Y-86258971D01*
X141963960Y-86267858D01*
X141828814Y-86260892D01*
X141713732Y-86238016D01*
X141707370Y-86235976D01*
X141572084Y-86181577D01*
X141462106Y-86112697D01*
X141360579Y-86018650D01*
X141354891Y-86012520D01*
X141245374Y-85865009D01*
X141172834Y-85704649D01*
X141136245Y-85536981D01*
X141134582Y-85367544D01*
X141166821Y-85201877D01*
X141231936Y-85045521D01*
X141328902Y-84904014D01*
X141456695Y-84782897D01*
X141598634Y-84695208D01*
X141657254Y-84668182D01*
X141708900Y-84650676D01*
X141765592Y-84640654D01*
X141839347Y-84636081D01*
X141942183Y-84634923D01*
X141954695Y-84634917D01*
X142059832Y-84635699D01*
G36*
X145625321Y-86094400D02*
G01*
X145777987Y-86150994D01*
X145918583Y-86238632D01*
X146041995Y-86357369D01*
X146143111Y-86507261D01*
X146162725Y-86546252D01*
X146194236Y-86616468D01*
X146214024Y-86674982D01*
X146224774Y-86735915D01*
X146229170Y-86813388D01*
X146229917Y-86899750D01*
X146228496Y-87003882D01*
X146222694Y-87079284D01*
X146210199Y-87139508D01*
X146188701Y-87198106D01*
X146173189Y-87232449D01*
X146079711Y-87384684D01*
X145954527Y-87517114D01*
X145806999Y-87620199D01*
X145777631Y-87635476D01*
X145704536Y-87669132D01*
X145641617Y-87690248D01*
X145573578Y-87702163D01*
X145485125Y-87708213D01*
X145436741Y-87709850D01*
X145333160Y-87711112D01*
X145257419Y-87706589D01*
X145195197Y-87694313D01*
X145132174Y-87672316D01*
X145116391Y-87665814D01*
X144944841Y-87573776D01*
X144805091Y-87454311D01*
X144695260Y-87305643D01*
X144655861Y-87230374D01*
X144629894Y-87170026D01*
X144613423Y-87114464D01*
X144604364Y-87050947D01*
X144600636Y-86966739D01*
X144600084Y-86889167D01*
X144601611Y-86779898D01*
X144607393Y-86700676D01*
X144619226Y-86639284D01*
X144638908Y-86583507D01*
X144648113Y-86562770D01*
X144742129Y-86403622D01*
X144859861Y-86275127D01*
X144996196Y-86177341D01*
X145146022Y-86110319D01*
X145304226Y-86074118D01*
X145465697Y-86068793D01*
X145625321Y-86094400D01*
G37*
X145625321Y-86094400D02*
X145777987Y-86150994D01*
X145918583Y-86238632D01*
X146041995Y-86357369D01*
X146143111Y-86507261D01*
X146162725Y-86546252D01*
X146194236Y-86616468D01*
X146214024Y-86674982D01*
X146224774Y-86735915D01*
X146229170Y-86813388D01*
X146229917Y-86899750D01*
X146228496Y-87003882D01*
X146222694Y-87079284D01*
X146210199Y-87139508D01*
X146188701Y-87198106D01*
X146173189Y-87232449D01*
X146079711Y-87384684D01*
X145954527Y-87517114D01*
X145806999Y-87620199D01*
X145777631Y-87635476D01*
X145704536Y-87669132D01*
X145641617Y-87690248D01*
X145573578Y-87702163D01*
X145485125Y-87708213D01*
X145436741Y-87709850D01*
X145333160Y-87711112D01*
X145257419Y-87706589D01*
X145195197Y-87694313D01*
X145132174Y-87672316D01*
X145116391Y-87665814D01*
X144944841Y-87573776D01*
X144805091Y-87454311D01*
X144695260Y-87305643D01*
X144655861Y-87230374D01*
X144629894Y-87170026D01*
X144613423Y-87114464D01*
X144604364Y-87050947D01*
X144600636Y-86966739D01*
X144600084Y-86889167D01*
X144601611Y-86779898D01*
X144607393Y-86700676D01*
X144619226Y-86639284D01*
X144638908Y-86583507D01*
X144648113Y-86562770D01*
X144742129Y-86403622D01*
X144859861Y-86275127D01*
X144996196Y-86177341D01*
X145146022Y-86110319D01*
X145304226Y-86074118D01*
X145465697Y-86068793D01*
X145625321Y-86094400D01*
G36*
X156586341Y-72754288D02*
G01*
X156621941Y-72799012D01*
X156675522Y-72872020D01*
X156744544Y-72969704D01*
X156826469Y-73088454D01*
X156918755Y-73224663D01*
X157018864Y-73374721D01*
X157047991Y-73418789D01*
X157163254Y-73593500D01*
X157283242Y-73775313D01*
X157403130Y-73956922D01*
X157518094Y-74131021D01*
X157623309Y-74290302D01*
X157713951Y-74427460D01*
X157773326Y-74517250D01*
X157940004Y-74765324D01*
X158130657Y-75042171D01*
X158342390Y-75343850D01*
X158572308Y-75666420D01*
X158817519Y-76005940D01*
X159075127Y-76358468D01*
X159342239Y-76720065D01*
X159615960Y-77086789D01*
X159893396Y-77454698D01*
X160171653Y-77819853D01*
X160447837Y-78178312D01*
X160692956Y-78492860D01*
X161104794Y-79018302D01*
X161091441Y-80736526D01*
X161089146Y-81018302D01*
X161086657Y-81299400D01*
X161084026Y-81575243D01*
X161081306Y-81841257D01*
X161078547Y-82092867D01*
X161075804Y-82325496D01*
X161073127Y-82534570D01*
X161070569Y-82715514D01*
X161068183Y-82863751D01*
X161066019Y-82974706D01*
X161065809Y-82983917D01*
X161053530Y-83513084D01*
X161222977Y-83343750D01*
X161392424Y-83174417D01*
X161414961Y-81324432D01*
X161418442Y-81048344D01*
X161421997Y-80784485D01*
X161425571Y-80535911D01*
X161429111Y-80305675D01*
X161432562Y-80096830D01*
X161435870Y-79912433D01*
X161438979Y-79755535D01*
X161441836Y-79629193D01*
X161444386Y-79536459D01*
X161446575Y-79480388D01*
X161448120Y-79463825D01*
X161466891Y-79470825D01*
X161497660Y-79502373D01*
X161499007Y-79504060D01*
X161520417Y-79530927D01*
X161565368Y-79587199D01*
X161630944Y-79669233D01*
X161714232Y-79773384D01*
X161812317Y-79896008D01*
X161922284Y-80033462D01*
X162041219Y-80182101D01*
X162123700Y-80285167D01*
X162708127Y-81015417D01*
X162708114Y-81290584D01*
X162707073Y-81462367D01*
X162704060Y-81672428D01*
X162699223Y-81916764D01*
X162692708Y-82191371D01*
X162684663Y-82492248D01*
X162675234Y-82815391D01*
X162664569Y-83156798D01*
X162652814Y-83512465D01*
X162640116Y-83878391D01*
X162626622Y-84250571D01*
X162612480Y-84625004D01*
X162597836Y-84997687D01*
X162582837Y-85364616D01*
X162567631Y-85721789D01*
X162552363Y-86065204D01*
X162537181Y-86390856D01*
X162522233Y-86694745D01*
X162507664Y-86972866D01*
X162493622Y-87221218D01*
X162485476Y-87354834D01*
X162471945Y-87561655D01*
X162456632Y-87781919D01*
X162439914Y-88011174D01*
X162422168Y-88244970D01*
X162403773Y-88478856D01*
X162385105Y-88708382D01*
X162366543Y-88929098D01*
X162348464Y-89136553D01*
X162331245Y-89326295D01*
X162315264Y-89493876D01*
X162300899Y-89634844D01*
X162288528Y-89744748D01*
X162278527Y-89819139D01*
X162274466Y-89841946D01*
X162252468Y-89869107D01*
X162193726Y-89915950D01*
X162098103Y-89982574D01*
X161965461Y-90069073D01*
X161814793Y-90163702D01*
X161690735Y-90240026D01*
X161578348Y-90308064D01*
X161482672Y-90364856D01*
X161408746Y-90407441D01*
X161361608Y-90432857D01*
X161346571Y-90438839D01*
X161343405Y-90417501D01*
X161340498Y-90357585D01*
X161337898Y-90262845D01*
X161335653Y-90137036D01*
X161333808Y-89983911D01*
X161332412Y-89807227D01*
X161331510Y-89610736D01*
X161331150Y-89398195D01*
X161331287Y-89217500D01*
X161333516Y-88000417D01*
X161006440Y-88326651D01*
X160997376Y-89501256D01*
X160988311Y-90675860D01*
X160647031Y-90885049D01*
X160540388Y-90950065D01*
X160415725Y-91025482D01*
X160277423Y-91108702D01*
X160129866Y-91197125D01*
X159977437Y-91288151D01*
X159824517Y-91379183D01*
X159675491Y-91467620D01*
X159534741Y-91550862D01*
X159406650Y-91626312D01*
X159295600Y-91691369D01*
X159205975Y-91743435D01*
X159142156Y-91779910D01*
X159108528Y-91798194D01*
X159104540Y-91799834D01*
X159099455Y-91780008D01*
X159093262Y-91725814D01*
X159086691Y-91645176D01*
X159080474Y-91546021D01*
X159079613Y-91529959D01*
X159072353Y-91410576D01*
X159062422Y-91274227D01*
X159050578Y-91128993D01*
X159037580Y-90982952D01*
X159024188Y-90844184D01*
X159011159Y-90720771D01*
X158999252Y-90620791D01*
X158989226Y-90552325D01*
X158986484Y-90538139D01*
X158972250Y-90472361D01*
X158347834Y-90917091D01*
X158194738Y-91025696D01*
X158023508Y-91146397D01*
X157836916Y-91277290D01*
X157637732Y-91416470D01*
X157428728Y-91562034D01*
X157212675Y-91712079D01*
X156992345Y-91864701D01*
X156770509Y-92017996D01*
X156549939Y-92170060D01*
X156333406Y-92318990D01*
X156123681Y-92462882D01*
X155923536Y-92599833D01*
X155735743Y-92727938D01*
X155563071Y-92845295D01*
X155408294Y-92949999D01*
X155274183Y-93040146D01*
X155163508Y-93113834D01*
X155079041Y-93169158D01*
X155023554Y-93204215D01*
X154999818Y-93217101D01*
X154999404Y-93217121D01*
X154986929Y-93199677D01*
X154955332Y-93151132D01*
X154907733Y-93076405D01*
X154847251Y-92980415D01*
X154777006Y-92868082D01*
X154722972Y-92781192D01*
X154453026Y-92346141D01*
X154720154Y-91527945D01*
X154778079Y-91350689D01*
X154831858Y-91186429D01*
X154880093Y-91039420D01*
X154921380Y-90913919D01*
X154954320Y-90814180D01*
X154977511Y-90744461D01*
X154989553Y-90709016D01*
X154990937Y-90705385D01*
X155012163Y-90702851D01*
X155069315Y-90698295D01*
X155156059Y-90692160D01*
X155266062Y-90684890D01*
X155392987Y-90676928D01*
X155425656Y-90674939D01*
X155856719Y-90648860D01*
X155752901Y-90556687D01*
X155681030Y-90493529D01*
X155606136Y-90428710D01*
X155563098Y-90392047D01*
X155477112Y-90319578D01*
X155118598Y-90352040D01*
X154999687Y-90363549D01*
X154895811Y-90375009D01*
X154814174Y-90385513D01*
X154761980Y-90394152D01*
X154746390Y-90398960D01*
X154736983Y-90421690D01*
X154716086Y-90480229D01*
X154685206Y-90570095D01*
X154645853Y-90686808D01*
X154599535Y-90825888D01*
X154547762Y-90982855D01*
X154492042Y-91153229D01*
X154483098Y-91180709D01*
X154427052Y-91352073D01*
X154374786Y-91510110D01*
X154327788Y-91650448D01*
X154287549Y-91768717D01*
X154255557Y-91860545D01*
X154233303Y-91921561D01*
X154222276Y-91947395D01*
X154221625Y-91947973D01*
X154208942Y-91930423D01*
X154175434Y-91879440D01*
X154122675Y-91797513D01*
X154052238Y-91687132D01*
X153965697Y-91550786D01*
X153864626Y-91390964D01*
X153750598Y-91210155D01*
X153625187Y-91010850D01*
X153489967Y-90795536D01*
X153346511Y-90566704D01*
X153196393Y-90326843D01*
X153162000Y-90271834D01*
X153007375Y-90024699D01*
X152856769Y-89784420D01*
X152712006Y-89553883D01*
X152574910Y-89335970D01*
X152447301Y-89133565D01*
X152331004Y-88949552D01*
X152227841Y-88786815D01*
X152139635Y-88648238D01*
X152068208Y-88536704D01*
X152015384Y-88455097D01*
X151982984Y-88406301D01*
X151981330Y-88403902D01*
X151848410Y-88212084D01*
X151907247Y-88166249D01*
X151930979Y-88148814D01*
X151987178Y-88108114D01*
X152073903Y-88045543D01*
X152189211Y-87962497D01*
X152331160Y-87860370D01*
X152497810Y-87740557D01*
X152687217Y-87604454D01*
X152897440Y-87453455D01*
X153126538Y-87288956D01*
X153372568Y-87112352D01*
X153633589Y-86925037D01*
X153907659Y-86728406D01*
X154192836Y-86523854D01*
X154487178Y-86312777D01*
X154537834Y-86276456D01*
X154833313Y-86064581D01*
X155119825Y-85859109D01*
X155395438Y-85661424D01*
X155658222Y-85472913D01*
X155906247Y-85294962D01*
X156137582Y-85128956D01*
X156350296Y-84976282D01*
X156542459Y-84838325D01*
X156712140Y-84716472D01*
X156857409Y-84612107D01*
X156976334Y-84526617D01*
X157066986Y-84461388D01*
X157127433Y-84417806D01*
X157155745Y-84397256D01*
X157157262Y-84396124D01*
X157204940Y-84359750D01*
X157130456Y-83862334D01*
X157116803Y-83772178D01*
X157100654Y-83667484D01*
X157081775Y-83546816D01*
X157059930Y-83408741D01*
X157034885Y-83251826D01*
X157006406Y-83074636D01*
X156974257Y-82875739D01*
X156938205Y-82653700D01*
X156898014Y-82407087D01*
X156853450Y-82134465D01*
X156804278Y-81834400D01*
X156750264Y-81505460D01*
X156691173Y-81146210D01*
X156626770Y-80755217D01*
X156556820Y-80331047D01*
X156481089Y-79872266D01*
X156399343Y-79377442D01*
X156311346Y-78845140D01*
X156216865Y-78273927D01*
X156117106Y-77671084D01*
X156050349Y-77267607D01*
X155990224Y-76903789D01*
X155936414Y-76577529D01*
X155888603Y-76286728D01*
X155846474Y-76029285D01*
X155809710Y-75803100D01*
X155777995Y-75606072D01*
X155751012Y-75436102D01*
X155728444Y-75291089D01*
X155709974Y-75168932D01*
X155695286Y-75067532D01*
X155684063Y-74984789D01*
X155675988Y-74918601D01*
X155670745Y-74866869D01*
X155668016Y-74827493D01*
X155667486Y-74798371D01*
X155668838Y-74777405D01*
X155671754Y-74762493D01*
X155675919Y-74751536D01*
X155676642Y-74750084D01*
X155695410Y-74710919D01*
X155727959Y-74640406D01*
X155770937Y-74545907D01*
X155820996Y-74434786D01*
X155873751Y-74316734D01*
X155925057Y-74204166D01*
X155970938Y-74108610D01*
X156008643Y-74035383D01*
X156035422Y-73989796D01*
X156048524Y-73977166D01*
X156049030Y-73978068D01*
X156053538Y-74002342D01*
X156064229Y-74066024D01*
X156080719Y-74166704D01*
X156102624Y-74301967D01*
X156129559Y-74469404D01*
X156161138Y-74666600D01*
X156196979Y-74891145D01*
X156236695Y-75140627D01*
X156279902Y-75412632D01*
X156326216Y-75704750D01*
X156375252Y-76014568D01*
X156426626Y-76339674D01*
X156479952Y-76677656D01*
X156516198Y-76907672D01*
X156570509Y-77252301D01*
X156623048Y-77585301D01*
X156673437Y-77904293D01*
X156721297Y-78206893D01*
X156766250Y-78490721D01*
X156807916Y-78753396D01*
X156845917Y-78992534D01*
X156879874Y-79205756D01*
X156909409Y-79390680D01*
X156934143Y-79544923D01*
X156953697Y-79666105D01*
X156967692Y-79751845D01*
X156975751Y-79799759D01*
X156977644Y-79809520D01*
X156996212Y-79820505D01*
X157048633Y-79851371D01*
X157132255Y-79900560D01*
X157244429Y-79966514D01*
X157382504Y-80047675D01*
X157543828Y-80142485D01*
X157725752Y-80249386D01*
X157925624Y-80366821D01*
X158140793Y-80493232D01*
X158368610Y-80627060D01*
X158546721Y-80731681D01*
X160110858Y-81650417D01*
X160096980Y-82412417D01*
X160093042Y-82626886D01*
X160088671Y-82862018D01*
X160084091Y-83105886D01*
X160079529Y-83346564D01*
X160075209Y-83572126D01*
X160071356Y-83770644D01*
X160070387Y-83820000D01*
X160057673Y-84465584D01*
X160222690Y-84302726D01*
X160387707Y-84139869D01*
X160413904Y-83127976D01*
X160419437Y-82911013D01*
X160424778Y-82695519D01*
X160429786Y-82487552D01*
X160434322Y-82293172D01*
X160438246Y-82118439D01*
X160441419Y-81969413D01*
X160443701Y-81852153D01*
X160444735Y-81789303D01*
X160449369Y-81462523D01*
X158874726Y-80537366D01*
X158582839Y-80365656D01*
X158325854Y-80213987D01*
X158101990Y-80081269D01*
X157909468Y-79966411D01*
X157746508Y-79868321D01*
X157611330Y-79785910D01*
X157502156Y-79718085D01*
X157417204Y-79663756D01*
X157354694Y-79621832D01*
X157312849Y-79591222D01*
X157289886Y-79570835D01*
X157284194Y-79562397D01*
X157279378Y-79536857D01*
X157268482Y-79472334D01*
X157251954Y-79371672D01*
X157230241Y-79237716D01*
X157203792Y-79073311D01*
X157173054Y-78881299D01*
X157138474Y-78664526D01*
X157100501Y-78425836D01*
X157059582Y-78168073D01*
X157016165Y-77894081D01*
X156970697Y-77606705D01*
X156923627Y-77308789D01*
X156875401Y-77003177D01*
X156826468Y-76692713D01*
X156777276Y-76380242D01*
X156728271Y-76068608D01*
X156679903Y-75760655D01*
X156632617Y-75459228D01*
X156586863Y-75167170D01*
X156543088Y-74887327D01*
X156501739Y-74622542D01*
X156463265Y-74375659D01*
X156428112Y-74149523D01*
X156396729Y-73946978D01*
X156369564Y-73770869D01*
X156347063Y-73624039D01*
X156329675Y-73509333D01*
X156317848Y-73429595D01*
X156312029Y-73387670D01*
X156311538Y-73383098D01*
X156318339Y-73348508D01*
X156339037Y-73284149D01*
X156370073Y-73198818D01*
X156407884Y-73101312D01*
X156448911Y-73000427D01*
X156489591Y-72904961D01*
X156526366Y-72823710D01*
X156555673Y-72765472D01*
X156571263Y-72741455D01*
X156586341Y-72754288D01*
G37*
X156586341Y-72754288D02*
X156621941Y-72799012D01*
X156675522Y-72872020D01*
X156744544Y-72969704D01*
X156826469Y-73088454D01*
X156918755Y-73224663D01*
X157018864Y-73374721D01*
X157047991Y-73418789D01*
X157163254Y-73593500D01*
X157283242Y-73775313D01*
X157403130Y-73956922D01*
X157518094Y-74131021D01*
X157623309Y-74290302D01*
X157713951Y-74427460D01*
X157773326Y-74517250D01*
X157940004Y-74765324D01*
X158130657Y-75042171D01*
X158342390Y-75343850D01*
X158572308Y-75666420D01*
X158817519Y-76005940D01*
X159075127Y-76358468D01*
X159342239Y-76720065D01*
X159615960Y-77086789D01*
X159893396Y-77454698D01*
X160171653Y-77819853D01*
X160447837Y-78178312D01*
X160692956Y-78492860D01*
X161104794Y-79018302D01*
X161091441Y-80736526D01*
X161089146Y-81018302D01*
X161086657Y-81299400D01*
X161084026Y-81575243D01*
X161081306Y-81841257D01*
X161078547Y-82092867D01*
X161075804Y-82325496D01*
X161073127Y-82534570D01*
X161070569Y-82715514D01*
X161068183Y-82863751D01*
X161066019Y-82974706D01*
X161065809Y-82983917D01*
X161053530Y-83513084D01*
X161222977Y-83343750D01*
X161392424Y-83174417D01*
X161414961Y-81324432D01*
X161418442Y-81048344D01*
X161421997Y-80784485D01*
X161425571Y-80535911D01*
X161429111Y-80305675D01*
X161432562Y-80096830D01*
X161435870Y-79912433D01*
X161438979Y-79755535D01*
X161441836Y-79629193D01*
X161444386Y-79536459D01*
X161446575Y-79480388D01*
X161448120Y-79463825D01*
X161466891Y-79470825D01*
X161497660Y-79502373D01*
X161499007Y-79504060D01*
X161520417Y-79530927D01*
X161565368Y-79587199D01*
X161630944Y-79669233D01*
X161714232Y-79773384D01*
X161812317Y-79896008D01*
X161922284Y-80033462D01*
X162041219Y-80182101D01*
X162123700Y-80285167D01*
X162708127Y-81015417D01*
X162708114Y-81290584D01*
X162707073Y-81462367D01*
X162704060Y-81672428D01*
X162699223Y-81916764D01*
X162692708Y-82191371D01*
X162684663Y-82492248D01*
X162675234Y-82815391D01*
X162664569Y-83156798D01*
X162652814Y-83512465D01*
X162640116Y-83878391D01*
X162626622Y-84250571D01*
X162612480Y-84625004D01*
X162597836Y-84997687D01*
X162582837Y-85364616D01*
X162567631Y-85721789D01*
X162552363Y-86065204D01*
X162537181Y-86390856D01*
X162522233Y-86694745D01*
X162507664Y-86972866D01*
X162493622Y-87221218D01*
X162485476Y-87354834D01*
X162471945Y-87561655D01*
X162456632Y-87781919D01*
X162439914Y-88011174D01*
X162422168Y-88244970D01*
X162403773Y-88478856D01*
X162385105Y-88708382D01*
X162366543Y-88929098D01*
X162348464Y-89136553D01*
X162331245Y-89326295D01*
X162315264Y-89493876D01*
X162300899Y-89634844D01*
X162288528Y-89744748D01*
X162278527Y-89819139D01*
X162274466Y-89841946D01*
X162252468Y-89869107D01*
X162193726Y-89915950D01*
X162098103Y-89982574D01*
X161965461Y-90069073D01*
X161814793Y-90163702D01*
X161690735Y-90240026D01*
X161578348Y-90308064D01*
X161482672Y-90364856D01*
X161408746Y-90407441D01*
X161361608Y-90432857D01*
X161346571Y-90438839D01*
X161343405Y-90417501D01*
X161340498Y-90357585D01*
X161337898Y-90262845D01*
X161335653Y-90137036D01*
X161333808Y-89983911D01*
X161332412Y-89807227D01*
X161331510Y-89610736D01*
X161331150Y-89398195D01*
X161331287Y-89217500D01*
X161333516Y-88000417D01*
X161006440Y-88326651D01*
X160997376Y-89501256D01*
X160988311Y-90675860D01*
X160647031Y-90885049D01*
X160540388Y-90950065D01*
X160415725Y-91025482D01*
X160277423Y-91108702D01*
X160129866Y-91197125D01*
X159977437Y-91288151D01*
X159824517Y-91379183D01*
X159675491Y-91467620D01*
X159534741Y-91550862D01*
X159406650Y-91626312D01*
X159295600Y-91691369D01*
X159205975Y-91743435D01*
X159142156Y-91779910D01*
X159108528Y-91798194D01*
X159104540Y-91799834D01*
X159099455Y-91780008D01*
X159093262Y-91725814D01*
X159086691Y-91645176D01*
X159080474Y-91546021D01*
X159079613Y-91529959D01*
X159072353Y-91410576D01*
X159062422Y-91274227D01*
X159050578Y-91128993D01*
X159037580Y-90982952D01*
X159024188Y-90844184D01*
X159011159Y-90720771D01*
X158999252Y-90620791D01*
X158989226Y-90552325D01*
X158986484Y-90538139D01*
X158972250Y-90472361D01*
X158347834Y-90917091D01*
X158194738Y-91025696D01*
X158023508Y-91146397D01*
X157836916Y-91277290D01*
X157637732Y-91416470D01*
X157428728Y-91562034D01*
X157212675Y-91712079D01*
X156992345Y-91864701D01*
X156770509Y-92017996D01*
X156549939Y-92170060D01*
X156333406Y-92318990D01*
X156123681Y-92462882D01*
X155923536Y-92599833D01*
X155735743Y-92727938D01*
X155563071Y-92845295D01*
X155408294Y-92949999D01*
X155274183Y-93040146D01*
X155163508Y-93113834D01*
X155079041Y-93169158D01*
X155023554Y-93204215D01*
X154999818Y-93217101D01*
X154999404Y-93217121D01*
X154986929Y-93199677D01*
X154955332Y-93151132D01*
X154907733Y-93076405D01*
X154847251Y-92980415D01*
X154777006Y-92868082D01*
X154722972Y-92781192D01*
X154453026Y-92346141D01*
X154720154Y-91527945D01*
X154778079Y-91350689D01*
X154831858Y-91186429D01*
X154880093Y-91039420D01*
X154921380Y-90913919D01*
X154954320Y-90814180D01*
X154977511Y-90744461D01*
X154989553Y-90709016D01*
X154990937Y-90705385D01*
X155012163Y-90702851D01*
X155069315Y-90698295D01*
X155156059Y-90692160D01*
X155266062Y-90684890D01*
X155392987Y-90676928D01*
X155425656Y-90674939D01*
X155856719Y-90648860D01*
X155752901Y-90556687D01*
X155681030Y-90493529D01*
X155606136Y-90428710D01*
X155563098Y-90392047D01*
X155477112Y-90319578D01*
X155118598Y-90352040D01*
X154999687Y-90363549D01*
X154895811Y-90375009D01*
X154814174Y-90385513D01*
X154761980Y-90394152D01*
X154746390Y-90398960D01*
X154736983Y-90421690D01*
X154716086Y-90480229D01*
X154685206Y-90570095D01*
X154645853Y-90686808D01*
X154599535Y-90825888D01*
X154547762Y-90982855D01*
X154492042Y-91153229D01*
X154483098Y-91180709D01*
X154427052Y-91352073D01*
X154374786Y-91510110D01*
X154327788Y-91650448D01*
X154287549Y-91768717D01*
X154255557Y-91860545D01*
X154233303Y-91921561D01*
X154222276Y-91947395D01*
X154221625Y-91947973D01*
X154208942Y-91930423D01*
X154175434Y-91879440D01*
X154122675Y-91797513D01*
X154052238Y-91687132D01*
X153965697Y-91550786D01*
X153864626Y-91390964D01*
X153750598Y-91210155D01*
X153625187Y-91010850D01*
X153489967Y-90795536D01*
X153346511Y-90566704D01*
X153196393Y-90326843D01*
X153162000Y-90271834D01*
X153007375Y-90024699D01*
X152856769Y-89784420D01*
X152712006Y-89553883D01*
X152574910Y-89335970D01*
X152447301Y-89133565D01*
X152331004Y-88949552D01*
X152227841Y-88786815D01*
X152139635Y-88648238D01*
X152068208Y-88536704D01*
X152015384Y-88455097D01*
X151982984Y-88406301D01*
X151981330Y-88403902D01*
X151848410Y-88212084D01*
X151907247Y-88166249D01*
X151930979Y-88148814D01*
X151987178Y-88108114D01*
X152073903Y-88045543D01*
X152189211Y-87962497D01*
X152331160Y-87860370D01*
X152497810Y-87740557D01*
X152687217Y-87604454D01*
X152897440Y-87453455D01*
X153126538Y-87288956D01*
X153372568Y-87112352D01*
X153633589Y-86925037D01*
X153907659Y-86728406D01*
X154192836Y-86523854D01*
X154487178Y-86312777D01*
X154537834Y-86276456D01*
X154833313Y-86064581D01*
X155119825Y-85859109D01*
X155395438Y-85661424D01*
X155658222Y-85472913D01*
X155906247Y-85294962D01*
X156137582Y-85128956D01*
X156350296Y-84976282D01*
X156542459Y-84838325D01*
X156712140Y-84716472D01*
X156857409Y-84612107D01*
X156976334Y-84526617D01*
X157066986Y-84461388D01*
X157127433Y-84417806D01*
X157155745Y-84397256D01*
X157157262Y-84396124D01*
X157204940Y-84359750D01*
X157130456Y-83862334D01*
X157116803Y-83772178D01*
X157100654Y-83667484D01*
X157081775Y-83546816D01*
X157059930Y-83408741D01*
X157034885Y-83251826D01*
X157006406Y-83074636D01*
X156974257Y-82875739D01*
X156938205Y-82653700D01*
X156898014Y-82407087D01*
X156853450Y-82134465D01*
X156804278Y-81834400D01*
X156750264Y-81505460D01*
X156691173Y-81146210D01*
X156626770Y-80755217D01*
X156556820Y-80331047D01*
X156481089Y-79872266D01*
X156399343Y-79377442D01*
X156311346Y-78845140D01*
X156216865Y-78273927D01*
X156117106Y-77671084D01*
X156050349Y-77267607D01*
X155990224Y-76903789D01*
X155936414Y-76577529D01*
X155888603Y-76286728D01*
X155846474Y-76029285D01*
X155809710Y-75803100D01*
X155777995Y-75606072D01*
X155751012Y-75436102D01*
X155728444Y-75291089D01*
X155709974Y-75168932D01*
X155695286Y-75067532D01*
X155684063Y-74984789D01*
X155675988Y-74918601D01*
X155670745Y-74866869D01*
X155668016Y-74827493D01*
X155667486Y-74798371D01*
X155668838Y-74777405D01*
X155671754Y-74762493D01*
X155675919Y-74751536D01*
X155676642Y-74750084D01*
X155695410Y-74710919D01*
X155727959Y-74640406D01*
X155770937Y-74545907D01*
X155820996Y-74434786D01*
X155873751Y-74316734D01*
X155925057Y-74204166D01*
X155970938Y-74108610D01*
X156008643Y-74035383D01*
X156035422Y-73989796D01*
X156048524Y-73977166D01*
X156049030Y-73978068D01*
X156053538Y-74002342D01*
X156064229Y-74066024D01*
X156080719Y-74166704D01*
X156102624Y-74301967D01*
X156129559Y-74469404D01*
X156161138Y-74666600D01*
X156196979Y-74891145D01*
X156236695Y-75140627D01*
X156279902Y-75412632D01*
X156326216Y-75704750D01*
X156375252Y-76014568D01*
X156426626Y-76339674D01*
X156479952Y-76677656D01*
X156516198Y-76907672D01*
X156570509Y-77252301D01*
X156623048Y-77585301D01*
X156673437Y-77904293D01*
X156721297Y-78206893D01*
X156766250Y-78490721D01*
X156807916Y-78753396D01*
X156845917Y-78992534D01*
X156879874Y-79205756D01*
X156909409Y-79390680D01*
X156934143Y-79544923D01*
X156953697Y-79666105D01*
X156967692Y-79751845D01*
X156975751Y-79799759D01*
X156977644Y-79809520D01*
X156996212Y-79820505D01*
X157048633Y-79851371D01*
X157132255Y-79900560D01*
X157244429Y-79966514D01*
X157382504Y-80047675D01*
X157543828Y-80142485D01*
X157725752Y-80249386D01*
X157925624Y-80366821D01*
X158140793Y-80493232D01*
X158368610Y-80627060D01*
X158546721Y-80731681D01*
X160110858Y-81650417D01*
X160096980Y-82412417D01*
X160093042Y-82626886D01*
X160088671Y-82862018D01*
X160084091Y-83105886D01*
X160079529Y-83346564D01*
X160075209Y-83572126D01*
X160071356Y-83770644D01*
X160070387Y-83820000D01*
X160057673Y-84465584D01*
X160222690Y-84302726D01*
X160387707Y-84139869D01*
X160413904Y-83127976D01*
X160419437Y-82911013D01*
X160424778Y-82695519D01*
X160429786Y-82487552D01*
X160434322Y-82293172D01*
X160438246Y-82118439D01*
X160441419Y-81969413D01*
X160443701Y-81852153D01*
X160444735Y-81789303D01*
X160449369Y-81462523D01*
X158874726Y-80537366D01*
X158582839Y-80365656D01*
X158325854Y-80213987D01*
X158101990Y-80081269D01*
X157909468Y-79966411D01*
X157746508Y-79868321D01*
X157611330Y-79785910D01*
X157502156Y-79718085D01*
X157417204Y-79663756D01*
X157354694Y-79621832D01*
X157312849Y-79591222D01*
X157289886Y-79570835D01*
X157284194Y-79562397D01*
X157279378Y-79536857D01*
X157268482Y-79472334D01*
X157251954Y-79371672D01*
X157230241Y-79237716D01*
X157203792Y-79073311D01*
X157173054Y-78881299D01*
X157138474Y-78664526D01*
X157100501Y-78425836D01*
X157059582Y-78168073D01*
X157016165Y-77894081D01*
X156970697Y-77606705D01*
X156923627Y-77308789D01*
X156875401Y-77003177D01*
X156826468Y-76692713D01*
X156777276Y-76380242D01*
X156728271Y-76068608D01*
X156679903Y-75760655D01*
X156632617Y-75459228D01*
X156586863Y-75167170D01*
X156543088Y-74887327D01*
X156501739Y-74622542D01*
X156463265Y-74375659D01*
X156428112Y-74149523D01*
X156396729Y-73946978D01*
X156369564Y-73770869D01*
X156347063Y-73624039D01*
X156329675Y-73509333D01*
X156317848Y-73429595D01*
X156312029Y-73387670D01*
X156311538Y-73383098D01*
X156318339Y-73348508D01*
X156339037Y-73284149D01*
X156370073Y-73198818D01*
X156407884Y-73101312D01*
X156448911Y-73000427D01*
X156489591Y-72904961D01*
X156526366Y-72823710D01*
X156555673Y-72765472D01*
X156571263Y-72741455D01*
X156586341Y-72754288D01*
%TD*%
M02*
