%TF.GenerationSoftware,KiCad,Pcbnew,(5.1.10)-1*%
%TF.CreationDate,2021-10-13T15:42:42-04:00*%
%TF.ProjectId,TFTS-HTH-SAO-Scout-IS,54465453-2d48-4544-982d-53414f2d5363,rev?*%
%TF.SameCoordinates,Original*%
%TF.FileFunction,Profile,NP*%
%FSLAX46Y46*%
G04 Gerber Fmt 4.6, Leading zero omitted, Abs format (unit mm)*
G04 Created by KiCad (PCBNEW (5.1.10)-1) date 2021-10-13 15:42:42*
%MOMM*%
%LPD*%
G01*
G04 APERTURE LIST*
%TA.AperFunction,Profile*%
%ADD10C,0.100000*%
%TD*%
G04 APERTURE END LIST*
D10*
X137160000Y-107950000D02*
X136525000Y-107315000D01*
X134658700Y-110580200D02*
X136525000Y-107315000D01*
X137160000Y-107950000D02*
X133582000Y-114801100D01*
X163432300Y-80604660D02*
X161794100Y-78322510D01*
X161794100Y-78322510D02*
X160952100Y-77173840D01*
X160952100Y-77173840D02*
X160091400Y-76033210D01*
X160091400Y-76033210D02*
X159215000Y-74904210D01*
X159215000Y-74904210D02*
X158327900Y-73793980D01*
X158327900Y-73793980D02*
X157881200Y-73262350D01*
X157881200Y-73262350D02*
X157437200Y-72749489D01*
X157437200Y-72749489D02*
X156661000Y-71858807D01*
X156661000Y-71858807D02*
X156575200Y-71969695D01*
X156575200Y-71969695D02*
X155670200Y-73168000D01*
X155670200Y-73168000D02*
X155200200Y-73814100D01*
X155200200Y-73814100D02*
X154743700Y-74484350D01*
X154743700Y-74484350D02*
X154700800Y-74552320D01*
X154700800Y-74552320D02*
X149873300Y-76696920D01*
X149873300Y-76696920D02*
X145342000Y-78737760D01*
X145342000Y-78737760D02*
X140010800Y-81173860D01*
X140010800Y-81173860D02*
X134338600Y-83817400D01*
X134338600Y-83817400D02*
X131518000Y-85158200D01*
X131518000Y-85158200D02*
X128784160Y-86480400D01*
X128784160Y-86480400D02*
X126194510Y-87760600D01*
X126194510Y-87760600D02*
X123806360Y-88975300D01*
X123806360Y-88975300D02*
X121677090Y-90100900D01*
X121677090Y-90100900D02*
X120727450Y-90623000D01*
X120727450Y-90623000D02*
X119864036Y-91114000D01*
X119864036Y-91114000D02*
X119703069Y-91207000D01*
X119703069Y-91207000D02*
X119688761Y-91393000D01*
X119688761Y-91393000D02*
X119654509Y-92016600D01*
X119654509Y-92016600D02*
X119637579Y-92842300D01*
X119637579Y-92842300D02*
X119647513Y-94969600D01*
X119647513Y-94969600D02*
X119702217Y-97515000D01*
X119702217Y-97515000D02*
X119785341Y-100218000D01*
X119785341Y-100218000D02*
X119971459Y-105056600D01*
X119971459Y-105056600D02*
X120075081Y-107403800D01*
X120075081Y-107403800D02*
X120082235Y-107564800D01*
X120082235Y-107564800D02*
X128398850Y-114364700D01*
X128398850Y-114364700D02*
X132519600Y-109625200D01*
X132519600Y-109625200D02*
X134658700Y-110580200D01*
X133582000Y-114801100D02*
X134154300Y-114783300D01*
X134154300Y-114783300D02*
X134771200Y-114741000D01*
X134771200Y-114741000D02*
X135441700Y-114669800D01*
X135441700Y-114669800D02*
X136328700Y-114547200D01*
X136328700Y-114547200D02*
X137413300Y-114359500D01*
X137413300Y-114359500D02*
X138677000Y-114093100D01*
X138677000Y-114093100D02*
X139370000Y-113926200D01*
X139370000Y-113926200D02*
X140100800Y-113734500D01*
X140100800Y-113734500D02*
X140866900Y-113516400D01*
X140866900Y-113516400D02*
X141666100Y-113270200D01*
X141666100Y-113270200D02*
X142438200Y-113013600D01*
X142438200Y-113013600D02*
X143251000Y-112722800D01*
X143251000Y-112722800D02*
X144101000Y-112395800D01*
X144101000Y-112395800D02*
X144984700Y-112030700D01*
X144984700Y-112030700D02*
X145898300Y-111625500D01*
X145898300Y-111625500D02*
X146838400Y-111178400D01*
X146838400Y-111178400D02*
X147801300Y-110687200D01*
X147801300Y-110687200D02*
X148783500Y-110150100D01*
X148783500Y-110150100D02*
X149781300Y-109565100D01*
X149781300Y-109565100D02*
X150791300Y-108930400D01*
X150791300Y-108930400D02*
X151809800Y-108243800D01*
X151809800Y-108243800D02*
X152833100Y-107503500D01*
X152833100Y-107503500D02*
X153857900Y-106707600D01*
X153857900Y-106707600D02*
X154880300Y-105854000D01*
X154880300Y-105854000D02*
X155897000Y-104940900D01*
X155897000Y-104940900D02*
X156904300Y-103966300D01*
X156904300Y-103966300D02*
X156972200Y-103898300D01*
X156972200Y-103898300D02*
X156997300Y-103808900D01*
X156997300Y-103808900D02*
X157432900Y-102121300D01*
X157432900Y-102121300D02*
X157854900Y-100296200D01*
X157854900Y-100296200D02*
X158251500Y-98433400D01*
X158251500Y-98433400D02*
X158610900Y-96632900D01*
X158610900Y-96632900D02*
X159171800Y-93618200D01*
X159171800Y-93618200D02*
X159443900Y-92051200D01*
X159443900Y-92051200D02*
X160874800Y-91328600D01*
X160874800Y-91328600D02*
X161833000Y-90860500D01*
X161833000Y-90860500D02*
X162799200Y-90405700D01*
X162799200Y-90405700D02*
X162799200Y-90405700D01*
X162799200Y-90405700D02*
X163003100Y-90294900D01*
X163003100Y-90294900D02*
X163003100Y-90087400D01*
X163003100Y-90087400D02*
X163008000Y-88933800D01*
X163008000Y-88933800D02*
X163042400Y-87780200D01*
X163042400Y-87780200D02*
X163097000Y-86628800D01*
X163097000Y-86628800D02*
X163167600Y-85480200D01*
X163167600Y-85480200D02*
X163335800Y-83180100D01*
X163335800Y-83180100D02*
X163525300Y-80883670D01*
X163525300Y-80883670D02*
X163536100Y-80747750D01*
X163536100Y-80747750D02*
X163432300Y-80604660D01*
M02*
