%TF.GenerationSoftware,KiCad,Pcbnew,(5.1.10)-1*%
%TF.CreationDate,2021-10-13T15:42:42-04:00*%
%TF.ProjectId,TFTS-HTH-SAO-Scout-IS,54465453-2d48-4544-982d-53414f2d5363,rev?*%
%TF.SameCoordinates,Original*%
%TF.FileFunction,Legend,Bot*%
%TF.FilePolarity,Positive*%
%FSLAX46Y46*%
G04 Gerber Fmt 4.6, Leading zero omitted, Abs format (unit mm)*
G04 Created by KiCad (PCBNEW (5.1.10)-1) date 2021-10-13 15:42:42*
%MOMM*%
%LPD*%
G01*
G04 APERTURE LIST*
%ADD10C,0.125000*%
%ADD11C,0.150000*%
%ADD12C,0.120000*%
G04 APERTURE END LIST*
D10*
X130023973Y-87277421D02*
X129796978Y-86831918D01*
X129905071Y-87044063D02*
X129650498Y-87173774D01*
X129769400Y-87407133D02*
X129542405Y-86961630D01*
X129513614Y-87377130D02*
X129301470Y-87485223D01*
X129620899Y-87482798D02*
X129245402Y-87112960D01*
X129323897Y-87634128D01*
X128899204Y-87797076D02*
X128931227Y-87807481D01*
X129005680Y-87796268D01*
X129048109Y-87774649D01*
X129100943Y-87721007D01*
X129121753Y-87656959D01*
X129121349Y-87603721D01*
X129099326Y-87508054D01*
X129066898Y-87444411D01*
X129002447Y-87370362D01*
X128959614Y-87338743D01*
X128895566Y-87317932D01*
X128821114Y-87329146D01*
X128778685Y-87350765D01*
X128725851Y-87404407D01*
X128715446Y-87436431D01*
X128729892Y-87936789D02*
X128502897Y-87491285D01*
X128475319Y-88066500D02*
X128536537Y-87714643D01*
X128248324Y-87620997D02*
X128632609Y-87745859D01*
X128165487Y-87930425D02*
X128016986Y-88006090D01*
X128072245Y-88271877D02*
X128284389Y-88163784D01*
X128057394Y-87718281D01*
X127845249Y-87826374D01*
X127626741Y-88498872D02*
X127667149Y-88211063D01*
X127881315Y-88369161D02*
X127654319Y-87923657D01*
X127484604Y-88010132D01*
X127452984Y-88052965D01*
X127442579Y-88084988D01*
X127442983Y-88138227D01*
X127475411Y-88201870D01*
X127518244Y-88233490D01*
X127550268Y-88243895D01*
X127603506Y-88243491D01*
X127773222Y-88157016D01*
X127446217Y-88564132D02*
X127393382Y-88617774D01*
X127287310Y-88671821D01*
X127234072Y-88672225D01*
X127202048Y-88661820D01*
X127159215Y-88630200D01*
X127137597Y-88587771D01*
X127137193Y-88534533D01*
X127147598Y-88502510D01*
X127179217Y-88459676D01*
X127253266Y-88395225D01*
X127284885Y-88352392D01*
X127295290Y-88320368D01*
X127294886Y-88267130D01*
X127273268Y-88224701D01*
X127230435Y-88193081D01*
X127198411Y-88182676D01*
X127145173Y-88183080D01*
X127039101Y-88237127D01*
X126986267Y-88290769D01*
X126508740Y-88507359D02*
X126254166Y-88637071D01*
X126608448Y-89017718D02*
X126381453Y-88572215D01*
X126213758Y-88924880D02*
X126065257Y-89000545D01*
X126120516Y-89266332D02*
X126332660Y-89158239D01*
X126105665Y-88712736D01*
X125893521Y-88820829D01*
X125885945Y-89225520D02*
X125673800Y-89333613D01*
X125993229Y-89331188D02*
X125617733Y-88961350D01*
X125696227Y-89482518D01*
X125271534Y-89645466D02*
X125303558Y-89655871D01*
X125378011Y-89644658D01*
X125420439Y-89623039D01*
X125473273Y-89569397D01*
X125494084Y-89505349D01*
X125493680Y-89452111D01*
X125471657Y-89356444D01*
X125439229Y-89292801D01*
X125374777Y-89218752D01*
X125331944Y-89187133D01*
X125267897Y-89166322D01*
X125193444Y-89177536D01*
X125151015Y-89199154D01*
X125098181Y-89252797D01*
X125087776Y-89284820D01*
X125102223Y-89785179D02*
X124875228Y-89339675D01*
X124983321Y-89551820D02*
X124728747Y-89681531D01*
X124847650Y-89914890D02*
X124620654Y-89469387D01*
X124635505Y-90022983D02*
X124408510Y-89577480D01*
X124423361Y-90131076D02*
X124196365Y-89685573D01*
X124168787Y-90260788D01*
X123941792Y-89815284D01*
X123507098Y-90063494D02*
X123538718Y-90020661D01*
X123602361Y-89988233D01*
X123676814Y-89977020D01*
X123740861Y-89997830D01*
X123783694Y-90029450D01*
X123848146Y-90103498D01*
X123880574Y-90167141D01*
X123902597Y-90262808D01*
X123903001Y-90316047D01*
X123882190Y-90380094D01*
X123829356Y-90433736D01*
X123786927Y-90455355D01*
X123712475Y-90466568D01*
X123680451Y-90456163D01*
X123604786Y-90307662D01*
X123689644Y-90264425D01*
X123171709Y-90768825D02*
X122944713Y-90323321D01*
X123052806Y-90535466D02*
X122798233Y-90665177D01*
X122917135Y-90898536D02*
X122690140Y-90453033D01*
X122661350Y-90868533D02*
X122449205Y-90976626D01*
X122768634Y-90974201D02*
X122393138Y-90604363D01*
X122471632Y-91125531D01*
X122046939Y-91288479D02*
X122078963Y-91298884D01*
X122153416Y-91287671D01*
X122195844Y-91266052D01*
X122248678Y-91212410D01*
X122269489Y-91148362D01*
X122269085Y-91095124D01*
X122247062Y-90999457D01*
X122214634Y-90935814D01*
X122150182Y-90861765D01*
X122107349Y-90830146D01*
X122043302Y-90809336D01*
X121968849Y-90820549D01*
X121926420Y-90842168D01*
X121873586Y-90895810D01*
X121863181Y-90927834D01*
X121877628Y-91428192D02*
X121650633Y-90982689D01*
X121623055Y-91557903D02*
X121684273Y-91206046D01*
X121396059Y-91112400D02*
X121780344Y-91237262D01*
X121313222Y-91421828D02*
X121164721Y-91497493D01*
X121219980Y-91763280D02*
X121432125Y-91655187D01*
X121205129Y-91209684D01*
X120992985Y-91317777D01*
X120774477Y-91990275D02*
X120814885Y-91702466D01*
X121029050Y-91860564D02*
X120802055Y-91415060D01*
X120632339Y-91501535D01*
X120600720Y-91544368D01*
X120590315Y-91576392D01*
X120590719Y-91629630D01*
X120623147Y-91693273D01*
X120665980Y-91724893D01*
X120698003Y-91735298D01*
X120751242Y-91734894D01*
X120920957Y-91648419D01*
X120593952Y-92055535D02*
X120541118Y-92109178D01*
X120435046Y-92163224D01*
X120381808Y-92163628D01*
X120349784Y-92153223D01*
X120306951Y-92121603D01*
X120285332Y-92079175D01*
X120284928Y-92025936D01*
X120295333Y-91993913D01*
X120326953Y-91951080D01*
X120401001Y-91886628D01*
X120432621Y-91843795D01*
X120443026Y-91811771D01*
X120442622Y-91758533D01*
X120421003Y-91716104D01*
X120378170Y-91684485D01*
X120346147Y-91674079D01*
X120292908Y-91674484D01*
X120186836Y-91728530D01*
X120134002Y-91782172D01*
D11*
X129699937Y-111221791D02*
X129766911Y-111214752D01*
X129870893Y-111237680D01*
X129944907Y-111297615D01*
X129988953Y-111394558D01*
X129995992Y-111461532D01*
X129973064Y-111565514D01*
X129913129Y-111639528D01*
X129816187Y-111683574D01*
X129749212Y-111690613D01*
X129645231Y-111667685D01*
X129571217Y-111607750D01*
X129527170Y-111510807D01*
X129520131Y-111443833D01*
X129759872Y-111147777D02*
X129520131Y-111443833D01*
X129453156Y-111450872D01*
X129416150Y-111420905D01*
X129372103Y-111323962D01*
X129395032Y-111219981D01*
X129544870Y-111034946D01*
X129708787Y-110983860D01*
X129879743Y-110999749D01*
X130057738Y-111082613D01*
X130175798Y-111239491D01*
X130226884Y-111403407D01*
X130210995Y-111574364D01*
X130128131Y-111752359D01*
X129971254Y-111870419D01*
X129807337Y-111921505D01*
X129636381Y-111905616D01*
X129458385Y-111822752D01*
X129340325Y-111665875D01*
X129289240Y-111501958D01*
X128949138Y-111165274D02*
X128845156Y-111142346D01*
X128697128Y-111022476D01*
X128653082Y-110925533D01*
X128676011Y-110821552D01*
X128705978Y-110784545D01*
X128802920Y-110740499D01*
X128906902Y-110763427D01*
X129017923Y-110853330D01*
X129121904Y-110876258D01*
X129218847Y-110832212D01*
X129248814Y-110795205D01*
X129271742Y-110691223D01*
X129227696Y-110594281D01*
X129116675Y-110504378D01*
X129012694Y-110481450D01*
X128746606Y-110204702D02*
X128142024Y-110572961D01*
X128376536Y-109905025D02*
X128142024Y-110572961D01*
X128066200Y-110817931D01*
X128073239Y-110884906D01*
X128117285Y-110981848D01*
X128080481Y-109665284D02*
X127660934Y-110183382D01*
X128020545Y-109739298D02*
X128013506Y-109672324D01*
X127969460Y-109575381D01*
X127858439Y-109485479D01*
X127754458Y-109462550D01*
X127657515Y-109506597D01*
X127327871Y-109913673D01*
X127197543Y-109317941D02*
X126605432Y-108838459D01*
X125662558Y-108565129D02*
X125992203Y-108158053D01*
X126089145Y-108114007D01*
X126193126Y-108136935D01*
X126341154Y-108256805D01*
X126385200Y-108353748D01*
X125692526Y-108528122D02*
X125736572Y-108625065D01*
X125921607Y-108774903D01*
X126025589Y-108797831D01*
X126122531Y-108753785D01*
X126182466Y-108679771D01*
X126205395Y-108575789D01*
X126161348Y-108478847D01*
X125976313Y-108329009D01*
X125932267Y-108232067D01*
X124989394Y-107958737D02*
X125033440Y-108055679D01*
X125181468Y-108175550D01*
X125285450Y-108198478D01*
X125352424Y-108191439D01*
X125449366Y-108147393D01*
X125629172Y-107925351D01*
X125652101Y-107821369D01*
X125645061Y-107754395D01*
X125601015Y-107657453D01*
X125452987Y-107537582D01*
X125349006Y-107514654D01*
X124626364Y-107726035D02*
X125255684Y-106948889D01*
X124792091Y-107370045D02*
X124330308Y-107486294D01*
X124749855Y-106968197D02*
X124806170Y-107503994D01*
X124236987Y-106920530D02*
X123644876Y-106441048D01*
X123528626Y-105979265D02*
X123121549Y-105649621D01*
X123109079Y-106497362D01*
X122702002Y-106167718D01*
X122072884Y-105658268D02*
X122402528Y-105251192D01*
X122499471Y-105207146D01*
X122603452Y-105230074D01*
X122751480Y-105349945D01*
X122795526Y-105446887D01*
X122102852Y-105621261D02*
X122146898Y-105718204D01*
X122331933Y-105868042D01*
X122435914Y-105890970D01*
X122532857Y-105846924D01*
X122592792Y-105772910D01*
X122615720Y-105668929D01*
X122571674Y-105571986D01*
X122386639Y-105422148D01*
X122342593Y-105325206D01*
X121399720Y-105051876D02*
X121443766Y-105148819D01*
X121591794Y-105268689D01*
X121695775Y-105291617D01*
X121762750Y-105284578D01*
X121859692Y-105240532D01*
X122039498Y-105018490D01*
X122062426Y-104914509D01*
X122055387Y-104847534D01*
X122011341Y-104750592D01*
X121863313Y-104630721D01*
X121759332Y-104607793D01*
X121036690Y-104819175D02*
X121666010Y-104042029D01*
X121202417Y-104463184D02*
X120740634Y-104579433D01*
X121160181Y-104061336D02*
X121216496Y-104597133D01*
X127569853Y-111620037D02*
X127636827Y-111612998D01*
X127740809Y-111635926D01*
X127814823Y-111695861D01*
X127858869Y-111792803D01*
X127865908Y-111859778D01*
X127842980Y-111963759D01*
X127783045Y-112037773D01*
X127686103Y-112081820D01*
X127619128Y-112088859D01*
X127515146Y-112065931D01*
X127441133Y-112005995D01*
X127397086Y-111909053D01*
X127390047Y-111842079D01*
X127629788Y-111546023D02*
X127390047Y-111842079D01*
X127323072Y-111849118D01*
X127286065Y-111819150D01*
X127242019Y-111722208D01*
X127264948Y-111618226D01*
X127414786Y-111433192D01*
X127578703Y-111382106D01*
X127749659Y-111397995D01*
X127927654Y-111480859D01*
X128045714Y-111637736D01*
X128096800Y-111801653D01*
X128080911Y-111972609D01*
X127998047Y-112150605D01*
X127841170Y-112268665D01*
X127677253Y-112319750D01*
X127506297Y-112303861D01*
X127328301Y-112220998D01*
X127210241Y-112064120D01*
X127159156Y-111900203D01*
X126752079Y-111570559D02*
X127171626Y-111052462D01*
X127111691Y-111126476D02*
X127104651Y-111059501D01*
X127060605Y-110962559D01*
X126949584Y-110872656D01*
X126845603Y-110849728D01*
X126748661Y-110893774D01*
X126419017Y-111300851D01*
X126748661Y-110893774D02*
X126771589Y-110789793D01*
X126727543Y-110692850D01*
X126616522Y-110602948D01*
X126512540Y-110580019D01*
X126415598Y-110624066D01*
X126085954Y-111031142D01*
X125412790Y-110424750D02*
X125456836Y-110521692D01*
X125604864Y-110641563D01*
X125708845Y-110664491D01*
X125775820Y-110657452D01*
X125872762Y-110613405D01*
X126052568Y-110391364D01*
X126075496Y-110287382D01*
X126068457Y-110220408D01*
X126024411Y-110123465D01*
X125876383Y-110003595D01*
X125772401Y-109980666D01*
X125049759Y-110192048D02*
X125469306Y-109673951D01*
X125409371Y-109747965D02*
X125402332Y-109680990D01*
X125358286Y-109584048D01*
X125247265Y-109494145D01*
X125143283Y-109471217D01*
X125046341Y-109515263D01*
X124716697Y-109922339D01*
X125046341Y-109515263D02*
X125069269Y-109411281D01*
X125025223Y-109314339D01*
X124914202Y-109224436D01*
X124810221Y-109201508D01*
X124713278Y-109245554D01*
X124383634Y-109652631D01*
X124716899Y-108635744D02*
X124235809Y-108246164D01*
X124255116Y-108751993D01*
X124144095Y-108662090D01*
X124040114Y-108639162D01*
X123973139Y-108646201D01*
X123876197Y-108690248D01*
X123726359Y-108875282D01*
X123703431Y-108979264D01*
X123710470Y-109046239D01*
X123754516Y-109143181D01*
X123976558Y-109322987D01*
X124080539Y-109345915D01*
X124147514Y-109338876D01*
X123692973Y-108235504D02*
X123273426Y-108753601D01*
X123633037Y-108309518D02*
X123625998Y-108242543D01*
X123581952Y-108145601D01*
X123470931Y-108055698D01*
X123366949Y-108032770D01*
X123270007Y-108076816D01*
X122940363Y-108483893D01*
X122237231Y-107914508D02*
X122566875Y-107507431D01*
X122663817Y-107463385D01*
X122767799Y-107486313D01*
X122915827Y-107606184D01*
X122959873Y-107703126D01*
X122267199Y-107877501D02*
X122311245Y-107974443D01*
X122496280Y-108124281D01*
X122600261Y-108147209D01*
X122697204Y-108103163D01*
X122757139Y-108029149D01*
X122780067Y-107925168D01*
X122736021Y-107828225D01*
X122550986Y-107678387D01*
X122506940Y-107581445D01*
X121564067Y-107308116D02*
X121608113Y-107405058D01*
X121756141Y-107524928D01*
X121860122Y-107547857D01*
X121927097Y-107540817D01*
X122024039Y-107496771D01*
X122203845Y-107274729D01*
X122226773Y-107170748D01*
X122219734Y-107103773D01*
X122175688Y-107006831D01*
X122027660Y-106886960D01*
X121923678Y-106864032D01*
X121904371Y-106358203D02*
X121423281Y-105968624D01*
X121442588Y-106474453D01*
X121331567Y-106384550D01*
X121227586Y-106361622D01*
X121160611Y-106368661D01*
X121063669Y-106412707D01*
X120913831Y-106597742D01*
X120890902Y-106701724D01*
X120897942Y-106768698D01*
X120941988Y-106865640D01*
X121164030Y-107045446D01*
X121268011Y-107068374D01*
X121334986Y-107061335D01*
D12*
%TO.C,D4*%
X139323172Y-108402226D02*
X141470369Y-107620710D01*
X139825941Y-109783574D02*
X139323172Y-108402226D01*
X141973139Y-109002058D02*
X139825941Y-109783574D01*
%TO.C,D3*%
X144880000Y-107887500D02*
X144880000Y-110172500D01*
X143410000Y-107887500D02*
X144880000Y-107887500D01*
X143410000Y-110172500D02*
X143410000Y-107887500D01*
%TO.C,D2*%
X144880000Y-103290000D02*
X144880000Y-105575000D01*
X143410000Y-103290000D02*
X144880000Y-103290000D01*
X143410000Y-105575000D02*
X143410000Y-103290000D01*
%TO.C,D1*%
X145673172Y-106131567D02*
X147820369Y-105350051D01*
X146175941Y-107512915D02*
X145673172Y-106131567D01*
X148323139Y-106731399D02*
X146175941Y-107512915D01*
%TO.C,R1*%
X151877500Y-102632742D02*
X151877500Y-103107258D01*
X152922500Y-102632742D02*
X152922500Y-103107258D01*
%TO.C,D4*%
D11*
X142307395Y-110101415D02*
X141965374Y-109161722D01*
X141741638Y-109243156D01*
X141623683Y-109336763D01*
X141566762Y-109458831D01*
X141554588Y-109564612D01*
X141574987Y-109759888D01*
X141623847Y-109894130D01*
X141733741Y-110056832D01*
X141811062Y-110130040D01*
X141933130Y-110186961D01*
X142083658Y-110182848D01*
X142307395Y-110101415D01*
X140736963Y-109963554D02*
X140964977Y-110590015D01*
X140830406Y-109524142D02*
X141298442Y-110113918D01*
X140716728Y-110325644D01*
%TO.C,D3*%
X143167380Y-108634404D02*
X142167380Y-108634404D01*
X142167380Y-108872500D01*
X142215000Y-109015357D01*
X142310238Y-109110595D01*
X142405476Y-109158214D01*
X142595952Y-109205833D01*
X142738809Y-109205833D01*
X142929285Y-109158214D01*
X143024523Y-109110595D01*
X143119761Y-109015357D01*
X143167380Y-108872500D01*
X143167380Y-108634404D01*
X142167380Y-109539166D02*
X142167380Y-110158214D01*
X142548333Y-109824880D01*
X142548333Y-109967738D01*
X142595952Y-110062976D01*
X142643571Y-110110595D01*
X142738809Y-110158214D01*
X142976904Y-110158214D01*
X143072142Y-110110595D01*
X143119761Y-110062976D01*
X143167380Y-109967738D01*
X143167380Y-109682023D01*
X143119761Y-109586785D01*
X143072142Y-109539166D01*
%TO.C,D2*%
X143167380Y-104036904D02*
X142167380Y-104036904D01*
X142167380Y-104275000D01*
X142215000Y-104417857D01*
X142310238Y-104513095D01*
X142405476Y-104560714D01*
X142595952Y-104608333D01*
X142738809Y-104608333D01*
X142929285Y-104560714D01*
X143024523Y-104513095D01*
X143119761Y-104417857D01*
X143167380Y-104275000D01*
X143167380Y-104036904D01*
X142262619Y-104989285D02*
X142215000Y-105036904D01*
X142167380Y-105132142D01*
X142167380Y-105370238D01*
X142215000Y-105465476D01*
X142262619Y-105513095D01*
X142357857Y-105560714D01*
X142453095Y-105560714D01*
X142595952Y-105513095D01*
X143167380Y-104941666D01*
X143167380Y-105560714D01*
%TO.C,D1*%
X148657395Y-107830756D02*
X148315374Y-106891063D01*
X148091638Y-106972497D01*
X147973683Y-107066104D01*
X147916762Y-107188172D01*
X147904588Y-107293953D01*
X147924987Y-107489229D01*
X147973847Y-107623471D01*
X148083741Y-107786173D01*
X148161062Y-107859381D01*
X148283130Y-107916302D01*
X148433658Y-107912189D01*
X148657395Y-107830756D01*
X147225482Y-108351930D02*
X147762449Y-108156490D01*
X147493966Y-108254210D02*
X147151945Y-107314517D01*
X147290300Y-107416185D01*
X147412368Y-107473107D01*
X147518149Y-107485281D01*
%TO.C,R1*%
X151422380Y-102703333D02*
X150946190Y-102370000D01*
X151422380Y-102131904D02*
X150422380Y-102131904D01*
X150422380Y-102512857D01*
X150470000Y-102608095D01*
X150517619Y-102655714D01*
X150612857Y-102703333D01*
X150755714Y-102703333D01*
X150850952Y-102655714D01*
X150898571Y-102608095D01*
X150946190Y-102512857D01*
X150946190Y-102131904D01*
X151422380Y-103655714D02*
X151422380Y-103084285D01*
X151422380Y-103370000D02*
X150422380Y-103370000D01*
X150565238Y-103274761D01*
X150660476Y-103179523D01*
X150708095Y-103084285D01*
%TD*%
M02*
