%TF.GenerationSoftware,KiCad,Pcbnew,(5.1.10)-1*%
%TF.CreationDate,2021-10-13T15:42:42-04:00*%
%TF.ProjectId,TFTS-HTH-SAO-Scout-IS,54465453-2d48-4544-982d-53414f2d5363,rev?*%
%TF.SameCoordinates,Original*%
%TF.FileFunction,Copper,L1,Top*%
%TF.FilePolarity,Positive*%
%FSLAX46Y46*%
G04 Gerber Fmt 4.6, Leading zero omitted, Abs format (unit mm)*
G04 Created by KiCad (PCBNEW (5.1.10)-1) date 2021-10-13 15:42:42*
%MOMM*%
%LPD*%
G01*
G04 APERTURE LIST*
%TA.AperFunction,EtchedComponent*%
%ADD10C,0.010000*%
%TD*%
%TA.AperFunction,ComponentPad*%
%ADD11C,0.100000*%
%TD*%
%TA.AperFunction,ComponentPad*%
%ADD12C,1.727200*%
%TD*%
G04 APERTURE END LIST*
D10*
%TO.C,G\u002A\u002A\u002A*%
G36*
X154796168Y-74838011D02*
G01*
X154810290Y-74899814D01*
X154831998Y-74998802D01*
X154860841Y-75132829D01*
X154896373Y-75299750D01*
X154938143Y-75497419D01*
X154985702Y-75723692D01*
X155038602Y-75976424D01*
X155096395Y-76253468D01*
X155158630Y-76552681D01*
X155224859Y-76871916D01*
X155294634Y-77209029D01*
X155367504Y-77561874D01*
X155443022Y-77928307D01*
X155520739Y-78306181D01*
X155531590Y-78359000D01*
X155649232Y-78931619D01*
X155758712Y-79464231D01*
X155860336Y-79958311D01*
X155954409Y-80415329D01*
X156041239Y-80836758D01*
X156121130Y-81224069D01*
X156194390Y-81578735D01*
X156261325Y-81902228D01*
X156322240Y-82196020D01*
X156377442Y-82461583D01*
X156427238Y-82700389D01*
X156471932Y-82913911D01*
X156511832Y-83103619D01*
X156547243Y-83270987D01*
X156578473Y-83417486D01*
X156605826Y-83544589D01*
X156629609Y-83653767D01*
X156650129Y-83746493D01*
X156667690Y-83824238D01*
X156674015Y-83851728D01*
X156700315Y-83969835D01*
X156716071Y-84053166D01*
X156722046Y-84107741D01*
X156719003Y-84139582D01*
X156711974Y-84151511D01*
X156692096Y-84166346D01*
X156639571Y-84204347D01*
X156556276Y-84264178D01*
X156444086Y-84344502D01*
X156304876Y-84443982D01*
X156140521Y-84561282D01*
X155952898Y-84695066D01*
X155743881Y-84843997D01*
X155515347Y-85006738D01*
X155269170Y-85181952D01*
X155007225Y-85368304D01*
X154731390Y-85564457D01*
X154443537Y-85769074D01*
X154145544Y-85980819D01*
X153998084Y-86085571D01*
X153695601Y-86300484D01*
X153402209Y-86509051D01*
X153119795Y-86709925D01*
X152850246Y-86901759D01*
X152595449Y-87083206D01*
X152357293Y-87252920D01*
X152137664Y-87409553D01*
X151938450Y-87551758D01*
X151761538Y-87678189D01*
X151608816Y-87787498D01*
X151482171Y-87878339D01*
X151383489Y-87949365D01*
X151314660Y-87999229D01*
X151277570Y-88026583D01*
X151271611Y-88031307D01*
X151251303Y-88054026D01*
X151247340Y-88077372D01*
X151261738Y-88113217D01*
X151295415Y-88171602D01*
X151328988Y-88227755D01*
X151378445Y-88310408D01*
X151437912Y-88409748D01*
X151501514Y-88515959D01*
X151522353Y-88550750D01*
X151554206Y-88601804D01*
X151608143Y-88685649D01*
X151682617Y-88799954D01*
X151776080Y-88942386D01*
X151886985Y-89110613D01*
X152013785Y-89302303D01*
X152154932Y-89515125D01*
X152308879Y-89746746D01*
X152474079Y-89994834D01*
X152648984Y-90257057D01*
X152832047Y-90531083D01*
X153021720Y-90814580D01*
X153216456Y-91105216D01*
X153295564Y-91223159D01*
X154903947Y-93620401D01*
X154969599Y-93570883D01*
X155112224Y-93463958D01*
X155275521Y-93342679D01*
X155456811Y-93208964D01*
X155653420Y-93064730D01*
X155862670Y-92911896D01*
X156081886Y-92752380D01*
X156308391Y-92588100D01*
X156539508Y-92420973D01*
X156772562Y-92252918D01*
X157004876Y-92085853D01*
X157233775Y-91921695D01*
X157456580Y-91762363D01*
X157670617Y-91609775D01*
X157873209Y-91465849D01*
X158061680Y-91332502D01*
X158233353Y-91211654D01*
X158385552Y-91105221D01*
X158515601Y-91015122D01*
X158620823Y-90943274D01*
X158698543Y-90891597D01*
X158746083Y-90862007D01*
X158757682Y-90856101D01*
X158772660Y-90858298D01*
X158784225Y-90882257D01*
X158793921Y-90934228D01*
X158803292Y-91020463D01*
X158806123Y-91052244D01*
X158814736Y-91188790D01*
X158819425Y-91345594D01*
X158820372Y-91512621D01*
X158817757Y-91679834D01*
X158811763Y-91837196D01*
X158802569Y-91974672D01*
X158790358Y-92082225D01*
X158787180Y-92101459D01*
X158774286Y-92178136D01*
X158766191Y-92235652D01*
X158764242Y-92264092D01*
X158764918Y-92265500D01*
X158785597Y-92256613D01*
X158835662Y-92232657D01*
X158906734Y-92197687D01*
X158961667Y-92170250D01*
X159042645Y-92130117D01*
X159108810Y-92098334D01*
X159151547Y-92078981D01*
X159162730Y-92075000D01*
X159167700Y-92092435D01*
X159163658Y-92122625D01*
X159157932Y-92153209D01*
X159145906Y-92220903D01*
X159128380Y-92321086D01*
X159106155Y-92449135D01*
X159080033Y-92600427D01*
X159050815Y-92770340D01*
X159019302Y-92954252D01*
X159003165Y-93048667D01*
X158871516Y-93809040D01*
X158736663Y-94567543D01*
X158599155Y-95321545D01*
X158459543Y-96068417D01*
X158318377Y-96805528D01*
X158176207Y-97530247D01*
X158033584Y-98239945D01*
X157891059Y-98931990D01*
X157749180Y-99603753D01*
X157608500Y-100252603D01*
X157469567Y-100875910D01*
X157332933Y-101471043D01*
X157199148Y-102035372D01*
X157068762Y-102566267D01*
X156942326Y-103061097D01*
X156820389Y-103517232D01*
X156789302Y-103629843D01*
X156778269Y-103667717D01*
X156765890Y-103701151D01*
X156748677Y-103734174D01*
X156723146Y-103770815D01*
X156685813Y-103815101D01*
X156633190Y-103871062D01*
X156561793Y-103942727D01*
X156468137Y-104034123D01*
X156348736Y-104149281D01*
X156296265Y-104199748D01*
X155412645Y-105025827D01*
X154521008Y-105811926D01*
X153618474Y-106560086D01*
X152702161Y-107272349D01*
X151769187Y-107950756D01*
X150816671Y-108597349D01*
X149841731Y-109214167D01*
X148841486Y-109803252D01*
X147813054Y-110366646D01*
X147002500Y-110783057D01*
X145993260Y-111268507D01*
X144966867Y-111725402D01*
X143926795Y-112152631D01*
X142876515Y-112549084D01*
X141819498Y-112913652D01*
X140759216Y-113245225D01*
X139699141Y-113542692D01*
X138642745Y-113804944D01*
X137593498Y-114030870D01*
X136554874Y-114219362D01*
X135974667Y-114308802D01*
X135749458Y-114340287D01*
X135522492Y-114370230D01*
X135297638Y-114398254D01*
X135078769Y-114423985D01*
X134869757Y-114447048D01*
X134674472Y-114467067D01*
X134496788Y-114483669D01*
X134340575Y-114496476D01*
X134209704Y-114505115D01*
X134108049Y-114509211D01*
X134039480Y-114508388D01*
X134007869Y-114502272D01*
X134006167Y-114499495D01*
X134014577Y-114479269D01*
X134039305Y-114422027D01*
X134079594Y-114329490D01*
X134134687Y-114203380D01*
X134203829Y-114045417D01*
X134286264Y-113857324D01*
X134381234Y-113640821D01*
X134487986Y-113397630D01*
X134605761Y-113129473D01*
X134733803Y-112838071D01*
X134871358Y-112525146D01*
X135017668Y-112192418D01*
X135171978Y-111841609D01*
X135333531Y-111474441D01*
X135501571Y-111092635D01*
X135675342Y-110697912D01*
X135704187Y-110632406D01*
X138832167Y-110632406D01*
X138833475Y-110783762D01*
X138838208Y-110897810D01*
X138847579Y-110979515D01*
X138862801Y-111033846D01*
X138885088Y-111065768D01*
X138915653Y-111080248D01*
X138942157Y-111082667D01*
X138973551Y-111075754D01*
X139038848Y-111056304D01*
X139132168Y-111026246D01*
X139247630Y-110987512D01*
X139379353Y-110942032D01*
X139496582Y-110900629D01*
X139663817Y-110840285D01*
X139795322Y-110791083D01*
X139895627Y-110751084D01*
X139969263Y-110718343D01*
X140020759Y-110690920D01*
X140054645Y-110666872D01*
X140065125Y-110656879D01*
X140123334Y-110595166D01*
X140123334Y-110592063D01*
X142035960Y-110592063D01*
X142037798Y-110708975D01*
X142042119Y-110832391D01*
X142048754Y-110977147D01*
X142056548Y-111084836D01*
X142066803Y-111160724D01*
X142080819Y-111210076D01*
X142099894Y-111238158D01*
X142125331Y-111250237D01*
X142145725Y-111252000D01*
X142173059Y-111245159D01*
X142234570Y-111225901D01*
X142324593Y-111196126D01*
X142437467Y-111157733D01*
X142567527Y-111112620D01*
X142689255Y-111069739D01*
X142861251Y-111007923D01*
X142997119Y-110957119D01*
X143101079Y-110915541D01*
X143177356Y-110881404D01*
X143230173Y-110852921D01*
X143263752Y-110828308D01*
X143266584Y-110825633D01*
X143330084Y-110763788D01*
X143324011Y-110380627D01*
X143320924Y-110255098D01*
X143316090Y-110142339D01*
X143309998Y-110049956D01*
X143303138Y-109985556D01*
X143296808Y-109957983D01*
X143260712Y-109925527D01*
X143232359Y-109918500D01*
X143194852Y-109925872D01*
X143124920Y-109946346D01*
X143029254Y-109977463D01*
X142914546Y-110016763D01*
X142787489Y-110061787D01*
X142654774Y-110110074D01*
X142523094Y-110159164D01*
X142399141Y-110206598D01*
X142289606Y-110249917D01*
X142201182Y-110286658D01*
X142140561Y-110314365D01*
X142116046Y-110328833D01*
X142084898Y-110360620D01*
X142062284Y-110396241D01*
X142047235Y-110442292D01*
X142038783Y-110505367D01*
X142035960Y-110592063D01*
X140123334Y-110592063D01*
X140123334Y-110237044D01*
X140122216Y-110083430D01*
X140118278Y-109966877D01*
X140110642Y-109882158D01*
X140098428Y-109824044D01*
X140080760Y-109787308D01*
X140056757Y-109766722D01*
X140043393Y-109761250D01*
X140014767Y-109765095D01*
X139952849Y-109781425D01*
X139864062Y-109808063D01*
X139754827Y-109842833D01*
X139631568Y-109883560D01*
X139500707Y-109928066D01*
X139368664Y-109974175D01*
X139241863Y-110019711D01*
X139126726Y-110062497D01*
X139029674Y-110100358D01*
X138973583Y-110123789D01*
X138926114Y-110147822D01*
X138890553Y-110176838D01*
X138865209Y-110216918D01*
X138848391Y-110274146D01*
X138838408Y-110354604D01*
X138833569Y-110464373D01*
X138832182Y-110609537D01*
X138832167Y-110632406D01*
X135704187Y-110632406D01*
X135854088Y-110291994D01*
X135956361Y-110059786D01*
X136137980Y-109647426D01*
X136315281Y-109244810D01*
X136465324Y-108904040D01*
X138800417Y-108904040D01*
X138805998Y-109298325D01*
X138808750Y-109447978D01*
X138812965Y-109560514D01*
X138819795Y-109641149D01*
X138830392Y-109695098D01*
X138845909Y-109727576D01*
X138867499Y-109743800D01*
X138896315Y-109748983D01*
X138905644Y-109749167D01*
X138937985Y-109742202D01*
X139004087Y-109722618D01*
X139097966Y-109692379D01*
X139213640Y-109653449D01*
X139345127Y-109607795D01*
X139453901Y-109569107D01*
X139593423Y-109518547D01*
X139721364Y-109471368D01*
X139831786Y-109429828D01*
X139918749Y-109396180D01*
X139976314Y-109372680D01*
X139996855Y-109362929D01*
X140033207Y-109334746D01*
X140047924Y-109314522D01*
X142009518Y-109314522D01*
X142010563Y-109462695D01*
X142011031Y-109489230D01*
X142014796Y-109636089D01*
X142020639Y-109745795D01*
X142029756Y-109823520D01*
X142043343Y-109874436D01*
X142062596Y-109903713D01*
X142088710Y-109916525D01*
X142110300Y-109918472D01*
X142138813Y-109911552D01*
X142201493Y-109892069D01*
X142292718Y-109861912D01*
X142406866Y-109822972D01*
X142538314Y-109777138D01*
X142673917Y-109728996D01*
X142847232Y-109666195D01*
X142984162Y-109614743D01*
X143088608Y-109572987D01*
X143164471Y-109539273D01*
X143215651Y-109511946D01*
X143246051Y-109489352D01*
X143250709Y-109484427D01*
X143268184Y-109462064D01*
X143280769Y-109437088D01*
X143289263Y-109402574D01*
X143294466Y-109351599D01*
X143297178Y-109277240D01*
X143297519Y-109242162D01*
X145213917Y-109242162D01*
X145221150Y-109627956D01*
X145224468Y-109771153D01*
X145228662Y-109877801D01*
X145234284Y-109953684D01*
X145241886Y-110004585D01*
X145252019Y-110036289D01*
X145261472Y-110050792D01*
X145296559Y-110080007D01*
X145317739Y-110087805D01*
X145343157Y-110080910D01*
X145402897Y-110061498D01*
X145491471Y-110031450D01*
X145603394Y-109992651D01*
X145733178Y-109946983D01*
X145867922Y-109898985D01*
X146050909Y-109832409D01*
X146196244Y-109777157D01*
X146306726Y-109732057D01*
X146385148Y-109695936D01*
X146434309Y-109667622D01*
X146450006Y-109654832D01*
X146505084Y-109599471D01*
X146500409Y-109206273D01*
X146497949Y-109056225D01*
X146493883Y-108943321D01*
X146487106Y-108862376D01*
X146476512Y-108808201D01*
X146460996Y-108775611D01*
X146439453Y-108759420D01*
X146410776Y-108754440D01*
X146404083Y-108754334D01*
X146373028Y-108761254D01*
X146308058Y-108780726D01*
X146215037Y-108810817D01*
X146099828Y-108849594D01*
X145968294Y-108895126D01*
X145851050Y-108936617D01*
X145678541Y-108999109D01*
X145542271Y-109050537D01*
X145438130Y-109092649D01*
X145362008Y-109127192D01*
X145309797Y-109155913D01*
X145277417Y-109180532D01*
X145213917Y-109242162D01*
X143297519Y-109242162D01*
X143298198Y-109172573D01*
X143298334Y-109072031D01*
X143297213Y-108918587D01*
X143293264Y-108802196D01*
X143285603Y-108717623D01*
X143273347Y-108659632D01*
X143255613Y-108622987D01*
X143231518Y-108602454D01*
X143218234Y-108597033D01*
X143189744Y-108600925D01*
X143127948Y-108617294D01*
X143039250Y-108643942D01*
X142930051Y-108678670D01*
X142806754Y-108719280D01*
X142675763Y-108763573D01*
X142543479Y-108809351D01*
X142416306Y-108854416D01*
X142300645Y-108896569D01*
X142202901Y-108933612D01*
X142129474Y-108963345D01*
X142086768Y-108983571D01*
X142080694Y-108987628D01*
X142053552Y-109017401D01*
X142033680Y-109059099D01*
X142020261Y-109118601D01*
X142012479Y-109201783D01*
X142009518Y-109314522D01*
X140047924Y-109314522D01*
X140059889Y-109298080D01*
X140077967Y-109246931D01*
X140088503Y-109175296D01*
X140092560Y-109077176D01*
X140091202Y-108946569D01*
X140088146Y-108847728D01*
X140081651Y-108699188D01*
X140073399Y-108587985D01*
X140062201Y-108509123D01*
X140052310Y-108475885D01*
X140383045Y-108475885D01*
X140383484Y-108595238D01*
X140388453Y-108741224D01*
X140394611Y-108862125D01*
X140402191Y-108969081D01*
X140410489Y-109054566D01*
X140418804Y-109111052D01*
X140424769Y-109130042D01*
X140441392Y-109144510D01*
X140465888Y-109151773D01*
X140502851Y-109150737D01*
X140556877Y-109140306D01*
X140632561Y-109119384D01*
X140734498Y-109086876D01*
X140867282Y-109041687D01*
X141020549Y-108988003D01*
X141158639Y-108938828D01*
X141286714Y-108892385D01*
X141398244Y-108851108D01*
X141486701Y-108817428D01*
X141545558Y-108793781D01*
X141563769Y-108785513D01*
X141607328Y-108757910D01*
X141639617Y-108722487D01*
X141661879Y-108673368D01*
X141675355Y-108604672D01*
X141681287Y-108510524D01*
X141680918Y-108385044D01*
X141676651Y-108251265D01*
X141670826Y-108131741D01*
X141663535Y-108026196D01*
X141655474Y-107942260D01*
X141652611Y-107923005D01*
X141971004Y-107923005D01*
X141972860Y-108041325D01*
X141977501Y-108167596D01*
X141984490Y-108312089D01*
X141992618Y-108419505D01*
X142003188Y-108495101D01*
X142017502Y-108544130D01*
X142036864Y-108571851D01*
X142062577Y-108583518D01*
X142080974Y-108585000D01*
X142107948Y-108578158D01*
X142169124Y-108558897D01*
X142258864Y-108529113D01*
X142371531Y-108490702D01*
X142501486Y-108445559D01*
X142624503Y-108402187D01*
X142798110Y-108339726D01*
X142935406Y-108288283D01*
X143040456Y-108246144D01*
X143117324Y-108211594D01*
X143170072Y-108182919D01*
X143202765Y-108158405D01*
X143203084Y-108158099D01*
X143266584Y-108096826D01*
X143260495Y-107721788D01*
X143257922Y-107597897D01*
X143254566Y-107487090D01*
X143250742Y-107396987D01*
X143246763Y-107335207D01*
X143245777Y-107327743D01*
X143561993Y-107327743D01*
X143562394Y-107453960D01*
X143566571Y-107589985D01*
X143572018Y-107723350D01*
X143577359Y-107820712D01*
X143583474Y-107888388D01*
X143591243Y-107932695D01*
X143601547Y-107959953D01*
X143615266Y-107976478D01*
X143621054Y-107980908D01*
X143634708Y-107990542D01*
X143648136Y-107997107D01*
X143666032Y-107999313D01*
X143693091Y-107995870D01*
X143734005Y-107985488D01*
X143793469Y-107966875D01*
X143876177Y-107938742D01*
X143952073Y-107912030D01*
X145178865Y-107912030D01*
X145185808Y-108303171D01*
X145188591Y-108441903D01*
X145191767Y-108544408D01*
X145196030Y-108616790D01*
X145202078Y-108665153D01*
X145210605Y-108695602D01*
X145222310Y-108714241D01*
X145233837Y-108724322D01*
X145271516Y-108747688D01*
X145290125Y-108754334D01*
X145313361Y-108747488D01*
X145371044Y-108728198D01*
X145457781Y-108698336D01*
X145568180Y-108659773D01*
X145696846Y-108614379D01*
X145831121Y-108566621D01*
X146012515Y-108500875D01*
X146156576Y-108446352D01*
X146266409Y-108401752D01*
X146345119Y-108365773D01*
X146395810Y-108337114D01*
X146415125Y-108321874D01*
X146473334Y-108264839D01*
X146473334Y-107897131D01*
X146472378Y-107741534D01*
X146468838Y-107623322D01*
X146461703Y-107537574D01*
X146449960Y-107479372D01*
X146432600Y-107443795D01*
X146408611Y-107425925D01*
X146376982Y-107420841D01*
X146375449Y-107420834D01*
X146340511Y-107427774D01*
X146271871Y-107447298D01*
X146175589Y-107477462D01*
X146057726Y-107516322D01*
X145924343Y-107561934D01*
X145808717Y-107602626D01*
X145643428Y-107662157D01*
X145513635Y-107710532D01*
X145414612Y-107749786D01*
X145341629Y-107781957D01*
X145289959Y-107809083D01*
X145254873Y-107833200D01*
X145238724Y-107848224D01*
X145178865Y-107912030D01*
X143952073Y-107912030D01*
X143986822Y-107899800D01*
X144130099Y-107848756D01*
X144224833Y-107814942D01*
X144390065Y-107755732D01*
X144520052Y-107708214D01*
X144619518Y-107670127D01*
X144693187Y-107639210D01*
X144745781Y-107613201D01*
X144782025Y-107589841D01*
X144806641Y-107566867D01*
X144824354Y-107542019D01*
X144834839Y-107522950D01*
X144847472Y-107493030D01*
X144855917Y-107455964D01*
X144860487Y-107404744D01*
X144861496Y-107332360D01*
X144859258Y-107231803D01*
X144854088Y-107096065D01*
X144854030Y-107094683D01*
X144847813Y-106973883D01*
X144840161Y-106867029D01*
X144831785Y-106781656D01*
X144823395Y-106725298D01*
X144817535Y-106706859D01*
X145150606Y-106706859D01*
X145151483Y-106901303D01*
X145153900Y-107057486D01*
X145158464Y-107179470D01*
X145165781Y-107271317D01*
X145176458Y-107337088D01*
X145191102Y-107380845D01*
X145210319Y-107406651D01*
X145234717Y-107418567D01*
X145257233Y-107420834D01*
X145284469Y-107413885D01*
X145345868Y-107394315D01*
X145435833Y-107364035D01*
X145548765Y-107324954D01*
X145679068Y-107278986D01*
X145808644Y-107232555D01*
X145932782Y-107187048D01*
X148358671Y-107187048D01*
X148364521Y-107341383D01*
X148378408Y-107457215D01*
X148400600Y-107536126D01*
X148431368Y-107579695D01*
X148462236Y-107590167D01*
X148486066Y-107583305D01*
X148544306Y-107563970D01*
X148631538Y-107534037D01*
X148742344Y-107495381D01*
X148871308Y-107449879D01*
X149005766Y-107401997D01*
X149189311Y-107335313D01*
X149335192Y-107279898D01*
X149446208Y-107234582D01*
X149525156Y-107198192D01*
X149574837Y-107169556D01*
X149590125Y-107157250D01*
X149648334Y-107100673D01*
X149648334Y-106719612D01*
X149647117Y-106583539D01*
X149643688Y-106466685D01*
X149638374Y-106375390D01*
X149631507Y-106315997D01*
X149626422Y-106297609D01*
X149586420Y-106263907D01*
X149547047Y-106256652D01*
X149504031Y-106264126D01*
X149429208Y-106284899D01*
X149329333Y-106316481D01*
X149211162Y-106356381D01*
X149081451Y-106402110D01*
X148946955Y-106451175D01*
X148814431Y-106501086D01*
X148690634Y-106549354D01*
X148582321Y-106593486D01*
X148496247Y-106630993D01*
X148439167Y-106659383D01*
X148420667Y-106671910D01*
X148398703Y-106695563D01*
X148383535Y-106721885D01*
X148373616Y-106759126D01*
X148367401Y-106815537D01*
X148363344Y-106899368D01*
X148360590Y-106992630D01*
X148358671Y-107187048D01*
X145932782Y-107187048D01*
X145990513Y-107165885D01*
X146134813Y-107110585D01*
X146244392Y-107065451D01*
X146322103Y-107029276D01*
X146370795Y-107000855D01*
X146385964Y-106988371D01*
X146441584Y-106932464D01*
X146437052Y-106568107D01*
X146434773Y-106418316D01*
X146431622Y-106305352D01*
X146426780Y-106223708D01*
X146420725Y-106177731D01*
X146739549Y-106177731D01*
X146740439Y-106308639D01*
X146743003Y-106403621D01*
X146747831Y-106523527D01*
X146754101Y-106630404D01*
X146761191Y-106716276D01*
X146768481Y-106773165D01*
X146773184Y-106791125D01*
X146807741Y-106820609D01*
X146841064Y-106828167D01*
X146873867Y-106821218D01*
X146940421Y-106801680D01*
X147034721Y-106771511D01*
X147150764Y-106732670D01*
X147282546Y-106687118D01*
X147391667Y-106648452D01*
X147531229Y-106598194D01*
X147659167Y-106551589D01*
X147769560Y-106510835D01*
X147856486Y-106478134D01*
X147914023Y-106455685D01*
X147934628Y-106446741D01*
X147972317Y-106413215D01*
X148008408Y-106361433D01*
X148010737Y-106357046D01*
X148023707Y-106326601D01*
X148032388Y-106289410D01*
X148037129Y-106238338D01*
X148038277Y-106166251D01*
X148036177Y-106066017D01*
X148031320Y-105933979D01*
X148025819Y-105813787D01*
X148019768Y-105707105D01*
X148013699Y-105621684D01*
X148011955Y-105603977D01*
X148327437Y-105603977D01*
X148328428Y-105744164D01*
X148330161Y-105812167D01*
X148336370Y-105967465D01*
X148345358Y-106084669D01*
X148357991Y-106167977D01*
X148375137Y-106221586D01*
X148397661Y-106249692D01*
X148421965Y-106256667D01*
X148446889Y-106249788D01*
X148506202Y-106230397D01*
X148594475Y-106200362D01*
X148706280Y-106161549D01*
X148836189Y-106115827D01*
X148977102Y-106065662D01*
X149168882Y-105995816D01*
X149321548Y-105937505D01*
X149436542Y-105890130D01*
X149515306Y-105853092D01*
X149559282Y-105825791D01*
X149563667Y-105821813D01*
X149587913Y-105794235D01*
X149603813Y-105763200D01*
X149613499Y-105718981D01*
X149619105Y-105651853D01*
X149622755Y-105552442D01*
X149623710Y-105432393D01*
X149620877Y-105301289D01*
X149614851Y-105181904D01*
X149612171Y-105147923D01*
X149605420Y-105070649D01*
X149597569Y-105010527D01*
X149584229Y-104967156D01*
X149561012Y-104940137D01*
X149523533Y-104929069D01*
X149467401Y-104933552D01*
X149388231Y-104953184D01*
X149281635Y-104987566D01*
X149143224Y-105036297D01*
X148990391Y-105091173D01*
X148848170Y-105142450D01*
X148717435Y-105190125D01*
X148604008Y-105232032D01*
X148513708Y-105266004D01*
X148452358Y-105289876D01*
X148426942Y-105300809D01*
X148389514Y-105327418D01*
X148361930Y-105365337D01*
X148343108Y-105420267D01*
X148331970Y-105497912D01*
X148327437Y-105603977D01*
X148011955Y-105603977D01*
X148008142Y-105565278D01*
X148004779Y-105547040D01*
X147976066Y-105516794D01*
X147947374Y-105504352D01*
X147916849Y-105508536D01*
X147853234Y-105525375D01*
X147763058Y-105552603D01*
X147652849Y-105587959D01*
X147529136Y-105629179D01*
X147398447Y-105673998D01*
X147267310Y-105720154D01*
X147142254Y-105765382D01*
X147029806Y-105807421D01*
X146936496Y-105844005D01*
X146868852Y-105872872D01*
X146836765Y-105889420D01*
X146800071Y-105918512D01*
X146773111Y-105955811D01*
X146754776Y-106007395D01*
X146743958Y-106079342D01*
X146739549Y-106177731D01*
X146420725Y-106177731D01*
X146419427Y-106167880D01*
X146408744Y-106132360D01*
X146393913Y-106111643D01*
X146374114Y-106100221D01*
X146367097Y-106097789D01*
X146332110Y-106100519D01*
X146259862Y-106118229D01*
X146152443Y-106150289D01*
X146011942Y-106196067D01*
X145840447Y-106254933D01*
X145800938Y-106268811D01*
X145622398Y-106332214D01*
X145479886Y-106384709D01*
X145369350Y-106429024D01*
X145286742Y-106467887D01*
X145228010Y-106504026D01*
X145189106Y-106540169D01*
X145165978Y-106579044D01*
X145154578Y-106623379D01*
X145150854Y-106675902D01*
X145150606Y-106706859D01*
X144817535Y-106706859D01*
X144817407Y-106706459D01*
X144780490Y-106685152D01*
X144747888Y-106680000D01*
X144716026Y-106686920D01*
X144651146Y-106706122D01*
X144559963Y-106735270D01*
X144449189Y-106772031D01*
X144325536Y-106814067D01*
X144195717Y-106859044D01*
X144066446Y-106904627D01*
X143944435Y-106948480D01*
X143836396Y-106988268D01*
X143749043Y-107021656D01*
X143689088Y-107046308D01*
X143672374Y-107054165D01*
X143631523Y-107080410D01*
X143601196Y-107115131D01*
X143580257Y-107164088D01*
X143567569Y-107233038D01*
X143561993Y-107327743D01*
X143245777Y-107327743D01*
X143243537Y-107310791D01*
X143232129Y-107286334D01*
X143212381Y-107270867D01*
X143180008Y-107265237D01*
X143130726Y-107270291D01*
X143060250Y-107286878D01*
X142964297Y-107315845D01*
X142838581Y-107358039D01*
X142678820Y-107414308D01*
X142627581Y-107432637D01*
X142484918Y-107484640D01*
X142353159Y-107534288D01*
X142238303Y-107579191D01*
X142146350Y-107616960D01*
X142083301Y-107645205D01*
X142056989Y-107659883D01*
X142023740Y-107690104D01*
X141999522Y-107725108D01*
X141983330Y-107771314D01*
X141974159Y-107835140D01*
X141971004Y-107923005D01*
X141652611Y-107923005D01*
X141647341Y-107887564D01*
X141641875Y-107870625D01*
X141605914Y-107849952D01*
X141568993Y-107844167D01*
X141536687Y-107851121D01*
X141471419Y-107870416D01*
X141379928Y-107899699D01*
X141268953Y-107936617D01*
X141145234Y-107978818D01*
X141015509Y-108023949D01*
X140886518Y-108069657D01*
X140765001Y-108113591D01*
X140657696Y-108153397D01*
X140571343Y-108186723D01*
X140512682Y-108211217D01*
X140499400Y-108217541D01*
X140456098Y-108244031D01*
X140424079Y-108277128D01*
X140402075Y-108322813D01*
X140388820Y-108387071D01*
X140383045Y-108475885D01*
X140052310Y-108475885D01*
X140046870Y-108457608D01*
X140026215Y-108428448D01*
X139999048Y-108416648D01*
X139985305Y-108415667D01*
X139959201Y-108422578D01*
X139898841Y-108442049D01*
X139809759Y-108472183D01*
X139697489Y-108511085D01*
X139567564Y-108556859D01*
X139435636Y-108603973D01*
X139253895Y-108670292D01*
X139109655Y-108725284D01*
X138999988Y-108770181D01*
X138921967Y-108806217D01*
X138872666Y-108834624D01*
X138856009Y-108848159D01*
X138800417Y-108904040D01*
X136465324Y-108904040D01*
X136487493Y-108853692D01*
X136653845Y-108475825D01*
X136813566Y-108112963D01*
X136885028Y-107950582D01*
X138769137Y-107950582D01*
X138770162Y-108104695D01*
X138774425Y-108221421D01*
X138783047Y-108305652D01*
X138797146Y-108362284D01*
X138817844Y-108396207D01*
X138846260Y-108412317D01*
X138875582Y-108415667D01*
X138906247Y-108408719D01*
X138970730Y-108389190D01*
X139063095Y-108359048D01*
X139177405Y-108320264D01*
X139307726Y-108274808D01*
X139411832Y-108237726D01*
X139550687Y-108187528D01*
X139678132Y-108140875D01*
X139788148Y-108100016D01*
X139874719Y-108067201D01*
X139931827Y-108044679D01*
X139951481Y-108036015D01*
X139990422Y-108008709D01*
X140019089Y-107970380D01*
X140038922Y-107914867D01*
X140051363Y-107836011D01*
X140057851Y-107727653D01*
X140059827Y-107583633D01*
X140059834Y-107572697D01*
X140058948Y-107455568D01*
X140056516Y-107348458D01*
X140052870Y-107260921D01*
X140048344Y-107202513D01*
X140046454Y-107189894D01*
X140037299Y-107152450D01*
X140023806Y-107125253D01*
X140001495Y-107108834D01*
X139965886Y-107103722D01*
X139912498Y-107110447D01*
X139836854Y-107129537D01*
X139734472Y-107161524D01*
X139600873Y-107206935D01*
X139447498Y-107260688D01*
X139278559Y-107320359D01*
X139144925Y-107368070D01*
X139041930Y-107405810D01*
X138964913Y-107435572D01*
X138909207Y-107459345D01*
X138870150Y-107479121D01*
X138843078Y-107496891D01*
X138823326Y-107514644D01*
X138806230Y-107534373D01*
X138806179Y-107534436D01*
X138792703Y-107556183D01*
X138782915Y-107587427D01*
X138776240Y-107634614D01*
X138772105Y-107704193D01*
X138769936Y-107802610D01*
X138769159Y-107936315D01*
X138769137Y-107950582D01*
X136885028Y-107950582D01*
X136965884Y-107766860D01*
X137110028Y-107439270D01*
X137245227Y-107131945D01*
X137370710Y-106846641D01*
X137485705Y-106585110D01*
X137566377Y-106401577D01*
X141943667Y-106401577D01*
X141943667Y-106779496D01*
X141944878Y-106935201D01*
X141949210Y-107053442D01*
X141957706Y-107139035D01*
X141971412Y-107196800D01*
X141991372Y-107231554D01*
X142018632Y-107248113D01*
X142046038Y-107251500D01*
X142075098Y-107244534D01*
X142138257Y-107224908D01*
X142229866Y-107194529D01*
X142344277Y-107155302D01*
X142475841Y-107109135D01*
X142610417Y-107061000D01*
X142751101Y-107010314D01*
X142878131Y-106964704D01*
X142986250Y-106926043D01*
X143070204Y-106896206D01*
X143124734Y-106877069D01*
X143144557Y-106870500D01*
X143158397Y-106854361D01*
X143184935Y-106814323D01*
X143192732Y-106801709D01*
X143208510Y-106771774D01*
X143219785Y-106737035D01*
X143227288Y-106690185D01*
X143231747Y-106623918D01*
X143233891Y-106530928D01*
X143234449Y-106403907D01*
X143234442Y-106383667D01*
X143232956Y-106231149D01*
X143228046Y-106115810D01*
X143218690Y-106032562D01*
X143203865Y-105976319D01*
X143182548Y-105941993D01*
X143153718Y-105924499D01*
X143141520Y-105921384D01*
X143111604Y-105926255D01*
X143047680Y-105943887D01*
X142955476Y-105972451D01*
X142840725Y-106010119D01*
X142709156Y-106055061D01*
X142581135Y-106100205D01*
X142401869Y-106165299D01*
X142259716Y-106219185D01*
X142151372Y-106263256D01*
X142073533Y-106298900D01*
X142022897Y-106327510D01*
X142001875Y-106344089D01*
X141943667Y-106401577D01*
X137566377Y-106401577D01*
X137589441Y-106349106D01*
X137681147Y-106140383D01*
X137760051Y-105960695D01*
X137815640Y-105834001D01*
X143531167Y-105834001D01*
X143531167Y-106199374D01*
X143532409Y-106352349D01*
X143536918Y-106467977D01*
X143545869Y-106551194D01*
X143560435Y-106606933D01*
X143581791Y-106640131D01*
X143611110Y-106655721D01*
X143640492Y-106658834D01*
X143671720Y-106651986D01*
X143736904Y-106632717D01*
X143830167Y-106602939D01*
X143945631Y-106564565D01*
X144077419Y-106519507D01*
X144194917Y-106478429D01*
X144359628Y-106419679D01*
X144488853Y-106372016D01*
X144587356Y-106333402D01*
X144659898Y-106301797D01*
X144711240Y-106275162D01*
X144746145Y-106251458D01*
X144764125Y-106234679D01*
X144822334Y-106171332D01*
X144822334Y-105813211D01*
X144821199Y-105659335D01*
X144817481Y-105550103D01*
X145121258Y-105550103D01*
X145122612Y-105651783D01*
X145126290Y-105799886D01*
X145131988Y-105910786D01*
X145140872Y-105989605D01*
X145154112Y-106041466D01*
X145172875Y-106071491D01*
X145198328Y-106084802D01*
X145221800Y-106086908D01*
X145250311Y-106079874D01*
X145312987Y-106060274D01*
X145404205Y-106030002D01*
X145518345Y-105990956D01*
X145649784Y-105945031D01*
X145785417Y-105896807D01*
X145952906Y-105836195D01*
X146084697Y-105787010D01*
X146185264Y-105747326D01*
X146259081Y-105715217D01*
X146310622Y-105688756D01*
X146344361Y-105666017D01*
X146362103Y-105648524D01*
X146379265Y-105625224D01*
X146391715Y-105599541D01*
X146400208Y-105564659D01*
X146405500Y-105513758D01*
X146408347Y-105440020D01*
X146409506Y-105336626D01*
X146409728Y-105218918D01*
X146409104Y-105078294D01*
X146406815Y-104973811D01*
X146402378Y-104899295D01*
X146395306Y-104848569D01*
X146385115Y-104815459D01*
X146376883Y-104800877D01*
X146340261Y-104765572D01*
X146309043Y-104753834D01*
X146281190Y-104760711D01*
X146220113Y-104779810D01*
X146132352Y-104808830D01*
X146024445Y-104845471D01*
X145902934Y-104887431D01*
X145774357Y-104932410D01*
X145645255Y-104978107D01*
X145522168Y-105022222D01*
X145411635Y-105062453D01*
X145320196Y-105096502D01*
X145254392Y-105122065D01*
X145221618Y-105136376D01*
X145185455Y-105161433D01*
X145158539Y-105196385D01*
X145139766Y-105246980D01*
X145128030Y-105318966D01*
X145122229Y-105418091D01*
X145121258Y-105550103D01*
X144817481Y-105550103D01*
X144817224Y-105542558D01*
X144809554Y-105457694D01*
X144797331Y-105399555D01*
X144779701Y-105362955D01*
X144755806Y-105342707D01*
X144743886Y-105337891D01*
X144713534Y-105341439D01*
X144648602Y-105358248D01*
X144554155Y-105386737D01*
X144435260Y-105425325D01*
X144296981Y-105472433D01*
X144176465Y-105514954D01*
X144010249Y-105574975D01*
X143879434Y-105623619D01*
X143779275Y-105662941D01*
X143705029Y-105694995D01*
X143651948Y-105721836D01*
X143615290Y-105745518D01*
X143590308Y-105768095D01*
X143589375Y-105769126D01*
X143531167Y-105834001D01*
X137815640Y-105834001D01*
X137825383Y-105811796D01*
X137876371Y-105695438D01*
X137912243Y-105613377D01*
X137932229Y-105567365D01*
X137936128Y-105558167D01*
X137954073Y-105511540D01*
X137954811Y-105499530D01*
X137937095Y-105517543D01*
X137927975Y-105528137D01*
X137911370Y-105550473D01*
X137871765Y-105605324D01*
X137810613Y-105690650D01*
X137729364Y-105804408D01*
X137629472Y-105944556D01*
X137512387Y-106109051D01*
X137379560Y-106295853D01*
X137232445Y-106502918D01*
X137072492Y-106728205D01*
X136901154Y-106969673D01*
X136719881Y-107225277D01*
X136530126Y-107492978D01*
X136333340Y-107770733D01*
X136239250Y-107903582D01*
X136040238Y-108184483D01*
X135847899Y-108455716D01*
X135663655Y-108715290D01*
X135488928Y-108961210D01*
X135325141Y-109191484D01*
X135173714Y-109404119D01*
X135036070Y-109597123D01*
X134913630Y-109768502D01*
X134807817Y-109916263D01*
X134720052Y-110038414D01*
X134651757Y-110132962D01*
X134604354Y-110197913D01*
X134579264Y-110231275D01*
X134575540Y-110235487D01*
X134554364Y-110227192D01*
X134498128Y-110203158D01*
X134410406Y-110164960D01*
X134294768Y-110114175D01*
X134154787Y-110052376D01*
X133994035Y-109981139D01*
X133816083Y-109902041D01*
X133624503Y-109816655D01*
X133517207Y-109768740D01*
X133276995Y-109661929D01*
X133063761Y-109568212D01*
X132879192Y-109488296D01*
X132724975Y-109422889D01*
X132602796Y-109372700D01*
X132514342Y-109338436D01*
X132461301Y-109320805D01*
X132445737Y-109318948D01*
X132429071Y-109336693D01*
X132386219Y-109384610D01*
X132318750Y-109460903D01*
X132228232Y-109563778D01*
X132116233Y-109691439D01*
X131984322Y-109842092D01*
X131834068Y-110013942D01*
X131667038Y-110205194D01*
X131484800Y-110414053D01*
X131288925Y-110638724D01*
X131080979Y-110877414D01*
X130862531Y-111128325D01*
X130635149Y-111389665D01*
X130405159Y-111654167D01*
X130170784Y-111923730D01*
X129943967Y-112184476D01*
X129726265Y-112434626D01*
X129519231Y-112672395D01*
X129324422Y-112896003D01*
X129143392Y-113103667D01*
X128977696Y-113293606D01*
X128828890Y-113464036D01*
X128698529Y-113613178D01*
X128588167Y-113739248D01*
X128499361Y-113840464D01*
X128433665Y-113915045D01*
X128392634Y-113961208D01*
X128377838Y-113977168D01*
X128359183Y-113965420D01*
X128311510Y-113929679D01*
X128238488Y-113872850D01*
X128143785Y-113797842D01*
X128031070Y-113707562D01*
X127904012Y-113604918D01*
X127766277Y-113492817D01*
X127751417Y-113480675D01*
X127673242Y-113416780D01*
X127564213Y-113327673D01*
X127426256Y-113214930D01*
X127261298Y-113080123D01*
X127071264Y-112924828D01*
X126858083Y-112750618D01*
X126623680Y-112559069D01*
X126369983Y-112351755D01*
X126098917Y-112130250D01*
X125812410Y-111896128D01*
X125512388Y-111650964D01*
X125200778Y-111396333D01*
X124879506Y-111133808D01*
X124550499Y-110864964D01*
X124215685Y-110591375D01*
X123876988Y-110314617D01*
X123772084Y-110228896D01*
X123441873Y-109959045D01*
X123120177Y-109696099D01*
X122808548Y-109441328D01*
X122508540Y-109196004D01*
X122221705Y-108961400D01*
X121949598Y-108738787D01*
X121693770Y-108529436D01*
X121455776Y-108334620D01*
X121237167Y-108155610D01*
X121039498Y-107993677D01*
X120864322Y-107850094D01*
X120713191Y-107726133D01*
X120587658Y-107623064D01*
X120489278Y-107542159D01*
X120419602Y-107484691D01*
X120380185Y-107451931D01*
X120371592Y-107444556D01*
X120363352Y-107432229D01*
X120355946Y-107410086D01*
X120349117Y-107374673D01*
X120342612Y-107322536D01*
X120336175Y-107250219D01*
X120329550Y-107154268D01*
X120322482Y-107031230D01*
X120314717Y-106877649D01*
X120305998Y-106690071D01*
X120296072Y-106465041D01*
X120291651Y-106362500D01*
X120253505Y-105462917D01*
X137964334Y-105462917D01*
X137974917Y-105473500D01*
X137985500Y-105462917D01*
X137974917Y-105452334D01*
X137964334Y-105462917D01*
X120253505Y-105462917D01*
X120248561Y-105346339D01*
X120219951Y-104654238D01*
X143495531Y-104654238D01*
X143496470Y-104775485D01*
X143500959Y-104908598D01*
X143506923Y-105029746D01*
X143514302Y-105136954D01*
X143522413Y-105222714D01*
X143530571Y-105279514D01*
X143536519Y-105298875D01*
X143554020Y-105313774D01*
X143580325Y-105320952D01*
X143619941Y-105319325D01*
X143677375Y-105307809D01*
X143757135Y-105285321D01*
X143863727Y-105250777D01*
X144001659Y-105203092D01*
X144141374Y-105153401D01*
X144279238Y-105103635D01*
X144406710Y-105056921D01*
X144517401Y-105015657D01*
X144604918Y-104982240D01*
X144662872Y-104959067D01*
X144681126Y-104950911D01*
X144723268Y-104923734D01*
X144754478Y-104887365D01*
X144775903Y-104836076D01*
X144788689Y-104764142D01*
X144793981Y-104665834D01*
X144792927Y-104535426D01*
X144788677Y-104413497D01*
X144782605Y-104279862D01*
X144776585Y-104182116D01*
X144769728Y-104113829D01*
X144762774Y-104077168D01*
X148293667Y-104077168D01*
X148294172Y-104399626D01*
X148296497Y-104570153D01*
X148303387Y-104702279D01*
X148315613Y-104799767D01*
X148333947Y-104866378D01*
X148359158Y-104905874D01*
X148392017Y-104922019D01*
X148401361Y-104922843D01*
X148423890Y-104916080D01*
X148480760Y-104896885D01*
X148566482Y-104867171D01*
X148675568Y-104828852D01*
X148802531Y-104783843D01*
X148915667Y-104743452D01*
X149082954Y-104683438D01*
X149215033Y-104635586D01*
X149316582Y-104597876D01*
X149392282Y-104568289D01*
X149446811Y-104544806D01*
X149484848Y-104525408D01*
X149511074Y-104508076D01*
X149530166Y-104490791D01*
X149546805Y-104471534D01*
X149547321Y-104470898D01*
X149560695Y-104449345D01*
X149570439Y-104418390D01*
X149577113Y-104371647D01*
X149581279Y-104302729D01*
X149583495Y-104205252D01*
X149584323Y-104072828D01*
X149584363Y-104048650D01*
X149583298Y-103912793D01*
X149579963Y-103796464D01*
X149574680Y-103705980D01*
X149567775Y-103647658D01*
X149562922Y-103630609D01*
X149524175Y-103597326D01*
X149487569Y-103589667D01*
X149453519Y-103596531D01*
X149385661Y-103615843D01*
X149290008Y-103645684D01*
X149172574Y-103684136D01*
X149039371Y-103729279D01*
X148922106Y-103770117D01*
X148757234Y-103828820D01*
X148627857Y-103876448D01*
X148529214Y-103915036D01*
X148456547Y-103946617D01*
X148405098Y-103973227D01*
X148370107Y-103996898D01*
X148351875Y-104013867D01*
X148293667Y-104077168D01*
X144762774Y-104077168D01*
X144761142Y-104068567D01*
X144749940Y-104039897D01*
X144735230Y-104021389D01*
X144734325Y-104020559D01*
X144720456Y-104010443D01*
X144702407Y-104005187D01*
X144675351Y-104006081D01*
X144634458Y-104014416D01*
X144574901Y-104031479D01*
X144491851Y-104058560D01*
X144380479Y-104096949D01*
X144235957Y-104147934D01*
X144171207Y-104170928D01*
X144028156Y-104222237D01*
X143896362Y-104270390D01*
X143781696Y-104313170D01*
X143690029Y-104348364D01*
X143627232Y-104373755D01*
X143600399Y-104386302D01*
X143560913Y-104415290D01*
X143531854Y-104450425D01*
X143512052Y-104497860D01*
X143500335Y-104563747D01*
X143495531Y-104654238D01*
X120219951Y-104654238D01*
X120208223Y-104370556D01*
X120198135Y-104119415D01*
X141880272Y-104119415D01*
X141881478Y-104273845D01*
X141885916Y-104390847D01*
X141894665Y-104475270D01*
X141908804Y-104531965D01*
X141929412Y-104565782D01*
X141957568Y-104581571D01*
X141983770Y-104584500D01*
X142013433Y-104577582D01*
X142077029Y-104558124D01*
X142168714Y-104528073D01*
X142282642Y-104489377D01*
X142412968Y-104443981D01*
X142523333Y-104404786D01*
X142662895Y-104354528D01*
X142790834Y-104307922D01*
X142901226Y-104267169D01*
X142988152Y-104234468D01*
X143045690Y-104212019D01*
X143066295Y-104203075D01*
X143102764Y-104177572D01*
X143129937Y-104141584D01*
X143149075Y-104089206D01*
X143161439Y-104014532D01*
X143168290Y-103911656D01*
X143170887Y-103774672D01*
X143171021Y-103712426D01*
X143169382Y-103559526D01*
X143164152Y-103443955D01*
X143154394Y-103360792D01*
X143139170Y-103305118D01*
X143117542Y-103272010D01*
X143088572Y-103256548D01*
X143083941Y-103255524D01*
X143055793Y-103260709D01*
X142993429Y-103278602D01*
X142902403Y-103307396D01*
X142788267Y-103345287D01*
X142656575Y-103390471D01*
X142512973Y-103441109D01*
X142343026Y-103502413D01*
X142208936Y-103552305D01*
X142106359Y-103592639D01*
X142030950Y-103625269D01*
X141978366Y-103652047D01*
X141944263Y-103674829D01*
X141927897Y-103690773D01*
X141910738Y-103713701D01*
X141898290Y-103739065D01*
X141889798Y-103773667D01*
X141884505Y-103824307D01*
X141881656Y-103897787D01*
X141880496Y-104000908D01*
X141880272Y-104119415D01*
X120198135Y-104119415D01*
X120170574Y-103433290D01*
X120160330Y-103169889D01*
X143465087Y-103169889D01*
X143471668Y-103561441D01*
X143474317Y-103700210D01*
X143477383Y-103802752D01*
X143481558Y-103875171D01*
X143487534Y-103923573D01*
X143496003Y-103954062D01*
X143507658Y-103972744D01*
X143519473Y-103983095D01*
X143532050Y-103992877D01*
X143543554Y-104000011D01*
X143558536Y-104003234D01*
X143581550Y-104001283D01*
X143617148Y-103992896D01*
X143669883Y-103976810D01*
X143744307Y-103951762D01*
X143844973Y-103916490D01*
X143976433Y-103869731D01*
X144143240Y-103810221D01*
X144145000Y-103809594D01*
X144307147Y-103751177D01*
X144433933Y-103703879D01*
X144530213Y-103665592D01*
X144600840Y-103634210D01*
X144650669Y-103607624D01*
X144684552Y-103583726D01*
X144700625Y-103568306D01*
X144758834Y-103504332D01*
X144758834Y-103138959D01*
X144757551Y-102985581D01*
X144752964Y-102869601D01*
X144743957Y-102786140D01*
X144729420Y-102730321D01*
X144722332Y-102719258D01*
X145057512Y-102719258D01*
X145057715Y-102815733D01*
X145059471Y-102946976D01*
X145059786Y-102967353D01*
X145063084Y-103118923D01*
X145068307Y-103233180D01*
X145076478Y-103315135D01*
X145088621Y-103369801D01*
X145105758Y-103402187D01*
X145128913Y-103417305D01*
X145152270Y-103420334D01*
X145179463Y-103413483D01*
X145240629Y-103394242D01*
X145329919Y-103364576D01*
X145441481Y-103326451D01*
X145569465Y-103281832D01*
X145662970Y-103248756D01*
X145801713Y-103199239D01*
X145930564Y-103152956D01*
X146043031Y-103112264D01*
X146132622Y-103079517D01*
X146192841Y-103057072D01*
X146212636Y-103049340D01*
X146257409Y-103026395D01*
X146291084Y-102995665D01*
X146315184Y-102951311D01*
X146331235Y-102887494D01*
X146340759Y-102798373D01*
X146345281Y-102678111D01*
X146346334Y-102537094D01*
X146344934Y-102384733D01*
X146340010Y-102269828D01*
X146330475Y-102187573D01*
X146315240Y-102133159D01*
X146293218Y-102101780D01*
X146263321Y-102088629D01*
X146244592Y-102087394D01*
X146215683Y-102094437D01*
X146152612Y-102113995D01*
X146061024Y-102144176D01*
X145946565Y-102183090D01*
X145814879Y-102228844D01*
X145679605Y-102276695D01*
X145512723Y-102336775D01*
X145381476Y-102385475D01*
X145281320Y-102424746D01*
X145207712Y-102456543D01*
X145156109Y-102482816D01*
X145121965Y-102505520D01*
X145102141Y-102524843D01*
X145085000Y-102547574D01*
X145072606Y-102571708D01*
X145064318Y-102603918D01*
X145059500Y-102650877D01*
X145057512Y-102719258D01*
X144722332Y-102719258D01*
X144708240Y-102697264D01*
X144679303Y-102682092D01*
X144654055Y-102679500D01*
X144624129Y-102686286D01*
X144560114Y-102705385D01*
X144467800Y-102734914D01*
X144352979Y-102772987D01*
X144221442Y-102817718D01*
X144099630Y-102859982D01*
X143935253Y-102918079D01*
X143806281Y-102965132D01*
X143707869Y-103003207D01*
X143635169Y-103034370D01*
X143583335Y-103060689D01*
X143547522Y-103084229D01*
X143524585Y-103105177D01*
X143465087Y-103169889D01*
X120160330Y-103169889D01*
X120135548Y-102532680D01*
X120103081Y-101666864D01*
X120073111Y-100833980D01*
X120045573Y-100032168D01*
X120020402Y-99259566D01*
X119997536Y-98514313D01*
X119976909Y-97794548D01*
X119958458Y-97098408D01*
X119942119Y-96424034D01*
X119928464Y-95800334D01*
X119924973Y-95605395D01*
X119922032Y-95386890D01*
X119919626Y-95148353D01*
X119917741Y-94893318D01*
X119916365Y-94625319D01*
X119915482Y-94347890D01*
X119915078Y-94064564D01*
X119915141Y-93778877D01*
X119915656Y-93494362D01*
X119916608Y-93214552D01*
X119917985Y-92942983D01*
X119919773Y-92683187D01*
X119921957Y-92438699D01*
X119924523Y-92213054D01*
X119927458Y-92009784D01*
X119930748Y-91832424D01*
X119934378Y-91684507D01*
X119938336Y-91569569D01*
X119942606Y-91491142D01*
X119945529Y-91461516D01*
X119962084Y-91345448D01*
X120194917Y-91210465D01*
X120658859Y-90944886D01*
X121161412Y-90663654D01*
X121701971Y-90367058D01*
X122279931Y-90055388D01*
X122894687Y-89728933D01*
X123545633Y-89387984D01*
X124232164Y-89032829D01*
X124953676Y-88663758D01*
X125709562Y-88281061D01*
X126499217Y-87885027D01*
X127322037Y-87475947D01*
X128177416Y-87054109D01*
X129064749Y-86619803D01*
X129983430Y-86173319D01*
X130932855Y-85714946D01*
X131912419Y-85244974D01*
X132921515Y-84763693D01*
X133959539Y-84271392D01*
X135025885Y-83768360D01*
X136119949Y-83254888D01*
X137241125Y-82731265D01*
X138388808Y-82197780D01*
X139562392Y-81654723D01*
X140761273Y-81102384D01*
X141984845Y-80541052D01*
X143232504Y-79971017D01*
X144503643Y-79392569D01*
X145797657Y-78805996D01*
X147113942Y-78211589D01*
X148451892Y-77609638D01*
X149810902Y-77000431D01*
X151045334Y-76448939D01*
X151520689Y-76237006D01*
X151958575Y-76041997D01*
X152360109Y-75863424D01*
X152726408Y-75700800D01*
X153058589Y-75553636D01*
X153357770Y-75421447D01*
X153625069Y-75303744D01*
X153861602Y-75200040D01*
X154068487Y-75109847D01*
X154246842Y-75032679D01*
X154397784Y-74968048D01*
X154522431Y-74915465D01*
X154621899Y-74874445D01*
X154697307Y-74844500D01*
X154749771Y-74825141D01*
X154780410Y-74815883D01*
X154790081Y-74815537D01*
X154796168Y-74838011D01*
G37*
X154796168Y-74838011D02*
X154810290Y-74899814D01*
X154831998Y-74998802D01*
X154860841Y-75132829D01*
X154896373Y-75299750D01*
X154938143Y-75497419D01*
X154985702Y-75723692D01*
X155038602Y-75976424D01*
X155096395Y-76253468D01*
X155158630Y-76552681D01*
X155224859Y-76871916D01*
X155294634Y-77209029D01*
X155367504Y-77561874D01*
X155443022Y-77928307D01*
X155520739Y-78306181D01*
X155531590Y-78359000D01*
X155649232Y-78931619D01*
X155758712Y-79464231D01*
X155860336Y-79958311D01*
X155954409Y-80415329D01*
X156041239Y-80836758D01*
X156121130Y-81224069D01*
X156194390Y-81578735D01*
X156261325Y-81902228D01*
X156322240Y-82196020D01*
X156377442Y-82461583D01*
X156427238Y-82700389D01*
X156471932Y-82913911D01*
X156511832Y-83103619D01*
X156547243Y-83270987D01*
X156578473Y-83417486D01*
X156605826Y-83544589D01*
X156629609Y-83653767D01*
X156650129Y-83746493D01*
X156667690Y-83824238D01*
X156674015Y-83851728D01*
X156700315Y-83969835D01*
X156716071Y-84053166D01*
X156722046Y-84107741D01*
X156719003Y-84139582D01*
X156711974Y-84151511D01*
X156692096Y-84166346D01*
X156639571Y-84204347D01*
X156556276Y-84264178D01*
X156444086Y-84344502D01*
X156304876Y-84443982D01*
X156140521Y-84561282D01*
X155952898Y-84695066D01*
X155743881Y-84843997D01*
X155515347Y-85006738D01*
X155269170Y-85181952D01*
X155007225Y-85368304D01*
X154731390Y-85564457D01*
X154443537Y-85769074D01*
X154145544Y-85980819D01*
X153998084Y-86085571D01*
X153695601Y-86300484D01*
X153402209Y-86509051D01*
X153119795Y-86709925D01*
X152850246Y-86901759D01*
X152595449Y-87083206D01*
X152357293Y-87252920D01*
X152137664Y-87409553D01*
X151938450Y-87551758D01*
X151761538Y-87678189D01*
X151608816Y-87787498D01*
X151482171Y-87878339D01*
X151383489Y-87949365D01*
X151314660Y-87999229D01*
X151277570Y-88026583D01*
X151271611Y-88031307D01*
X151251303Y-88054026D01*
X151247340Y-88077372D01*
X151261738Y-88113217D01*
X151295415Y-88171602D01*
X151328988Y-88227755D01*
X151378445Y-88310408D01*
X151437912Y-88409748D01*
X151501514Y-88515959D01*
X151522353Y-88550750D01*
X151554206Y-88601804D01*
X151608143Y-88685649D01*
X151682617Y-88799954D01*
X151776080Y-88942386D01*
X151886985Y-89110613D01*
X152013785Y-89302303D01*
X152154932Y-89515125D01*
X152308879Y-89746746D01*
X152474079Y-89994834D01*
X152648984Y-90257057D01*
X152832047Y-90531083D01*
X153021720Y-90814580D01*
X153216456Y-91105216D01*
X153295564Y-91223159D01*
X154903947Y-93620401D01*
X154969599Y-93570883D01*
X155112224Y-93463958D01*
X155275521Y-93342679D01*
X155456811Y-93208964D01*
X155653420Y-93064730D01*
X155862670Y-92911896D01*
X156081886Y-92752380D01*
X156308391Y-92588100D01*
X156539508Y-92420973D01*
X156772562Y-92252918D01*
X157004876Y-92085853D01*
X157233775Y-91921695D01*
X157456580Y-91762363D01*
X157670617Y-91609775D01*
X157873209Y-91465849D01*
X158061680Y-91332502D01*
X158233353Y-91211654D01*
X158385552Y-91105221D01*
X158515601Y-91015122D01*
X158620823Y-90943274D01*
X158698543Y-90891597D01*
X158746083Y-90862007D01*
X158757682Y-90856101D01*
X158772660Y-90858298D01*
X158784225Y-90882257D01*
X158793921Y-90934228D01*
X158803292Y-91020463D01*
X158806123Y-91052244D01*
X158814736Y-91188790D01*
X158819425Y-91345594D01*
X158820372Y-91512621D01*
X158817757Y-91679834D01*
X158811763Y-91837196D01*
X158802569Y-91974672D01*
X158790358Y-92082225D01*
X158787180Y-92101459D01*
X158774286Y-92178136D01*
X158766191Y-92235652D01*
X158764242Y-92264092D01*
X158764918Y-92265500D01*
X158785597Y-92256613D01*
X158835662Y-92232657D01*
X158906734Y-92197687D01*
X158961667Y-92170250D01*
X159042645Y-92130117D01*
X159108810Y-92098334D01*
X159151547Y-92078981D01*
X159162730Y-92075000D01*
X159167700Y-92092435D01*
X159163658Y-92122625D01*
X159157932Y-92153209D01*
X159145906Y-92220903D01*
X159128380Y-92321086D01*
X159106155Y-92449135D01*
X159080033Y-92600427D01*
X159050815Y-92770340D01*
X159019302Y-92954252D01*
X159003165Y-93048667D01*
X158871516Y-93809040D01*
X158736663Y-94567543D01*
X158599155Y-95321545D01*
X158459543Y-96068417D01*
X158318377Y-96805528D01*
X158176207Y-97530247D01*
X158033584Y-98239945D01*
X157891059Y-98931990D01*
X157749180Y-99603753D01*
X157608500Y-100252603D01*
X157469567Y-100875910D01*
X157332933Y-101471043D01*
X157199148Y-102035372D01*
X157068762Y-102566267D01*
X156942326Y-103061097D01*
X156820389Y-103517232D01*
X156789302Y-103629843D01*
X156778269Y-103667717D01*
X156765890Y-103701151D01*
X156748677Y-103734174D01*
X156723146Y-103770815D01*
X156685813Y-103815101D01*
X156633190Y-103871062D01*
X156561793Y-103942727D01*
X156468137Y-104034123D01*
X156348736Y-104149281D01*
X156296265Y-104199748D01*
X155412645Y-105025827D01*
X154521008Y-105811926D01*
X153618474Y-106560086D01*
X152702161Y-107272349D01*
X151769187Y-107950756D01*
X150816671Y-108597349D01*
X149841731Y-109214167D01*
X148841486Y-109803252D01*
X147813054Y-110366646D01*
X147002500Y-110783057D01*
X145993260Y-111268507D01*
X144966867Y-111725402D01*
X143926795Y-112152631D01*
X142876515Y-112549084D01*
X141819498Y-112913652D01*
X140759216Y-113245225D01*
X139699141Y-113542692D01*
X138642745Y-113804944D01*
X137593498Y-114030870D01*
X136554874Y-114219362D01*
X135974667Y-114308802D01*
X135749458Y-114340287D01*
X135522492Y-114370230D01*
X135297638Y-114398254D01*
X135078769Y-114423985D01*
X134869757Y-114447048D01*
X134674472Y-114467067D01*
X134496788Y-114483669D01*
X134340575Y-114496476D01*
X134209704Y-114505115D01*
X134108049Y-114509211D01*
X134039480Y-114508388D01*
X134007869Y-114502272D01*
X134006167Y-114499495D01*
X134014577Y-114479269D01*
X134039305Y-114422027D01*
X134079594Y-114329490D01*
X134134687Y-114203380D01*
X134203829Y-114045417D01*
X134286264Y-113857324D01*
X134381234Y-113640821D01*
X134487986Y-113397630D01*
X134605761Y-113129473D01*
X134733803Y-112838071D01*
X134871358Y-112525146D01*
X135017668Y-112192418D01*
X135171978Y-111841609D01*
X135333531Y-111474441D01*
X135501571Y-111092635D01*
X135675342Y-110697912D01*
X135704187Y-110632406D01*
X138832167Y-110632406D01*
X138833475Y-110783762D01*
X138838208Y-110897810D01*
X138847579Y-110979515D01*
X138862801Y-111033846D01*
X138885088Y-111065768D01*
X138915653Y-111080248D01*
X138942157Y-111082667D01*
X138973551Y-111075754D01*
X139038848Y-111056304D01*
X139132168Y-111026246D01*
X139247630Y-110987512D01*
X139379353Y-110942032D01*
X139496582Y-110900629D01*
X139663817Y-110840285D01*
X139795322Y-110791083D01*
X139895627Y-110751084D01*
X139969263Y-110718343D01*
X140020759Y-110690920D01*
X140054645Y-110666872D01*
X140065125Y-110656879D01*
X140123334Y-110595166D01*
X140123334Y-110592063D01*
X142035960Y-110592063D01*
X142037798Y-110708975D01*
X142042119Y-110832391D01*
X142048754Y-110977147D01*
X142056548Y-111084836D01*
X142066803Y-111160724D01*
X142080819Y-111210076D01*
X142099894Y-111238158D01*
X142125331Y-111250237D01*
X142145725Y-111252000D01*
X142173059Y-111245159D01*
X142234570Y-111225901D01*
X142324593Y-111196126D01*
X142437467Y-111157733D01*
X142567527Y-111112620D01*
X142689255Y-111069739D01*
X142861251Y-111007923D01*
X142997119Y-110957119D01*
X143101079Y-110915541D01*
X143177356Y-110881404D01*
X143230173Y-110852921D01*
X143263752Y-110828308D01*
X143266584Y-110825633D01*
X143330084Y-110763788D01*
X143324011Y-110380627D01*
X143320924Y-110255098D01*
X143316090Y-110142339D01*
X143309998Y-110049956D01*
X143303138Y-109985556D01*
X143296808Y-109957983D01*
X143260712Y-109925527D01*
X143232359Y-109918500D01*
X143194852Y-109925872D01*
X143124920Y-109946346D01*
X143029254Y-109977463D01*
X142914546Y-110016763D01*
X142787489Y-110061787D01*
X142654774Y-110110074D01*
X142523094Y-110159164D01*
X142399141Y-110206598D01*
X142289606Y-110249917D01*
X142201182Y-110286658D01*
X142140561Y-110314365D01*
X142116046Y-110328833D01*
X142084898Y-110360620D01*
X142062284Y-110396241D01*
X142047235Y-110442292D01*
X142038783Y-110505367D01*
X142035960Y-110592063D01*
X140123334Y-110592063D01*
X140123334Y-110237044D01*
X140122216Y-110083430D01*
X140118278Y-109966877D01*
X140110642Y-109882158D01*
X140098428Y-109824044D01*
X140080760Y-109787308D01*
X140056757Y-109766722D01*
X140043393Y-109761250D01*
X140014767Y-109765095D01*
X139952849Y-109781425D01*
X139864062Y-109808063D01*
X139754827Y-109842833D01*
X139631568Y-109883560D01*
X139500707Y-109928066D01*
X139368664Y-109974175D01*
X139241863Y-110019711D01*
X139126726Y-110062497D01*
X139029674Y-110100358D01*
X138973583Y-110123789D01*
X138926114Y-110147822D01*
X138890553Y-110176838D01*
X138865209Y-110216918D01*
X138848391Y-110274146D01*
X138838408Y-110354604D01*
X138833569Y-110464373D01*
X138832182Y-110609537D01*
X138832167Y-110632406D01*
X135704187Y-110632406D01*
X135854088Y-110291994D01*
X135956361Y-110059786D01*
X136137980Y-109647426D01*
X136315281Y-109244810D01*
X136465324Y-108904040D01*
X138800417Y-108904040D01*
X138805998Y-109298325D01*
X138808750Y-109447978D01*
X138812965Y-109560514D01*
X138819795Y-109641149D01*
X138830392Y-109695098D01*
X138845909Y-109727576D01*
X138867499Y-109743800D01*
X138896315Y-109748983D01*
X138905644Y-109749167D01*
X138937985Y-109742202D01*
X139004087Y-109722618D01*
X139097966Y-109692379D01*
X139213640Y-109653449D01*
X139345127Y-109607795D01*
X139453901Y-109569107D01*
X139593423Y-109518547D01*
X139721364Y-109471368D01*
X139831786Y-109429828D01*
X139918749Y-109396180D01*
X139976314Y-109372680D01*
X139996855Y-109362929D01*
X140033207Y-109334746D01*
X140047924Y-109314522D01*
X142009518Y-109314522D01*
X142010563Y-109462695D01*
X142011031Y-109489230D01*
X142014796Y-109636089D01*
X142020639Y-109745795D01*
X142029756Y-109823520D01*
X142043343Y-109874436D01*
X142062596Y-109903713D01*
X142088710Y-109916525D01*
X142110300Y-109918472D01*
X142138813Y-109911552D01*
X142201493Y-109892069D01*
X142292718Y-109861912D01*
X142406866Y-109822972D01*
X142538314Y-109777138D01*
X142673917Y-109728996D01*
X142847232Y-109666195D01*
X142984162Y-109614743D01*
X143088608Y-109572987D01*
X143164471Y-109539273D01*
X143215651Y-109511946D01*
X143246051Y-109489352D01*
X143250709Y-109484427D01*
X143268184Y-109462064D01*
X143280769Y-109437088D01*
X143289263Y-109402574D01*
X143294466Y-109351599D01*
X143297178Y-109277240D01*
X143297519Y-109242162D01*
X145213917Y-109242162D01*
X145221150Y-109627956D01*
X145224468Y-109771153D01*
X145228662Y-109877801D01*
X145234284Y-109953684D01*
X145241886Y-110004585D01*
X145252019Y-110036289D01*
X145261472Y-110050792D01*
X145296559Y-110080007D01*
X145317739Y-110087805D01*
X145343157Y-110080910D01*
X145402897Y-110061498D01*
X145491471Y-110031450D01*
X145603394Y-109992651D01*
X145733178Y-109946983D01*
X145867922Y-109898985D01*
X146050909Y-109832409D01*
X146196244Y-109777157D01*
X146306726Y-109732057D01*
X146385148Y-109695936D01*
X146434309Y-109667622D01*
X146450006Y-109654832D01*
X146505084Y-109599471D01*
X146500409Y-109206273D01*
X146497949Y-109056225D01*
X146493883Y-108943321D01*
X146487106Y-108862376D01*
X146476512Y-108808201D01*
X146460996Y-108775611D01*
X146439453Y-108759420D01*
X146410776Y-108754440D01*
X146404083Y-108754334D01*
X146373028Y-108761254D01*
X146308058Y-108780726D01*
X146215037Y-108810817D01*
X146099828Y-108849594D01*
X145968294Y-108895126D01*
X145851050Y-108936617D01*
X145678541Y-108999109D01*
X145542271Y-109050537D01*
X145438130Y-109092649D01*
X145362008Y-109127192D01*
X145309797Y-109155913D01*
X145277417Y-109180532D01*
X145213917Y-109242162D01*
X143297519Y-109242162D01*
X143298198Y-109172573D01*
X143298334Y-109072031D01*
X143297213Y-108918587D01*
X143293264Y-108802196D01*
X143285603Y-108717623D01*
X143273347Y-108659632D01*
X143255613Y-108622987D01*
X143231518Y-108602454D01*
X143218234Y-108597033D01*
X143189744Y-108600925D01*
X143127948Y-108617294D01*
X143039250Y-108643942D01*
X142930051Y-108678670D01*
X142806754Y-108719280D01*
X142675763Y-108763573D01*
X142543479Y-108809351D01*
X142416306Y-108854416D01*
X142300645Y-108896569D01*
X142202901Y-108933612D01*
X142129474Y-108963345D01*
X142086768Y-108983571D01*
X142080694Y-108987628D01*
X142053552Y-109017401D01*
X142033680Y-109059099D01*
X142020261Y-109118601D01*
X142012479Y-109201783D01*
X142009518Y-109314522D01*
X140047924Y-109314522D01*
X140059889Y-109298080D01*
X140077967Y-109246931D01*
X140088503Y-109175296D01*
X140092560Y-109077176D01*
X140091202Y-108946569D01*
X140088146Y-108847728D01*
X140081651Y-108699188D01*
X140073399Y-108587985D01*
X140062201Y-108509123D01*
X140052310Y-108475885D01*
X140383045Y-108475885D01*
X140383484Y-108595238D01*
X140388453Y-108741224D01*
X140394611Y-108862125D01*
X140402191Y-108969081D01*
X140410489Y-109054566D01*
X140418804Y-109111052D01*
X140424769Y-109130042D01*
X140441392Y-109144510D01*
X140465888Y-109151773D01*
X140502851Y-109150737D01*
X140556877Y-109140306D01*
X140632561Y-109119384D01*
X140734498Y-109086876D01*
X140867282Y-109041687D01*
X141020549Y-108988003D01*
X141158639Y-108938828D01*
X141286714Y-108892385D01*
X141398244Y-108851108D01*
X141486701Y-108817428D01*
X141545558Y-108793781D01*
X141563769Y-108785513D01*
X141607328Y-108757910D01*
X141639617Y-108722487D01*
X141661879Y-108673368D01*
X141675355Y-108604672D01*
X141681287Y-108510524D01*
X141680918Y-108385044D01*
X141676651Y-108251265D01*
X141670826Y-108131741D01*
X141663535Y-108026196D01*
X141655474Y-107942260D01*
X141652611Y-107923005D01*
X141971004Y-107923005D01*
X141972860Y-108041325D01*
X141977501Y-108167596D01*
X141984490Y-108312089D01*
X141992618Y-108419505D01*
X142003188Y-108495101D01*
X142017502Y-108544130D01*
X142036864Y-108571851D01*
X142062577Y-108583518D01*
X142080974Y-108585000D01*
X142107948Y-108578158D01*
X142169124Y-108558897D01*
X142258864Y-108529113D01*
X142371531Y-108490702D01*
X142501486Y-108445559D01*
X142624503Y-108402187D01*
X142798110Y-108339726D01*
X142935406Y-108288283D01*
X143040456Y-108246144D01*
X143117324Y-108211594D01*
X143170072Y-108182919D01*
X143202765Y-108158405D01*
X143203084Y-108158099D01*
X143266584Y-108096826D01*
X143260495Y-107721788D01*
X143257922Y-107597897D01*
X143254566Y-107487090D01*
X143250742Y-107396987D01*
X143246763Y-107335207D01*
X143245777Y-107327743D01*
X143561993Y-107327743D01*
X143562394Y-107453960D01*
X143566571Y-107589985D01*
X143572018Y-107723350D01*
X143577359Y-107820712D01*
X143583474Y-107888388D01*
X143591243Y-107932695D01*
X143601547Y-107959953D01*
X143615266Y-107976478D01*
X143621054Y-107980908D01*
X143634708Y-107990542D01*
X143648136Y-107997107D01*
X143666032Y-107999313D01*
X143693091Y-107995870D01*
X143734005Y-107985488D01*
X143793469Y-107966875D01*
X143876177Y-107938742D01*
X143952073Y-107912030D01*
X145178865Y-107912030D01*
X145185808Y-108303171D01*
X145188591Y-108441903D01*
X145191767Y-108544408D01*
X145196030Y-108616790D01*
X145202078Y-108665153D01*
X145210605Y-108695602D01*
X145222310Y-108714241D01*
X145233837Y-108724322D01*
X145271516Y-108747688D01*
X145290125Y-108754334D01*
X145313361Y-108747488D01*
X145371044Y-108728198D01*
X145457781Y-108698336D01*
X145568180Y-108659773D01*
X145696846Y-108614379D01*
X145831121Y-108566621D01*
X146012515Y-108500875D01*
X146156576Y-108446352D01*
X146266409Y-108401752D01*
X146345119Y-108365773D01*
X146395810Y-108337114D01*
X146415125Y-108321874D01*
X146473334Y-108264839D01*
X146473334Y-107897131D01*
X146472378Y-107741534D01*
X146468838Y-107623322D01*
X146461703Y-107537574D01*
X146449960Y-107479372D01*
X146432600Y-107443795D01*
X146408611Y-107425925D01*
X146376982Y-107420841D01*
X146375449Y-107420834D01*
X146340511Y-107427774D01*
X146271871Y-107447298D01*
X146175589Y-107477462D01*
X146057726Y-107516322D01*
X145924343Y-107561934D01*
X145808717Y-107602626D01*
X145643428Y-107662157D01*
X145513635Y-107710532D01*
X145414612Y-107749786D01*
X145341629Y-107781957D01*
X145289959Y-107809083D01*
X145254873Y-107833200D01*
X145238724Y-107848224D01*
X145178865Y-107912030D01*
X143952073Y-107912030D01*
X143986822Y-107899800D01*
X144130099Y-107848756D01*
X144224833Y-107814942D01*
X144390065Y-107755732D01*
X144520052Y-107708214D01*
X144619518Y-107670127D01*
X144693187Y-107639210D01*
X144745781Y-107613201D01*
X144782025Y-107589841D01*
X144806641Y-107566867D01*
X144824354Y-107542019D01*
X144834839Y-107522950D01*
X144847472Y-107493030D01*
X144855917Y-107455964D01*
X144860487Y-107404744D01*
X144861496Y-107332360D01*
X144859258Y-107231803D01*
X144854088Y-107096065D01*
X144854030Y-107094683D01*
X144847813Y-106973883D01*
X144840161Y-106867029D01*
X144831785Y-106781656D01*
X144823395Y-106725298D01*
X144817535Y-106706859D01*
X145150606Y-106706859D01*
X145151483Y-106901303D01*
X145153900Y-107057486D01*
X145158464Y-107179470D01*
X145165781Y-107271317D01*
X145176458Y-107337088D01*
X145191102Y-107380845D01*
X145210319Y-107406651D01*
X145234717Y-107418567D01*
X145257233Y-107420834D01*
X145284469Y-107413885D01*
X145345868Y-107394315D01*
X145435833Y-107364035D01*
X145548765Y-107324954D01*
X145679068Y-107278986D01*
X145808644Y-107232555D01*
X145932782Y-107187048D01*
X148358671Y-107187048D01*
X148364521Y-107341383D01*
X148378408Y-107457215D01*
X148400600Y-107536126D01*
X148431368Y-107579695D01*
X148462236Y-107590167D01*
X148486066Y-107583305D01*
X148544306Y-107563970D01*
X148631538Y-107534037D01*
X148742344Y-107495381D01*
X148871308Y-107449879D01*
X149005766Y-107401997D01*
X149189311Y-107335313D01*
X149335192Y-107279898D01*
X149446208Y-107234582D01*
X149525156Y-107198192D01*
X149574837Y-107169556D01*
X149590125Y-107157250D01*
X149648334Y-107100673D01*
X149648334Y-106719612D01*
X149647117Y-106583539D01*
X149643688Y-106466685D01*
X149638374Y-106375390D01*
X149631507Y-106315997D01*
X149626422Y-106297609D01*
X149586420Y-106263907D01*
X149547047Y-106256652D01*
X149504031Y-106264126D01*
X149429208Y-106284899D01*
X149329333Y-106316481D01*
X149211162Y-106356381D01*
X149081451Y-106402110D01*
X148946955Y-106451175D01*
X148814431Y-106501086D01*
X148690634Y-106549354D01*
X148582321Y-106593486D01*
X148496247Y-106630993D01*
X148439167Y-106659383D01*
X148420667Y-106671910D01*
X148398703Y-106695563D01*
X148383535Y-106721885D01*
X148373616Y-106759126D01*
X148367401Y-106815537D01*
X148363344Y-106899368D01*
X148360590Y-106992630D01*
X148358671Y-107187048D01*
X145932782Y-107187048D01*
X145990513Y-107165885D01*
X146134813Y-107110585D01*
X146244392Y-107065451D01*
X146322103Y-107029276D01*
X146370795Y-107000855D01*
X146385964Y-106988371D01*
X146441584Y-106932464D01*
X146437052Y-106568107D01*
X146434773Y-106418316D01*
X146431622Y-106305352D01*
X146426780Y-106223708D01*
X146420725Y-106177731D01*
X146739549Y-106177731D01*
X146740439Y-106308639D01*
X146743003Y-106403621D01*
X146747831Y-106523527D01*
X146754101Y-106630404D01*
X146761191Y-106716276D01*
X146768481Y-106773165D01*
X146773184Y-106791125D01*
X146807741Y-106820609D01*
X146841064Y-106828167D01*
X146873867Y-106821218D01*
X146940421Y-106801680D01*
X147034721Y-106771511D01*
X147150764Y-106732670D01*
X147282546Y-106687118D01*
X147391667Y-106648452D01*
X147531229Y-106598194D01*
X147659167Y-106551589D01*
X147769560Y-106510835D01*
X147856486Y-106478134D01*
X147914023Y-106455685D01*
X147934628Y-106446741D01*
X147972317Y-106413215D01*
X148008408Y-106361433D01*
X148010737Y-106357046D01*
X148023707Y-106326601D01*
X148032388Y-106289410D01*
X148037129Y-106238338D01*
X148038277Y-106166251D01*
X148036177Y-106066017D01*
X148031320Y-105933979D01*
X148025819Y-105813787D01*
X148019768Y-105707105D01*
X148013699Y-105621684D01*
X148011955Y-105603977D01*
X148327437Y-105603977D01*
X148328428Y-105744164D01*
X148330161Y-105812167D01*
X148336370Y-105967465D01*
X148345358Y-106084669D01*
X148357991Y-106167977D01*
X148375137Y-106221586D01*
X148397661Y-106249692D01*
X148421965Y-106256667D01*
X148446889Y-106249788D01*
X148506202Y-106230397D01*
X148594475Y-106200362D01*
X148706280Y-106161549D01*
X148836189Y-106115827D01*
X148977102Y-106065662D01*
X149168882Y-105995816D01*
X149321548Y-105937505D01*
X149436542Y-105890130D01*
X149515306Y-105853092D01*
X149559282Y-105825791D01*
X149563667Y-105821813D01*
X149587913Y-105794235D01*
X149603813Y-105763200D01*
X149613499Y-105718981D01*
X149619105Y-105651853D01*
X149622755Y-105552442D01*
X149623710Y-105432393D01*
X149620877Y-105301289D01*
X149614851Y-105181904D01*
X149612171Y-105147923D01*
X149605420Y-105070649D01*
X149597569Y-105010527D01*
X149584229Y-104967156D01*
X149561012Y-104940137D01*
X149523533Y-104929069D01*
X149467401Y-104933552D01*
X149388231Y-104953184D01*
X149281635Y-104987566D01*
X149143224Y-105036297D01*
X148990391Y-105091173D01*
X148848170Y-105142450D01*
X148717435Y-105190125D01*
X148604008Y-105232032D01*
X148513708Y-105266004D01*
X148452358Y-105289876D01*
X148426942Y-105300809D01*
X148389514Y-105327418D01*
X148361930Y-105365337D01*
X148343108Y-105420267D01*
X148331970Y-105497912D01*
X148327437Y-105603977D01*
X148011955Y-105603977D01*
X148008142Y-105565278D01*
X148004779Y-105547040D01*
X147976066Y-105516794D01*
X147947374Y-105504352D01*
X147916849Y-105508536D01*
X147853234Y-105525375D01*
X147763058Y-105552603D01*
X147652849Y-105587959D01*
X147529136Y-105629179D01*
X147398447Y-105673998D01*
X147267310Y-105720154D01*
X147142254Y-105765382D01*
X147029806Y-105807421D01*
X146936496Y-105844005D01*
X146868852Y-105872872D01*
X146836765Y-105889420D01*
X146800071Y-105918512D01*
X146773111Y-105955811D01*
X146754776Y-106007395D01*
X146743958Y-106079342D01*
X146739549Y-106177731D01*
X146420725Y-106177731D01*
X146419427Y-106167880D01*
X146408744Y-106132360D01*
X146393913Y-106111643D01*
X146374114Y-106100221D01*
X146367097Y-106097789D01*
X146332110Y-106100519D01*
X146259862Y-106118229D01*
X146152443Y-106150289D01*
X146011942Y-106196067D01*
X145840447Y-106254933D01*
X145800938Y-106268811D01*
X145622398Y-106332214D01*
X145479886Y-106384709D01*
X145369350Y-106429024D01*
X145286742Y-106467887D01*
X145228010Y-106504026D01*
X145189106Y-106540169D01*
X145165978Y-106579044D01*
X145154578Y-106623379D01*
X145150854Y-106675902D01*
X145150606Y-106706859D01*
X144817535Y-106706859D01*
X144817407Y-106706459D01*
X144780490Y-106685152D01*
X144747888Y-106680000D01*
X144716026Y-106686920D01*
X144651146Y-106706122D01*
X144559963Y-106735270D01*
X144449189Y-106772031D01*
X144325536Y-106814067D01*
X144195717Y-106859044D01*
X144066446Y-106904627D01*
X143944435Y-106948480D01*
X143836396Y-106988268D01*
X143749043Y-107021656D01*
X143689088Y-107046308D01*
X143672374Y-107054165D01*
X143631523Y-107080410D01*
X143601196Y-107115131D01*
X143580257Y-107164088D01*
X143567569Y-107233038D01*
X143561993Y-107327743D01*
X143245777Y-107327743D01*
X143243537Y-107310791D01*
X143232129Y-107286334D01*
X143212381Y-107270867D01*
X143180008Y-107265237D01*
X143130726Y-107270291D01*
X143060250Y-107286878D01*
X142964297Y-107315845D01*
X142838581Y-107358039D01*
X142678820Y-107414308D01*
X142627581Y-107432637D01*
X142484918Y-107484640D01*
X142353159Y-107534288D01*
X142238303Y-107579191D01*
X142146350Y-107616960D01*
X142083301Y-107645205D01*
X142056989Y-107659883D01*
X142023740Y-107690104D01*
X141999522Y-107725108D01*
X141983330Y-107771314D01*
X141974159Y-107835140D01*
X141971004Y-107923005D01*
X141652611Y-107923005D01*
X141647341Y-107887564D01*
X141641875Y-107870625D01*
X141605914Y-107849952D01*
X141568993Y-107844167D01*
X141536687Y-107851121D01*
X141471419Y-107870416D01*
X141379928Y-107899699D01*
X141268953Y-107936617D01*
X141145234Y-107978818D01*
X141015509Y-108023949D01*
X140886518Y-108069657D01*
X140765001Y-108113591D01*
X140657696Y-108153397D01*
X140571343Y-108186723D01*
X140512682Y-108211217D01*
X140499400Y-108217541D01*
X140456098Y-108244031D01*
X140424079Y-108277128D01*
X140402075Y-108322813D01*
X140388820Y-108387071D01*
X140383045Y-108475885D01*
X140052310Y-108475885D01*
X140046870Y-108457608D01*
X140026215Y-108428448D01*
X139999048Y-108416648D01*
X139985305Y-108415667D01*
X139959201Y-108422578D01*
X139898841Y-108442049D01*
X139809759Y-108472183D01*
X139697489Y-108511085D01*
X139567564Y-108556859D01*
X139435636Y-108603973D01*
X139253895Y-108670292D01*
X139109655Y-108725284D01*
X138999988Y-108770181D01*
X138921967Y-108806217D01*
X138872666Y-108834624D01*
X138856009Y-108848159D01*
X138800417Y-108904040D01*
X136465324Y-108904040D01*
X136487493Y-108853692D01*
X136653845Y-108475825D01*
X136813566Y-108112963D01*
X136885028Y-107950582D01*
X138769137Y-107950582D01*
X138770162Y-108104695D01*
X138774425Y-108221421D01*
X138783047Y-108305652D01*
X138797146Y-108362284D01*
X138817844Y-108396207D01*
X138846260Y-108412317D01*
X138875582Y-108415667D01*
X138906247Y-108408719D01*
X138970730Y-108389190D01*
X139063095Y-108359048D01*
X139177405Y-108320264D01*
X139307726Y-108274808D01*
X139411832Y-108237726D01*
X139550687Y-108187528D01*
X139678132Y-108140875D01*
X139788148Y-108100016D01*
X139874719Y-108067201D01*
X139931827Y-108044679D01*
X139951481Y-108036015D01*
X139990422Y-108008709D01*
X140019089Y-107970380D01*
X140038922Y-107914867D01*
X140051363Y-107836011D01*
X140057851Y-107727653D01*
X140059827Y-107583633D01*
X140059834Y-107572697D01*
X140058948Y-107455568D01*
X140056516Y-107348458D01*
X140052870Y-107260921D01*
X140048344Y-107202513D01*
X140046454Y-107189894D01*
X140037299Y-107152450D01*
X140023806Y-107125253D01*
X140001495Y-107108834D01*
X139965886Y-107103722D01*
X139912498Y-107110447D01*
X139836854Y-107129537D01*
X139734472Y-107161524D01*
X139600873Y-107206935D01*
X139447498Y-107260688D01*
X139278559Y-107320359D01*
X139144925Y-107368070D01*
X139041930Y-107405810D01*
X138964913Y-107435572D01*
X138909207Y-107459345D01*
X138870150Y-107479121D01*
X138843078Y-107496891D01*
X138823326Y-107514644D01*
X138806230Y-107534373D01*
X138806179Y-107534436D01*
X138792703Y-107556183D01*
X138782915Y-107587427D01*
X138776240Y-107634614D01*
X138772105Y-107704193D01*
X138769936Y-107802610D01*
X138769159Y-107936315D01*
X138769137Y-107950582D01*
X136885028Y-107950582D01*
X136965884Y-107766860D01*
X137110028Y-107439270D01*
X137245227Y-107131945D01*
X137370710Y-106846641D01*
X137485705Y-106585110D01*
X137566377Y-106401577D01*
X141943667Y-106401577D01*
X141943667Y-106779496D01*
X141944878Y-106935201D01*
X141949210Y-107053442D01*
X141957706Y-107139035D01*
X141971412Y-107196800D01*
X141991372Y-107231554D01*
X142018632Y-107248113D01*
X142046038Y-107251500D01*
X142075098Y-107244534D01*
X142138257Y-107224908D01*
X142229866Y-107194529D01*
X142344277Y-107155302D01*
X142475841Y-107109135D01*
X142610417Y-107061000D01*
X142751101Y-107010314D01*
X142878131Y-106964704D01*
X142986250Y-106926043D01*
X143070204Y-106896206D01*
X143124734Y-106877069D01*
X143144557Y-106870500D01*
X143158397Y-106854361D01*
X143184935Y-106814323D01*
X143192732Y-106801709D01*
X143208510Y-106771774D01*
X143219785Y-106737035D01*
X143227288Y-106690185D01*
X143231747Y-106623918D01*
X143233891Y-106530928D01*
X143234449Y-106403907D01*
X143234442Y-106383667D01*
X143232956Y-106231149D01*
X143228046Y-106115810D01*
X143218690Y-106032562D01*
X143203865Y-105976319D01*
X143182548Y-105941993D01*
X143153718Y-105924499D01*
X143141520Y-105921384D01*
X143111604Y-105926255D01*
X143047680Y-105943887D01*
X142955476Y-105972451D01*
X142840725Y-106010119D01*
X142709156Y-106055061D01*
X142581135Y-106100205D01*
X142401869Y-106165299D01*
X142259716Y-106219185D01*
X142151372Y-106263256D01*
X142073533Y-106298900D01*
X142022897Y-106327510D01*
X142001875Y-106344089D01*
X141943667Y-106401577D01*
X137566377Y-106401577D01*
X137589441Y-106349106D01*
X137681147Y-106140383D01*
X137760051Y-105960695D01*
X137815640Y-105834001D01*
X143531167Y-105834001D01*
X143531167Y-106199374D01*
X143532409Y-106352349D01*
X143536918Y-106467977D01*
X143545869Y-106551194D01*
X143560435Y-106606933D01*
X143581791Y-106640131D01*
X143611110Y-106655721D01*
X143640492Y-106658834D01*
X143671720Y-106651986D01*
X143736904Y-106632717D01*
X143830167Y-106602939D01*
X143945631Y-106564565D01*
X144077419Y-106519507D01*
X144194917Y-106478429D01*
X144359628Y-106419679D01*
X144488853Y-106372016D01*
X144587356Y-106333402D01*
X144659898Y-106301797D01*
X144711240Y-106275162D01*
X144746145Y-106251458D01*
X144764125Y-106234679D01*
X144822334Y-106171332D01*
X144822334Y-105813211D01*
X144821199Y-105659335D01*
X144817481Y-105550103D01*
X145121258Y-105550103D01*
X145122612Y-105651783D01*
X145126290Y-105799886D01*
X145131988Y-105910786D01*
X145140872Y-105989605D01*
X145154112Y-106041466D01*
X145172875Y-106071491D01*
X145198328Y-106084802D01*
X145221800Y-106086908D01*
X145250311Y-106079874D01*
X145312987Y-106060274D01*
X145404205Y-106030002D01*
X145518345Y-105990956D01*
X145649784Y-105945031D01*
X145785417Y-105896807D01*
X145952906Y-105836195D01*
X146084697Y-105787010D01*
X146185264Y-105747326D01*
X146259081Y-105715217D01*
X146310622Y-105688756D01*
X146344361Y-105666017D01*
X146362103Y-105648524D01*
X146379265Y-105625224D01*
X146391715Y-105599541D01*
X146400208Y-105564659D01*
X146405500Y-105513758D01*
X146408347Y-105440020D01*
X146409506Y-105336626D01*
X146409728Y-105218918D01*
X146409104Y-105078294D01*
X146406815Y-104973811D01*
X146402378Y-104899295D01*
X146395306Y-104848569D01*
X146385115Y-104815459D01*
X146376883Y-104800877D01*
X146340261Y-104765572D01*
X146309043Y-104753834D01*
X146281190Y-104760711D01*
X146220113Y-104779810D01*
X146132352Y-104808830D01*
X146024445Y-104845471D01*
X145902934Y-104887431D01*
X145774357Y-104932410D01*
X145645255Y-104978107D01*
X145522168Y-105022222D01*
X145411635Y-105062453D01*
X145320196Y-105096502D01*
X145254392Y-105122065D01*
X145221618Y-105136376D01*
X145185455Y-105161433D01*
X145158539Y-105196385D01*
X145139766Y-105246980D01*
X145128030Y-105318966D01*
X145122229Y-105418091D01*
X145121258Y-105550103D01*
X144817481Y-105550103D01*
X144817224Y-105542558D01*
X144809554Y-105457694D01*
X144797331Y-105399555D01*
X144779701Y-105362955D01*
X144755806Y-105342707D01*
X144743886Y-105337891D01*
X144713534Y-105341439D01*
X144648602Y-105358248D01*
X144554155Y-105386737D01*
X144435260Y-105425325D01*
X144296981Y-105472433D01*
X144176465Y-105514954D01*
X144010249Y-105574975D01*
X143879434Y-105623619D01*
X143779275Y-105662941D01*
X143705029Y-105694995D01*
X143651948Y-105721836D01*
X143615290Y-105745518D01*
X143590308Y-105768095D01*
X143589375Y-105769126D01*
X143531167Y-105834001D01*
X137815640Y-105834001D01*
X137825383Y-105811796D01*
X137876371Y-105695438D01*
X137912243Y-105613377D01*
X137932229Y-105567365D01*
X137936128Y-105558167D01*
X137954073Y-105511540D01*
X137954811Y-105499530D01*
X137937095Y-105517543D01*
X137927975Y-105528137D01*
X137911370Y-105550473D01*
X137871765Y-105605324D01*
X137810613Y-105690650D01*
X137729364Y-105804408D01*
X137629472Y-105944556D01*
X137512387Y-106109051D01*
X137379560Y-106295853D01*
X137232445Y-106502918D01*
X137072492Y-106728205D01*
X136901154Y-106969673D01*
X136719881Y-107225277D01*
X136530126Y-107492978D01*
X136333340Y-107770733D01*
X136239250Y-107903582D01*
X136040238Y-108184483D01*
X135847899Y-108455716D01*
X135663655Y-108715290D01*
X135488928Y-108961210D01*
X135325141Y-109191484D01*
X135173714Y-109404119D01*
X135036070Y-109597123D01*
X134913630Y-109768502D01*
X134807817Y-109916263D01*
X134720052Y-110038414D01*
X134651757Y-110132962D01*
X134604354Y-110197913D01*
X134579264Y-110231275D01*
X134575540Y-110235487D01*
X134554364Y-110227192D01*
X134498128Y-110203158D01*
X134410406Y-110164960D01*
X134294768Y-110114175D01*
X134154787Y-110052376D01*
X133994035Y-109981139D01*
X133816083Y-109902041D01*
X133624503Y-109816655D01*
X133517207Y-109768740D01*
X133276995Y-109661929D01*
X133063761Y-109568212D01*
X132879192Y-109488296D01*
X132724975Y-109422889D01*
X132602796Y-109372700D01*
X132514342Y-109338436D01*
X132461301Y-109320805D01*
X132445737Y-109318948D01*
X132429071Y-109336693D01*
X132386219Y-109384610D01*
X132318750Y-109460903D01*
X132228232Y-109563778D01*
X132116233Y-109691439D01*
X131984322Y-109842092D01*
X131834068Y-110013942D01*
X131667038Y-110205194D01*
X131484800Y-110414053D01*
X131288925Y-110638724D01*
X131080979Y-110877414D01*
X130862531Y-111128325D01*
X130635149Y-111389665D01*
X130405159Y-111654167D01*
X130170784Y-111923730D01*
X129943967Y-112184476D01*
X129726265Y-112434626D01*
X129519231Y-112672395D01*
X129324422Y-112896003D01*
X129143392Y-113103667D01*
X128977696Y-113293606D01*
X128828890Y-113464036D01*
X128698529Y-113613178D01*
X128588167Y-113739248D01*
X128499361Y-113840464D01*
X128433665Y-113915045D01*
X128392634Y-113961208D01*
X128377838Y-113977168D01*
X128359183Y-113965420D01*
X128311510Y-113929679D01*
X128238488Y-113872850D01*
X128143785Y-113797842D01*
X128031070Y-113707562D01*
X127904012Y-113604918D01*
X127766277Y-113492817D01*
X127751417Y-113480675D01*
X127673242Y-113416780D01*
X127564213Y-113327673D01*
X127426256Y-113214930D01*
X127261298Y-113080123D01*
X127071264Y-112924828D01*
X126858083Y-112750618D01*
X126623680Y-112559069D01*
X126369983Y-112351755D01*
X126098917Y-112130250D01*
X125812410Y-111896128D01*
X125512388Y-111650964D01*
X125200778Y-111396333D01*
X124879506Y-111133808D01*
X124550499Y-110864964D01*
X124215685Y-110591375D01*
X123876988Y-110314617D01*
X123772084Y-110228896D01*
X123441873Y-109959045D01*
X123120177Y-109696099D01*
X122808548Y-109441328D01*
X122508540Y-109196004D01*
X122221705Y-108961400D01*
X121949598Y-108738787D01*
X121693770Y-108529436D01*
X121455776Y-108334620D01*
X121237167Y-108155610D01*
X121039498Y-107993677D01*
X120864322Y-107850094D01*
X120713191Y-107726133D01*
X120587658Y-107623064D01*
X120489278Y-107542159D01*
X120419602Y-107484691D01*
X120380185Y-107451931D01*
X120371592Y-107444556D01*
X120363352Y-107432229D01*
X120355946Y-107410086D01*
X120349117Y-107374673D01*
X120342612Y-107322536D01*
X120336175Y-107250219D01*
X120329550Y-107154268D01*
X120322482Y-107031230D01*
X120314717Y-106877649D01*
X120305998Y-106690071D01*
X120296072Y-106465041D01*
X120291651Y-106362500D01*
X120253505Y-105462917D01*
X137964334Y-105462917D01*
X137974917Y-105473500D01*
X137985500Y-105462917D01*
X137974917Y-105452334D01*
X137964334Y-105462917D01*
X120253505Y-105462917D01*
X120248561Y-105346339D01*
X120219951Y-104654238D01*
X143495531Y-104654238D01*
X143496470Y-104775485D01*
X143500959Y-104908598D01*
X143506923Y-105029746D01*
X143514302Y-105136954D01*
X143522413Y-105222714D01*
X143530571Y-105279514D01*
X143536519Y-105298875D01*
X143554020Y-105313774D01*
X143580325Y-105320952D01*
X143619941Y-105319325D01*
X143677375Y-105307809D01*
X143757135Y-105285321D01*
X143863727Y-105250777D01*
X144001659Y-105203092D01*
X144141374Y-105153401D01*
X144279238Y-105103635D01*
X144406710Y-105056921D01*
X144517401Y-105015657D01*
X144604918Y-104982240D01*
X144662872Y-104959067D01*
X144681126Y-104950911D01*
X144723268Y-104923734D01*
X144754478Y-104887365D01*
X144775903Y-104836076D01*
X144788689Y-104764142D01*
X144793981Y-104665834D01*
X144792927Y-104535426D01*
X144788677Y-104413497D01*
X144782605Y-104279862D01*
X144776585Y-104182116D01*
X144769728Y-104113829D01*
X144762774Y-104077168D01*
X148293667Y-104077168D01*
X148294172Y-104399626D01*
X148296497Y-104570153D01*
X148303387Y-104702279D01*
X148315613Y-104799767D01*
X148333947Y-104866378D01*
X148359158Y-104905874D01*
X148392017Y-104922019D01*
X148401361Y-104922843D01*
X148423890Y-104916080D01*
X148480760Y-104896885D01*
X148566482Y-104867171D01*
X148675568Y-104828852D01*
X148802531Y-104783843D01*
X148915667Y-104743452D01*
X149082954Y-104683438D01*
X149215033Y-104635586D01*
X149316582Y-104597876D01*
X149392282Y-104568289D01*
X149446811Y-104544806D01*
X149484848Y-104525408D01*
X149511074Y-104508076D01*
X149530166Y-104490791D01*
X149546805Y-104471534D01*
X149547321Y-104470898D01*
X149560695Y-104449345D01*
X149570439Y-104418390D01*
X149577113Y-104371647D01*
X149581279Y-104302729D01*
X149583495Y-104205252D01*
X149584323Y-104072828D01*
X149584363Y-104048650D01*
X149583298Y-103912793D01*
X149579963Y-103796464D01*
X149574680Y-103705980D01*
X149567775Y-103647658D01*
X149562922Y-103630609D01*
X149524175Y-103597326D01*
X149487569Y-103589667D01*
X149453519Y-103596531D01*
X149385661Y-103615843D01*
X149290008Y-103645684D01*
X149172574Y-103684136D01*
X149039371Y-103729279D01*
X148922106Y-103770117D01*
X148757234Y-103828820D01*
X148627857Y-103876448D01*
X148529214Y-103915036D01*
X148456547Y-103946617D01*
X148405098Y-103973227D01*
X148370107Y-103996898D01*
X148351875Y-104013867D01*
X148293667Y-104077168D01*
X144762774Y-104077168D01*
X144761142Y-104068567D01*
X144749940Y-104039897D01*
X144735230Y-104021389D01*
X144734325Y-104020559D01*
X144720456Y-104010443D01*
X144702407Y-104005187D01*
X144675351Y-104006081D01*
X144634458Y-104014416D01*
X144574901Y-104031479D01*
X144491851Y-104058560D01*
X144380479Y-104096949D01*
X144235957Y-104147934D01*
X144171207Y-104170928D01*
X144028156Y-104222237D01*
X143896362Y-104270390D01*
X143781696Y-104313170D01*
X143690029Y-104348364D01*
X143627232Y-104373755D01*
X143600399Y-104386302D01*
X143560913Y-104415290D01*
X143531854Y-104450425D01*
X143512052Y-104497860D01*
X143500335Y-104563747D01*
X143495531Y-104654238D01*
X120219951Y-104654238D01*
X120208223Y-104370556D01*
X120198135Y-104119415D01*
X141880272Y-104119415D01*
X141881478Y-104273845D01*
X141885916Y-104390847D01*
X141894665Y-104475270D01*
X141908804Y-104531965D01*
X141929412Y-104565782D01*
X141957568Y-104581571D01*
X141983770Y-104584500D01*
X142013433Y-104577582D01*
X142077029Y-104558124D01*
X142168714Y-104528073D01*
X142282642Y-104489377D01*
X142412968Y-104443981D01*
X142523333Y-104404786D01*
X142662895Y-104354528D01*
X142790834Y-104307922D01*
X142901226Y-104267169D01*
X142988152Y-104234468D01*
X143045690Y-104212019D01*
X143066295Y-104203075D01*
X143102764Y-104177572D01*
X143129937Y-104141584D01*
X143149075Y-104089206D01*
X143161439Y-104014532D01*
X143168290Y-103911656D01*
X143170887Y-103774672D01*
X143171021Y-103712426D01*
X143169382Y-103559526D01*
X143164152Y-103443955D01*
X143154394Y-103360792D01*
X143139170Y-103305118D01*
X143117542Y-103272010D01*
X143088572Y-103256548D01*
X143083941Y-103255524D01*
X143055793Y-103260709D01*
X142993429Y-103278602D01*
X142902403Y-103307396D01*
X142788267Y-103345287D01*
X142656575Y-103390471D01*
X142512973Y-103441109D01*
X142343026Y-103502413D01*
X142208936Y-103552305D01*
X142106359Y-103592639D01*
X142030950Y-103625269D01*
X141978366Y-103652047D01*
X141944263Y-103674829D01*
X141927897Y-103690773D01*
X141910738Y-103713701D01*
X141898290Y-103739065D01*
X141889798Y-103773667D01*
X141884505Y-103824307D01*
X141881656Y-103897787D01*
X141880496Y-104000908D01*
X141880272Y-104119415D01*
X120198135Y-104119415D01*
X120170574Y-103433290D01*
X120160330Y-103169889D01*
X143465087Y-103169889D01*
X143471668Y-103561441D01*
X143474317Y-103700210D01*
X143477383Y-103802752D01*
X143481558Y-103875171D01*
X143487534Y-103923573D01*
X143496003Y-103954062D01*
X143507658Y-103972744D01*
X143519473Y-103983095D01*
X143532050Y-103992877D01*
X143543554Y-104000011D01*
X143558536Y-104003234D01*
X143581550Y-104001283D01*
X143617148Y-103992896D01*
X143669883Y-103976810D01*
X143744307Y-103951762D01*
X143844973Y-103916490D01*
X143976433Y-103869731D01*
X144143240Y-103810221D01*
X144145000Y-103809594D01*
X144307147Y-103751177D01*
X144433933Y-103703879D01*
X144530213Y-103665592D01*
X144600840Y-103634210D01*
X144650669Y-103607624D01*
X144684552Y-103583726D01*
X144700625Y-103568306D01*
X144758834Y-103504332D01*
X144758834Y-103138959D01*
X144757551Y-102985581D01*
X144752964Y-102869601D01*
X144743957Y-102786140D01*
X144729420Y-102730321D01*
X144722332Y-102719258D01*
X145057512Y-102719258D01*
X145057715Y-102815733D01*
X145059471Y-102946976D01*
X145059786Y-102967353D01*
X145063084Y-103118923D01*
X145068307Y-103233180D01*
X145076478Y-103315135D01*
X145088621Y-103369801D01*
X145105758Y-103402187D01*
X145128913Y-103417305D01*
X145152270Y-103420334D01*
X145179463Y-103413483D01*
X145240629Y-103394242D01*
X145329919Y-103364576D01*
X145441481Y-103326451D01*
X145569465Y-103281832D01*
X145662970Y-103248756D01*
X145801713Y-103199239D01*
X145930564Y-103152956D01*
X146043031Y-103112264D01*
X146132622Y-103079517D01*
X146192841Y-103057072D01*
X146212636Y-103049340D01*
X146257409Y-103026395D01*
X146291084Y-102995665D01*
X146315184Y-102951311D01*
X146331235Y-102887494D01*
X146340759Y-102798373D01*
X146345281Y-102678111D01*
X146346334Y-102537094D01*
X146344934Y-102384733D01*
X146340010Y-102269828D01*
X146330475Y-102187573D01*
X146315240Y-102133159D01*
X146293218Y-102101780D01*
X146263321Y-102088629D01*
X146244592Y-102087394D01*
X146215683Y-102094437D01*
X146152612Y-102113995D01*
X146061024Y-102144176D01*
X145946565Y-102183090D01*
X145814879Y-102228844D01*
X145679605Y-102276695D01*
X145512723Y-102336775D01*
X145381476Y-102385475D01*
X145281320Y-102424746D01*
X145207712Y-102456543D01*
X145156109Y-102482816D01*
X145121965Y-102505520D01*
X145102141Y-102524843D01*
X145085000Y-102547574D01*
X145072606Y-102571708D01*
X145064318Y-102603918D01*
X145059500Y-102650877D01*
X145057512Y-102719258D01*
X144722332Y-102719258D01*
X144708240Y-102697264D01*
X144679303Y-102682092D01*
X144654055Y-102679500D01*
X144624129Y-102686286D01*
X144560114Y-102705385D01*
X144467800Y-102734914D01*
X144352979Y-102772987D01*
X144221442Y-102817718D01*
X144099630Y-102859982D01*
X143935253Y-102918079D01*
X143806281Y-102965132D01*
X143707869Y-103003207D01*
X143635169Y-103034370D01*
X143583335Y-103060689D01*
X143547522Y-103084229D01*
X143524585Y-103105177D01*
X143465087Y-103169889D01*
X120160330Y-103169889D01*
X120135548Y-102532680D01*
X120103081Y-101666864D01*
X120073111Y-100833980D01*
X120045573Y-100032168D01*
X120020402Y-99259566D01*
X119997536Y-98514313D01*
X119976909Y-97794548D01*
X119958458Y-97098408D01*
X119942119Y-96424034D01*
X119928464Y-95800334D01*
X119924973Y-95605395D01*
X119922032Y-95386890D01*
X119919626Y-95148353D01*
X119917741Y-94893318D01*
X119916365Y-94625319D01*
X119915482Y-94347890D01*
X119915078Y-94064564D01*
X119915141Y-93778877D01*
X119915656Y-93494362D01*
X119916608Y-93214552D01*
X119917985Y-92942983D01*
X119919773Y-92683187D01*
X119921957Y-92438699D01*
X119924523Y-92213054D01*
X119927458Y-92009784D01*
X119930748Y-91832424D01*
X119934378Y-91684507D01*
X119938336Y-91569569D01*
X119942606Y-91491142D01*
X119945529Y-91461516D01*
X119962084Y-91345448D01*
X120194917Y-91210465D01*
X120658859Y-90944886D01*
X121161412Y-90663654D01*
X121701971Y-90367058D01*
X122279931Y-90055388D01*
X122894687Y-89728933D01*
X123545633Y-89387984D01*
X124232164Y-89032829D01*
X124953676Y-88663758D01*
X125709562Y-88281061D01*
X126499217Y-87885027D01*
X127322037Y-87475947D01*
X128177416Y-87054109D01*
X129064749Y-86619803D01*
X129983430Y-86173319D01*
X130932855Y-85714946D01*
X131912419Y-85244974D01*
X132921515Y-84763693D01*
X133959539Y-84271392D01*
X135025885Y-83768360D01*
X136119949Y-83254888D01*
X137241125Y-82731265D01*
X138388808Y-82197780D01*
X139562392Y-81654723D01*
X140761273Y-81102384D01*
X141984845Y-80541052D01*
X143232504Y-79971017D01*
X144503643Y-79392569D01*
X145797657Y-78805996D01*
X147113942Y-78211589D01*
X148451892Y-77609638D01*
X149810902Y-77000431D01*
X151045334Y-76448939D01*
X151520689Y-76237006D01*
X151958575Y-76041997D01*
X152360109Y-75863424D01*
X152726408Y-75700800D01*
X153058589Y-75553636D01*
X153357770Y-75421447D01*
X153625069Y-75303744D01*
X153861602Y-75200040D01*
X154068487Y-75109847D01*
X154246842Y-75032679D01*
X154397784Y-74968048D01*
X154522431Y-74915465D01*
X154621899Y-74874445D01*
X154697307Y-74844500D01*
X154749771Y-74825141D01*
X154780410Y-74815883D01*
X154790081Y-74815537D01*
X154796168Y-74838011D01*
%TD*%
%TA.AperFunction,ComponentPad*%
D11*
%TO.P,X1,2*%
%TO.N,Net-(D1-Pad1)*%
G36*
X154235424Y-90398446D02*
G01*
X155700173Y-89483169D01*
X156615450Y-90947918D01*
X155150701Y-91863195D01*
X154235424Y-90398446D01*
G37*
%TD.AperFunction*%
%TO.P,X1,1*%
%TO.N,Net-(R1-Pad1)*%
%TA.AperFunction,ComponentPad*%
G36*
G01*
X153621804Y-87786766D02*
X153621804Y-87786766D01*
G75*
G02*
X154811816Y-88061502I457638J-732374D01*
G01*
X154811816Y-88061502D01*
G75*
G02*
X154537080Y-89251514I-732374J-457638D01*
G01*
X154537080Y-89251514D01*
G75*
G02*
X153347068Y-88976778I-457638J732374D01*
G01*
X153347068Y-88976778D01*
G75*
G02*
X153621804Y-87786766I732374J457638D01*
G01*
G37*
%TD.AperFunction*%
%TO.P,X1,4*%
%TO.N,Net-(X1-Pad4)*%
%TA.AperFunction,ComponentPad*%
G36*
G01*
X157121841Y-88594813D02*
X157121841Y-88594813D01*
G75*
G02*
X158311853Y-88869549I457638J-732374D01*
G01*
X158311853Y-88869549D01*
G75*
G02*
X158037117Y-90059561I-732374J-457638D01*
G01*
X158037117Y-90059561D01*
G75*
G02*
X156847105Y-89784825I-457638J732374D01*
G01*
X156847105Y-89784825D01*
G75*
G02*
X157121841Y-88594813I732374J457638D01*
G01*
G37*
%TD.AperFunction*%
%TO.P,X1,3*%
%TO.N,Net-(X1-Pad3)*%
%TA.AperFunction,ComponentPad*%
G36*
G01*
X155775846Y-86440771D02*
X155775846Y-86440771D01*
G75*
G02*
X156965858Y-86715507I457638J-732374D01*
G01*
X156965858Y-86715507D01*
G75*
G02*
X156691122Y-87905519I-732374J-457638D01*
G01*
X156691122Y-87905519D01*
G75*
G02*
X155501110Y-87630783I-457638J732374D01*
G01*
X155501110Y-87630783D01*
G75*
G02*
X155775846Y-86440771I732374J457638D01*
G01*
G37*
%TD.AperFunction*%
D12*
%TO.P,X1,6*%
%TO.N,Net-(X1-Pad6)*%
X159733521Y-87981192D03*
%TO.P,X1,5*%
%TO.N,Net-(X1-Pad5)*%
X158387526Y-85827150D03*
%TD*%
M02*
